{
classes = (
{
automatic = 1;
code = "A Aacute Acircumflex Adieresis Agrave Aring Atilde AE B C Ccedilla D Eth E Eacute Ecircumflex Edieresis Egrave F G H I Iacute Icircumflex Idieresis Igrave J K L Lslash M N Ntilde O Oacute Ocircumflex Odieresis Ograve Oslash Otilde OE P Thorn Q R S Scaron T U Uacute Ucircumflex Udieresis Ugrave V W X Y Yacute Ydieresis Z Zcaron";
name = Uppercase;
}
);
copyright = "Copyright \U00A9 2012 by Julia Petretta. All rights reserved.";
date = "2013-01-11 11:58:50 +0000";
designer = "Julia Petretta";
familyName = "Lily Script";
featurePrefixes = (
{
automatic = 1;
code = "languagesystem DFLT dflt;\012languagesystem latn dflt;\012languagesystem grek dflt;\012";
name = Languagesystems;
}
);
fontMaster = (
{
alignmentZones = (
"{761, 16}",
"{700, 15}",
"{501, 0}",
"{0, -15}",
"{0, 0}",
"{-311, 0}"
);
ascender = 700;
capHeight = 761;
customParameters = (
{
name = TypoAscender;
value = 700;
},
{
name = TypoDescender;
value = "-275";
}
);
descender = "-275";
horizontalStems = (
95
);
id = "D6BACC31-AA00-4837-BF4A-0C7E591D0F9E";
verticalStems = (
135
);
weight = Bold;
weightValue = 600;
widthValue = 5;
xHeight = 481;
}
);
glyphs = (
{
glyphname = A;
layers = (
{
anchors = (
{
name = class0;
position = "{487, 761}";
},
{
name = class1;
position = "{0, 0}";
}
);
layerId = "D6BACC31-AA00-4837-BF4A-0C7E591D0F9E";
name = Bold;
paths = (
{
closed = 1;
nodes = (
"836 166 LINE",
"808 234 LINE",
"757 155 OFFCURVE",
"688 103 OFFCURVE",
"653 101 CURVE SMOOTH",
"625 100 OFFCURVE",
"620 115 OFFCURVE",
"615 173 CURVE SMOOTH",
"610 232 OFFCURVE",
"570 671 OFFCURVE",
"569 756 CURVE",
"550 761 OFFCURVE",
"530 763 OFFCURVE",
"510 761 CURVE",
"474 764 OFFCURVE",
"432 759 OFFCURVE",
"406 744 CURVE",
"350 598 OFFCURVE",
"284 426 OFFCURVE",
"233 296 CURVE",
"128 251 OFFCURVE",
"46 195 OFFCURVE",
"36 121 CURVE SMOOTH",
"24 34 OFFCURVE",
"77 -6 OFFCURVE",
"127 -6 CURVE SMOOTH",
"237 -6 OFFCURVE",
"266 79 OFFCURVE",
"298 168 CURVE SMOOTH",
"332 262 LINE",
"378 277 OFFCURVE",
"426 292 OFFCURVE",
"473 306 CURVE",
"477 254 OFFCURVE",
"481 208 OFFCURVE",
"485 171 CURVE SMOOTH",
"499 31 OFFCURVE",
"536 -1 OFFCURVE",
"607 -2 CURVE SMOOTH",
"679 -3 OFFCURVE",
"751 55 OFFCURVE",
"812 134 CURVE SMOOTH"
);
},
{
closed = 1;
nodes = (
"449 588 LINE",
"466 380 LINE",
"432 369 OFFCURVE",
"397 357 OFFCURVE",
"362 345 CURVE"
);
},
{
closed = 1;
nodes = (
"152 97 OFFCURVE",
"144 85 OFFCURVE",
"129 85 CURVE SMOOTH",
"110 85 OFFCURVE",
"105 99 OFFCURVE",
"105 117 CURVE SMOOTH",
"105 150 OFFCURVE",
"142 181 OFFCURVE",
"198 209 CURVE",
"180 162 OFFCURVE",
"166 128 OFFCURVE",
"158 111 CURVE"
);
}
);
width = 714;
}
);
leftKerningGroup = A;
unicode = 0041;
},
{
glyphname = Aacute;
layers = (
{
layerId = "D6BACC31-AA00-4837-BF4A-0C7E591D0F9E";
name = Bold;
paths = (
{
closed = 1;
nodes = (
"430 830 LINE",
"436 823 OFFCURVE",
"454 801 OFFCURVE",
"468 793 CURVE",
"648 926 LINE",
"629 954 OFFCURVE",
"586 1003 OFFCURVE",
"557 1017 CURVE"
);
},
{
closed = 1;
nodes = (
"836 166 LINE",
"808 234 LINE",
"757 155 OFFCURVE",
"688 103 OFFCURVE",
"653 101 CURVE SMOOTH",
"625 100 OFFCURVE",
"620 115 OFFCURVE",
"615 173 CURVE SMOOTH",
"610 232 OFFCURVE",
"570 671 OFFCURVE",
"569 756 CURVE",
"550 761 OFFCURVE",
"530 763 OFFCURVE",
"510 761 CURVE",
"474 764 OFFCURVE",
"432 759 OFFCURVE",
"406 744 CURVE",
"350 598 OFFCURVE",
"284 426 OFFCURVE",
"233 296 CURVE",
"128 251 OFFCURVE",
"46 195 OFFCURVE",
"36 121 CURVE SMOOTH",
"24 34 OFFCURVE",
"77 -6 OFFCURVE",
"127 -6 CURVE SMOOTH",
"237 -6 OFFCURVE",
"266 79 OFFCURVE",
"298 168 CURVE SMOOTH",
"332 262 LINE",
"378 277 OFFCURVE",
"426 292 OFFCURVE",
"473 306 CURVE",
"477 254 OFFCURVE",
"481 208 OFFCURVE",
"485 171 CURVE SMOOTH",
"499 31 OFFCURVE",
"536 -1 OFFCURVE",
"607 -2 CURVE SMOOTH",
"679 -3 OFFCURVE",
"751 55 OFFCURVE",
"812 134 CURVE SMOOTH"
);
},
{
closed = 1;
nodes = (
"449 588 LINE",
"466 380 LINE",
"432 369 OFFCURVE",
"397 357 OFFCURVE",
"362 345 CURVE"
);
},
{
closed = 1;
nodes = (
"152 97 OFFCURVE",
"144 85 OFFCURVE",
"129 85 CURVE SMOOTH",
"110 85 OFFCURVE",
"105 99 OFFCURVE",
"105 117 CURVE SMOOTH",
"105 150 OFFCURVE",
"142 181 OFFCURVE",
"198 209 CURVE",
"180 162 OFFCURVE",
"166 128 OFFCURVE",
"158 111 CURVE"
);
}
);
width = 714;
}
);
leftKerningGroup = A;
unicode = 00C1;
},
{
glyphname = Acircumflex;
layers = (
{
layerId = "D6BACC31-AA00-4837-BF4A-0C7E591D0F9E";
name = Bold;
paths = (
{
closed = 1;
nodes = (
"499 980 LINE",
"325 859 LINE",
"333 844 OFFCURVE",
"349 815 OFFCURVE",
"358 801 CURVE",
"499 874 LINE",
"640 801 LINE",
"649 815 OFFCURVE",
"665 844 OFFCURVE",
"673 859 CURVE"
);
},
{
closed = 1;
nodes = (
"836 166 LINE",
"808 234 LINE",
"757 155 OFFCURVE",
"688 103 OFFCURVE",
"653 101 CURVE SMOOTH",
"625 100 OFFCURVE",
"620 115 OFFCURVE",
"615 173 CURVE SMOOTH",
"610 232 OFFCURVE",
"570 671 OFFCURVE",
"569 756 CURVE",
"550 761 OFFCURVE",
"530 763 OFFCURVE",
"510 761 CURVE",
"474 764 OFFCURVE",
"432 759 OFFCURVE",
"406 744 CURVE",
"350 598 OFFCURVE",
"284 426 OFFCURVE",
"233 296 CURVE",
"128 251 OFFCURVE",
"46 195 OFFCURVE",
"36 121 CURVE SMOOTH",
"24 34 OFFCURVE",
"77 -6 OFFCURVE",
"127 -6 CURVE SMOOTH",
"237 -6 OFFCURVE",
"266 79 OFFCURVE",
"298 168 CURVE SMOOTH",
"332 262 LINE",
"378 277 OFFCURVE",
"426 292 OFFCURVE",
"473 306 CURVE",
"477 254 OFFCURVE",
"481 208 OFFCURVE",
"485 171 CURVE SMOOTH",
"499 31 OFFCURVE",
"536 -1 OFFCURVE",
"607 -2 CURVE SMOOTH",
"679 -3 OFFCURVE",
"751 55 OFFCURVE",
"812 134 CURVE SMOOTH"
);
},
{
closed = 1;
nodes = (
"449 588 LINE",
"466 380 LINE",
"432 369 OFFCURVE",
"397 357 OFFCURVE",
"362 345 CURVE"
);
},
{
closed = 1;
nodes = (
"152 97 OFFCURVE",
"144 85 OFFCURVE",
"129 85 CURVE SMOOTH",
"110 85 OFFCURVE",
"105 99 OFFCURVE",
"105 117 CURVE SMOOTH",
"105 150 OFFCURVE",
"142 181 OFFCURVE",
"198 209 CURVE",
"180 162 OFFCURVE",
"166 128 OFFCURVE",
"158 111 CURVE"
);
}
);
width = 714;
}
);
leftKerningGroup = A;
unicode = 00C2;
},
{
glyphname = Adieresis;
layers = (
{
layerId = "D6BACC31-AA00-4837-BF4A-0C7E591D0F9E";
name = Bold;
paths = (
{
closed = 1;
nodes = (
"335 957 OFFCURVE",
"305 924 OFFCURVE",
"305 884 CURVE SMOOTH",
"305 844 OFFCURVE",
"335 812 OFFCURVE",
"377 812 CURVE SMOOTH",
"416 812 OFFCURVE",
"448 844 OFFCURVE",
"448 884 CURVE SMOOTH",
"448 924 OFFCURVE",
"416 957 OFFCURVE",
"377 957 CURVE SMOOTH"
);
},
{
closed = 1;
nodes = (
"577 957 OFFCURVE",
"544 924 OFFCURVE",
"544 884 CURVE SMOOTH",
"544 844 OFFCURVE",
"577 812 OFFCURVE",
"617 812 CURVE SMOOTH",
"658 812 OFFCURVE",
"689 844 OFFCURVE",
"689 884 CURVE SMOOTH",
"689 924 OFFCURVE",
"658 957 OFFCURVE",
"617 957 CURVE SMOOTH"
);
},
{
closed = 1;
nodes = (
"836 166 LINE",
"808 234 LINE",
"757 155 OFFCURVE",
"688 103 OFFCURVE",
"653 101 CURVE SMOOTH",
"625 100 OFFCURVE",
"620 115 OFFCURVE",
"615 173 CURVE SMOOTH",
"610 232 OFFCURVE",
"570 671 OFFCURVE",
"569 756 CURVE",
"550 761 OFFCURVE",
"530 763 OFFCURVE",
"510 761 CURVE",
"474 764 OFFCURVE",
"432 759 OFFCURVE",
"406 744 CURVE",
"350 598 OFFCURVE",
"284 426 OFFCURVE",
"233 296 CURVE",
"128 251 OFFCURVE",
"46 195 OFFCURVE",
"36 121 CURVE SMOOTH",
"24 34 OFFCURVE",
"77 -6 OFFCURVE",
"127 -6 CURVE SMOOTH",
"237 -6 OFFCURVE",
"266 79 OFFCURVE",
"298 168 CURVE SMOOTH",
"332 262 LINE",
"378 277 OFFCURVE",
"426 292 OFFCURVE",
"473 306 CURVE",
"477 254 OFFCURVE",
"481 208 OFFCURVE",
"485 171 CURVE SMOOTH",
"499 31 OFFCURVE",
"536 -1 OFFCURVE",
"607 -2 CURVE SMOOTH",
"679 -3 OFFCURVE",
"751 55 OFFCURVE",
"812 134 CURVE SMOOTH"
);
},
{
closed = 1;
nodes = (
"449 588 LINE",
"466 380 LINE",
"432 369 OFFCURVE",
"397 357 OFFCURVE",
"362 345 CURVE"
);
},
{
closed = 1;
nodes = (
"152 97 OFFCURVE",
"144 85 OFFCURVE",
"129 85 CURVE SMOOTH",
"110 85 OFFCURVE",
"105 99 OFFCURVE",
"105 117 CURVE SMOOTH",
"105 150 OFFCURVE",
"142 181 OFFCURVE",
"198 209 CURVE",
"180 162 OFFCURVE",
"166 128 OFFCURVE",
"158 111 CURVE"
);
}
);
width = 714;
}
);
leftKerningGroup = A;
unicode = 00C4;
},
{
glyphname = Agrave;
layers = (
{
layerId = "D6BACC31-AA00-4837-BF4A-0C7E591D0F9E";
name = Bold;
paths = (
{
closed = 1;
nodes = (
"469 1017 LINE",
"440 1003 OFFCURVE",
"397 954 OFFCURVE",
"378 926 CURVE",
"558 793 LINE",
"572 801 OFFCURVE",
"590 823 OFFCURVE",
"596 830 CURVE"
);
},
{
closed = 1;
nodes = (
"836 166 LINE",
"808 234 LINE",
"757 155 OFFCURVE",
"688 103 OFFCURVE",
"653 101 CURVE SMOOTH",
"625 100 OFFCURVE",
"620 115 OFFCURVE",
"615 173 CURVE SMOOTH",
"610 232 OFFCURVE",
"570 671 OFFCURVE",
"569 756 CURVE",
"550 761 OFFCURVE",
"530 763 OFFCURVE",
"510 761 CURVE",
"474 764 OFFCURVE",
"432 759 OFFCURVE",
"406 744 CURVE",
"350 598 OFFCURVE",
"284 426 OFFCURVE",
"233 296 CURVE",
"128 251 OFFCURVE",
"46 195 OFFCURVE",
"36 121 CURVE SMOOTH",
"24 34 OFFCURVE",
"77 -6 OFFCURVE",
"127 -6 CURVE SMOOTH",
"237 -6 OFFCURVE",
"266 79 OFFCURVE",
"298 168 CURVE SMOOTH",
"332 262 LINE",
"378 277 OFFCURVE",
"426 292 OFFCURVE",
"473 306 CURVE",
"477 254 OFFCURVE",
"481 208 OFFCURVE",
"485 171 CURVE SMOOTH",
"499 31 OFFCURVE",
"536 -1 OFFCURVE",
"607 -2 CURVE SMOOTH",
"679 -3 OFFCURVE",
"751 55 OFFCURVE",
"812 134 CURVE SMOOTH"
);
},
{
closed = 1;
nodes = (
"449 588 LINE",
"466 380 LINE",
"432 369 OFFCURVE",
"397 357 OFFCURVE",
"362 345 CURVE"
);
},
{
closed = 1;
nodes = (
"152 97 OFFCURVE",
"144 85 OFFCURVE",
"129 85 CURVE SMOOTH",
"110 85 OFFCURVE",
"105 99 OFFCURVE",
"105 117 CURVE SMOOTH",
"105 150 OFFCURVE",
"142 181 OFFCURVE",
"198 209 CURVE",
"180 162 OFFCURVE",
"166 128 OFFCURVE",
"158 111 CURVE"
);
}
);
width = 714;
}
);
leftKerningGroup = A;
unicode = 00C0;
},
{
glyphname = Aring;
layers = (
{
layerId = "D6BACC31-AA00-4837-BF4A-0C7E591D0F9E";
name = Bold;
paths = (
{
closed = 1;
nodes = (
"836 166 LINE",
"808 234 LINE",
"757 155 OFFCURVE",
"688 103 OFFCURVE",
"653 101 CURVE SMOOTH",
"625 100 OFFCURVE",
"620 115 OFFCURVE",
"615 173 CURVE SMOOTH",
"610 232 OFFCURVE",
"570 671 OFFCURVE",
"569 756 CURVE",
"552 760 LINE",
"574 779 OFFCURVE",
"589 808 OFFCURVE",
"589 840 CURVE SMOOTH",
"589 898 OFFCURVE",
"542 945 OFFCURVE",
"484 945 CURVE SMOOTH",
"426 945 OFFCURVE",
"379 898 OFFCURVE",
"379 840 CURVE SMOOTH",
"379 804 OFFCURVE",
"398 771 OFFCURVE",
"426 753 CURVE",
"419 750 OFFCURVE",
"412 747 OFFCURVE",
"406 744 CURVE",
"350 598 OFFCURVE",
"284 426 OFFCURVE",
"233 296 CURVE",
"128 251 OFFCURVE",
"46 195 OFFCURVE",
"36 121 CURVE SMOOTH",
"24 34 OFFCURVE",
"77 -6 OFFCURVE",
"127 -6 CURVE SMOOTH",
"237 -6 OFFCURVE",
"266 79 OFFCURVE",
"298 168 CURVE SMOOTH",
"332 262 LINE",
"378 277 OFFCURVE",
"426 292 OFFCURVE",
"473 306 CURVE",
"477 254 OFFCURVE",
"481 208 OFFCURVE",
"485 171 CURVE SMOOTH",
"499 31 OFFCURVE",
"536 -1 OFFCURVE",
"607 -2 CURVE SMOOTH",
"679 -3 OFFCURVE",
"751 55 OFFCURVE",
"812 134 CURVE SMOOTH"
);
},
{
closed = 1;
nodes = (
"511 889 OFFCURVE",
"533 867 OFFCURVE",
"533 840 CURVE SMOOTH",
"533 813 OFFCURVE",
"511 791 OFFCURVE",
"484 791 CURVE SMOOTH",
"457 791 OFFCURVE",
"435 813 OFFCURVE",
"435 840 CURVE SMOOTH",
"435 867 OFFCURVE",
"457 889 OFFCURVE",
"484 889 CURVE SMOOTH"
);
},
{
closed = 1;
nodes = (
"449 588 LINE",
"466 380 LINE",
"432 369 OFFCURVE",
"397 357 OFFCURVE",
"362 345 CURVE"
);
},
{
closed = 1;
nodes = (
"152 97 OFFCURVE",
"144 85 OFFCURVE",
"129 85 CURVE SMOOTH",
"110 85 OFFCURVE",
"105 99 OFFCURVE",
"105 117 CURVE SMOOTH",
"105 150 OFFCURVE",
"142 181 OFFCURVE",
"198 209 CURVE",
"180 162 OFFCURVE",
"166 128 OFFCURVE",
"158 111 CURVE"
);
}
);
width = 714;
}
);
leftKerningGroup = A;
unicode = 00C5;
},
{
glyphname = Atilde;
layers = (
{
layerId = "D6BACC31-AA00-4837-BF4A-0C7E591D0F9E";
name = Bold;
paths = (
{
closed = 1;
nodes = (
"354 820 LINE",
"376 866 OFFCURVE",
"396 881 OFFCURVE",
"428 879 CURVE SMOOTH",
"477 876 OFFCURVE",
"519 804 OFFCURVE",
"595 804 CURVE SMOOTH",
"667 804 OFFCURVE",
"713 870 OFFCURVE",
"725 952 CURVE",
"681 977 LINE",
"667 943 OFFCURVE",
"642 909 OFFCURVE",
"607 909 CURVE SMOOTH",
"557 909 OFFCURVE",
"511 976 OFFCURVE",
"438 979 CURVE SMOOTH",
"368 982 OFFCURVE",
"326 915 OFFCURVE",
"310 846 CURVE"
);
},
{
closed = 1;
nodes = (
"836 166 LINE",
"808 234 LINE",
"757 155 OFFCURVE",
"688 103 OFFCURVE",
"653 101 CURVE SMOOTH",
"625 100 OFFCURVE",
"620 115 OFFCURVE",
"615 173 CURVE SMOOTH",
"610 232 OFFCURVE",
"570 671 OFFCURVE",
"569 756 CURVE",
"550 761 OFFCURVE",
"530 763 OFFCURVE",
"510 761 CURVE",
"474 764 OFFCURVE",
"432 759 OFFCURVE",
"406 744 CURVE",
"350 598 OFFCURVE",
"284 426 OFFCURVE",
"233 296 CURVE",
"128 251 OFFCURVE",
"46 195 OFFCURVE",
"36 121 CURVE SMOOTH",
"24 34 OFFCURVE",
"77 -6 OFFCURVE",
"127 -6 CURVE SMOOTH",
"237 -6 OFFCURVE",
"266 79 OFFCURVE",
"298 168 CURVE SMOOTH",
"332 262 LINE",
"378 277 OFFCURVE",
"426 292 OFFCURVE",
"473 306 CURVE",
"477 254 OFFCURVE",
"481 208 OFFCURVE",
"485 171 CURVE SMOOTH",
"499 31 OFFCURVE",
"536 -1 OFFCURVE",
"607 -2 CURVE SMOOTH",
"679 -3 OFFCURVE",
"751 55 OFFCURVE",
"812 134 CURVE SMOOTH"
);
},
{
closed = 1;
nodes = (
"449 588 LINE",
"466 380 LINE",
"432 369 OFFCURVE",
"397 357 OFFCURVE",
"362 345 CURVE"
);
},
{
closed = 1;
nodes = (
"152 97 OFFCURVE",
"144 85 OFFCURVE",
"129 85 CURVE SMOOTH",
"110 85 OFFCURVE",
"105 99 OFFCURVE",
"105 117 CURVE SMOOTH",
"105 150 OFFCURVE",
"142 181 OFFCURVE",
"198 209 CURVE",
"180 162 OFFCURVE",
"166 128 OFFCURVE",
"158 111 CURVE"
);
}
);
width = 714;
}
);
leftKerningGroup = A;
unicode = 00C3;
},
{
glyphname = AE;
layers = (
{
anchors = (
{
name = class0;
position = "{598, 761}";
},
{
name = class1;
position = "{0, 0}";
}
);
layerId = "D6BACC31-AA00-4837-BF4A-0C7E591D0F9E";
name = Bold;
paths = (
{
closed = 1;
nodes = (
"1064 274 LINE",
"1021 198 OFFCURVE",
"913 86 OFFCURVE",
"774 86 CURVE SMOOTH",
"657 86 OFFCURVE",
"617 172 OFFCURVE",
"621 238 CURVE SMOOTH",
"624 292 OFFCURVE",
"648 327 OFFCURVE",
"679 349 CURVE",
"714 334 OFFCURVE",
"753 326 OFFCURVE",
"790 326 CURVE SMOOTH",
"838 326 OFFCURVE",
"906 337 OFFCURVE",
"908 382 CURVE SMOOTH",
"910 434 OFFCURVE",
"846 448 OFFCURVE",
"798 449 CURVE SMOOTH",
"774 449 OFFCURVE",
"749 448 OFFCURVE",
"724 445 CURVE",
"702 475 OFFCURVE",
"692 515 OFFCURVE",
"695 550 CURVE SMOOTH",
"701 615 OFFCURVE",
"767 674 OFFCURVE",
"833 674 CURVE SMOOTH",
"905 674 OFFCURVE",
"947 638 OFFCURVE",
"946 565 CURVE",
"1041 565 LINE",
"1041 682 OFFCURVE",
"959 761 OFFCURVE",
"828 761 CURVE SMOOTH",
"691 761 OFFCURVE",
"565 673 OFFCURVE",
"554 552 CURVE",
"546 644 OFFCURVE",
"541 724 OFFCURVE",
"540 756 CURVE",
"538 757 OFFCURVE",
"535 757 OFFCURVE",
"533 758 CURVE",
"529 759 LINE",
"524 760 OFFCURVE",
"519 760 OFFCURVE",
"514 761 CURVE",
"506 762 LINE",
"471 764 OFFCURVE",
"432 758 OFFCURVE",
"407 744 CURVE",
"351 598 OFFCURVE",
"285 426 OFFCURVE",
"234 296 CURVE",
"129 251 OFFCURVE",
"47 195 OFFCURVE",
"37 121 CURVE SMOOTH",
"25 34 OFFCURVE",
"78 -6 OFFCURVE",
"128 -6 CURVE SMOOTH",
"238 -6 OFFCURVE",
"267 79 OFFCURVE",
"299 168 CURVE SMOOTH",
"333 262 LINE",
"379 277 OFFCURVE",
"427 292 OFFCURVE",
"474 306 CURVE",
"477 273 LINE",
"470 251 OFFCURVE",
"467 227 OFFCURVE",
"467 200 CURVE SMOOTH",
"467 91 OFFCURVE",
"585 -6 OFFCURVE",
"739 -6 CURVE SMOOTH",
"920 -6 OFFCURVE",
"1031 99 OFFCURVE",
"1098 213 CURVE"
);
},
{
closed = 1;
nodes = (
"450 588 LINE",
"468 380 LINE",
"433 369 OFFCURVE",
"398 357 OFFCURVE",
"363 345 CURVE"
);
},
{
closed = 1;
nodes = (
"586 404 OFFCURVE",
"576 399 OFFCURVE",
"567 393 CURVE",
"559 481 LINE",
"567 454 OFFCURVE",
"580 430 OFFCURVE",
"596 410 CURVE"
);
},
{
closed = 1;
nodes = (
"153 97 OFFCURVE",
"145 85 OFFCURVE",
"130 85 CURVE SMOOTH",
"111 85 OFFCURVE",
"106 99 OFFCURVE",
"106 117 CURVE SMOOTH",
"106 150 OFFCURVE",
"143 181 OFFCURVE",
"199 209 CURVE",
"181 162 OFFCURVE",
"167 128 OFFCURVE",
"159 111 CURVE"
);
}
);
width = 1196;
}
);
leftKerningGroup = A;
unicode = 00C6;
},
{
glyphname = B;
layers = (
{
layerId = "D6BACC31-AA00-4837-BF4A-0C7E591D0F9E";
name = Bold;
paths = (
{
closed = 1;
nodes = (
"211 479 LINE",
"164 484 OFFCURVE",
"131 510 OFFCURVE",
"131 547 CURVE SMOOTH",
"131 627 OFFCURVE",
"245 672 OFFCURVE",
"328 670 CURVE SMOOTH",
"458 667 OFFCURVE",
"529 605 OFFCURVE",
"527 535 CURVE SMOOTH",
"525 451 OFFCURVE",
"456 419 OFFCURVE",
"383 419 CURVE",
"374 345 LINE",
"493 345 OFFCURVE",
"562 285 OFFCURVE",
"562 206 CURVE SMOOTH",
"562 134 OFFCURVE",
"505 84 OFFCURVE",
"434 84 CURVE SMOOTH",
"393 84 OFFCURVE",
"356 92 OFFCURVE",
"327 107 CURVE",
"296 23 LINE",
"328 0 OFFCURVE",
"385 -6 OFFCURVE",
"443 -6 CURVE SMOOTH",
"588 -6 OFFCURVE",
"711 68 OFFCURVE",
"711 206 CURVE SMOOTH",
"711 313 OFFCURVE",
"607 380 OFFCURVE",
"501 388 CURVE",
"545 389 OFFCURVE",
"587 408 OFFCURVE",
"615 436 CURVE SMOOTH",
"646 467 OFFCURVE",
"665 504 OFFCURVE",
"666 553 CURVE SMOOTH",
"667 629 OFFCURVE",
"604 761 OFFCURVE",
"348 761 CURVE SMOOTH",
"157 761 OFFCURVE",
"49 665 OFFCURVE",
"42 551 CURVE SMOOTH",
"37 475 OFFCURVE",
"95 409 OFFCURVE",
"200 405 CURVE"
);
},
{
closed = 1;
nodes = (
"391 619 LINE",
"377 622 OFFCURVE",
"358 624 OFFCURVE",
"343 624 CURVE SMOOTH",
"306 624 OFFCURVE",
"273 614 OFFCURVE",
"248 598 CURVE",
"243 566 OFFCURVE",
"226 427 OFFCURVE",
"211 311 CURVE",
"107 263 OFFCURVE",
"32 198 OFFCURVE",
"32 110 CURVE SMOOTH",
"32 45 OFFCURVE",
"77 -4 OFFCURVE",
"149 -4 CURVE SMOOTH",
"235 -4 OFFCURVE",
"305 40 OFFCURVE",
"328 192 CURVE SMOOTH"
);
},
{
closed = 1;
nodes = (
"113 87 OFFCURVE",
"106 106 OFFCURVE",
"106 123 CURVE SMOOTH",
"106 157 OFFCURVE",
"141 193 OFFCURVE",
"200 226 CURVE",
"191 164 LINE SMOOTH",
"182 105 OFFCURVE",
"155 87 OFFCURVE",
"140 87 CURVE SMOOTH"
);
}
);
width = 707;
}
);
unicode = 0042;
},
{
glyphname = C;
layers = (
{
anchors = (
{
name = class0;
position = "{408, 761}";
},
{
name = class1;
position = "{318, 0}";
}
);
layerId = "D6BACC31-AA00-4837-BF4A-0C7E591D0F9E";
name = Bold;
paths = (
{
closed = 1;
nodes = (
"641 274 LINE",
"576 170 OFFCURVE",
"470 86 OFFCURVE",
"355 86 CURVE SMOOTH",
"220 86 OFFCURVE",
"183 200 OFFCURVE",
"183 299 CURVE SMOOTH",
"183 485 OFFCURVE",
"279 673 OFFCURVE",
"420 673 CURVE SMOOTH",
"492 673 OFFCURVE",
"529 630 OFFCURVE",
"529 573 CURVE SMOOTH",
"529 500 OFFCURVE",
"479 466 OFFCURVE",
"445 466 CURVE SMOOTH",
"410 466 OFFCURVE",
"395 494 OFFCURVE",
"395 518 CURVE SMOOTH",
"395 533 OFFCURVE",
"400 546 OFFCURVE",
"408 554 CURVE",
"333 554 OFFCURVE",
"300 522 OFFCURVE",
"300 484 CURVE SMOOTH",
"300 437 OFFCURVE",
"351 385 OFFCURVE",
"438 385 CURVE SMOOTH",
"538 385 OFFCURVE",
"617 467 OFFCURVE",
"617 578 CURVE SMOOTH",
"617 692 OFFCURVE",
"528 761 OFFCURVE",
"407 761 CURVE SMOOTH",
"173 761 OFFCURVE",
"30 528 OFFCURVE",
"30 291 CURVE SMOOTH",
"30 116 OFFCURVE",
"114 -6 OFFCURVE",
"330 -6 CURVE SMOOTH",
"483 -6 OFFCURVE",
"603 95 OFFCURVE",
"675 213 CURVE"
);
}
);
width = 575;
}
);
unicode = 0043;
},
{
glyphname = Ccedilla;
layers = (
{
layerId = "D6BACC31-AA00-4837-BF4A-0C7E591D0F9E";
name = Bold;
paths = (
{
closed = 1;
nodes = (
"641 274 LINE",
"576 170 OFFCURVE",
"470 86 OFFCURVE",
"355 86 CURVE SMOOTH",
"220 86 OFFCURVE",
"183 200 OFFCURVE",
"183 299 CURVE SMOOTH",
"183 485 OFFCURVE",
"279 673 OFFCURVE",
"420 673 CURVE SMOOTH",
"492 673 OFFCURVE",
"529 630 OFFCURVE",
"529 573 CURVE SMOOTH",
"529 500 OFFCURVE",
"479 466 OFFCURVE",
"445 466 CURVE SMOOTH",
"410 466 OFFCURVE",
"395 494 OFFCURVE",
"395 518 CURVE SMOOTH",
"395 533 OFFCURVE",
"400 546 OFFCURVE",
"408 554 CURVE",
"333 554 OFFCURVE",
"300 522 OFFCURVE",
"300 484 CURVE SMOOTH",
"300 437 OFFCURVE",
"351 385 OFFCURVE",
"438 385 CURVE SMOOTH",
"538 385 OFFCURVE",
"617 467 OFFCURVE",
"617 578 CURVE SMOOTH",
"617 692 OFFCURVE",
"528 761 OFFCURVE",
"407 761 CURVE SMOOTH",
"173 761 OFFCURVE",
"30 528 OFFCURVE",
"30 291 CURVE SMOOTH",
"30 126 OFFCURVE",
"104 9 OFFCURVE",
"293 -5 CURVE",
"268 -71 LINE",
"273 -70 OFFCURVE",
"283 -70 OFFCURVE",
"298 -70 CURVE SMOOTH",
"337 -70 OFFCURVE",
"368 -89 OFFCURVE",
"368 -129 CURVE SMOOTH",
"368 -156 OFFCURVE",
"350 -184 OFFCURVE",
"313 -184 CURVE SMOOTH",
"287 -184 OFFCURVE",
"252 -161 OFFCURVE",
"241 -144 CURVE",
"223 -182 LINE",
"240 -206 OFFCURVE",
"272 -225 OFFCURVE",
"314 -229 CURVE SMOOTH",
"386 -236 OFFCURVE",
"441 -186 OFFCURVE",
"441 -125 CURVE SMOOTH",
"441 -60 OFFCURVE",
"389 -32 OFFCURVE",
"345 -32 CURVE",
"339 -33 LINE",
"349 -5 LINE",
"493 3 OFFCURVE",
"606 100 OFFCURVE",
"675 213 CURVE"
);
}
);
width = 575;
}
);
unicode = 00C7;
},
{
glyphname = D;
layers = (
{
anchors = (
{
name = class0;
position = "{362, 761}";
},
{
name = class1;
position = "{0, 0}";
}
);
layerId = "D6BACC31-AA00-4837-BF4A-0C7E591D0F9E";
name = Bold;
paths = (
{
closed = 1;
nodes = (
"199 476 LINE",
"148 481 OFFCURVE",
"135 519 OFFCURVE",
"136 546 CURVE SMOOTH",
"139 636 OFFCURVE",
"250 672 OFFCURVE",
"322 673 CURVE SMOOTH",
"443 675 OFFCURVE",
"613 602 OFFCURVE",
"592 356 CURVE SMOOTH",
"581 230 OFFCURVE",
"516 105 OFFCURVE",
"379 90 CURVE SMOOTH",
"352 87 OFFCURVE",
"324 91 OFFCURVE",
"301 97 CURVE",
"312 123 OFFCURVE",
"320 154 OFFCURVE",
"326 192 CURVE SMOOTH",
"389 619 LINE",
"375 622 OFFCURVE",
"356 624 OFFCURVE",
"341 624 CURVE SMOOTH",
"304 624 OFFCURVE",
"271 614 OFFCURVE",
"246 598 CURVE",
"241 566 OFFCURVE",
"224 427 OFFCURVE",
"209 311 CURVE",
"105 263 OFFCURVE",
"30 198 OFFCURVE",
"30 110 CURVE SMOOTH",
"30 45 OFFCURVE",
"75 -4 OFFCURVE",
"147 -4 CURVE SMOOTH",
"184 -4 OFFCURVE",
"218 3 OFFCURVE",
"246 24 CURVE",
"278 3 OFFCURVE",
"340 -10 OFFCURVE",
"389 -9 CURVE SMOOTH",
"597 -5 OFFCURVE",
"738 156 OFFCURVE",
"746 371 CURVE SMOOTH",
"756 658 OFFCURVE",
"541 763 OFFCURVE",
"360 765 CURVE SMOOTH",
"202 767 OFFCURVE",
"50 688 OFFCURVE",
"45 541 CURVE SMOOTH",
"43 479 OFFCURVE",
"85 416 OFFCURVE",
"189 411 CURVE"
);
},
{
closed = 1;
nodes = (
"111 87 OFFCURVE",
"104 106 OFFCURVE",
"104 123 CURVE SMOOTH",
"104 157 OFFCURVE",
"139 193 OFFCURVE",
"198 226 CURVE",
"189 164 LINE SMOOTH",
"180 105 OFFCURVE",
"153 87 OFFCURVE",
"138 87 CURVE SMOOTH"
);
}
);
width = 744;
}
);
unicode = 0044;
},
{
glyphname = Eth;
layers = (
{
layerId = "D6BACC31-AA00-4837-BF4A-0C7E591D0F9E";
name = Bold;
paths = (
{
closed = 1;
nodes = (
"52 477 LINE",
"43 391 LINE",
"219 391 LINE",
"209 311 LINE",
"105 263 OFFCURVE",
"30 198 OFFCURVE",
"30 110 CURVE SMOOTH",
"30 45 OFFCURVE",
"75 -4 OFFCURVE",
"147 -4 CURVE SMOOTH",
"184 -4 OFFCURVE",
"218 3 OFFCURVE",
"246 24 CURVE",
"278 3 OFFCURVE",
"340 -10 OFFCURVE",
"389 -9 CURVE SMOOTH",
"597 -5 OFFCURVE",
"738 156 OFFCURVE",
"746 371 CURVE SMOOTH",
"756 658 OFFCURVE",
"541 763 OFFCURVE",
"360 765 CURVE SMOOTH",
"202 767 OFFCURVE",
"50 688 OFFCURVE",
"45 541 CURVE SMOOTH",
"44 519 OFFCURVE",
"49 497 OFFCURVE",
"60 477 CURVE"
);
},
{
closed = 1;
nodes = (
"355 391 LINE",
"425 391 LINE",
"434 477 LINE",
"368 477 LINE",
"389 619 LINE",
"375 622 OFFCURVE",
"356 624 OFFCURVE",
"341 624 CURVE SMOOTH",
"304 624 OFFCURVE",
"271 614 OFFCURVE",
"246 598 CURVE",
"243 581 OFFCURVE",
"237 534 OFFCURVE",
"230 477 CURVE",
"192 477 LINE",
"147 485 OFFCURVE",
"135 520 OFFCURVE",
"136 546 CURVE SMOOTH",
"139 636 OFFCURVE",
"250 672 OFFCURVE",
"322 673 CURVE SMOOTH",
"443 675 OFFCURVE",
"613 602 OFFCURVE",
"592 356 CURVE SMOOTH",
"581 230 OFFCURVE",
"516 105 OFFCURVE",
"379 90 CURVE SMOOTH",
"352 87 OFFCURVE",
"324 91 OFFCURVE",
"301 97 CURVE",
"312 123 OFFCURVE",
"320 154 OFFCURVE",
"326 192 CURVE SMOOTH"
);
},
{
closed = 1;
nodes = (
"189 164 LINE SMOOTH",
"180 105 OFFCURVE",
"153 87 OFFCURVE",
"138 87 CURVE SMOOTH",
"111 87 OFFCURVE",
"104 106 OFFCURVE",
"104 123 CURVE SMOOTH",
"104 157 OFFCURVE",
"139 193 OFFCURVE",
"198 226 CURVE"
);
}
);
width = 744;
}
);
unicode = 00D0;
},
{
glyphname = E;
layers = (
{
anchors = (
{
name = class0;
position = "{380, 761}";
},
{
name = class1;
position = "{294, 0}";
}
);
layerId = "D6BACC31-AA00-4837-BF4A-0C7E591D0F9E";
name = Bold;
paths = (
{
closed = 1;
nodes = (
"619 274 LINE",
"576 198 OFFCURVE",
"468 86 OFFCURVE",
"329 86 CURVE SMOOTH",
"212 86 OFFCURVE",
"172 172 OFFCURVE",
"176 238 CURVE SMOOTH",
"179 292 OFFCURVE",
"203 327 OFFCURVE",
"234 349 CURVE",
"269 334 OFFCURVE",
"308 326 OFFCURVE",
"345 326 CURVE SMOOTH",
"393 326 OFFCURVE",
"461 337 OFFCURVE",
"463 382 CURVE SMOOTH",
"465 434 OFFCURVE",
"401 448 OFFCURVE",
"353 449 CURVE SMOOTH",
"329 449 OFFCURVE",
"304 448 OFFCURVE",
"279 445 CURVE",
"257 475 OFFCURVE",
"247 515 OFFCURVE",
"250 550 CURVE SMOOTH",
"256 615 OFFCURVE",
"322 674 OFFCURVE",
"388 674 CURVE SMOOTH",
"460 674 OFFCURVE",
"502 638 OFFCURVE",
"501 565 CURVE",
"596 565 LINE",
"596 682 OFFCURVE",
"514 761 OFFCURVE",
"383 761 CURVE SMOOTH",
"235 761 OFFCURVE",
"101 659 OFFCURVE",
"108 523 CURVE SMOOTH",
"110 477 OFFCURVE",
"127 439 OFFCURVE",
"151 410 CURVE",
"76 372 OFFCURVE",
"22 306 OFFCURVE",
"22 200 CURVE SMOOTH",
"22 91 OFFCURVE",
"140 -6 OFFCURVE",
"294 -6 CURVE SMOOTH",
"475 -6 OFFCURVE",
"586 99 OFFCURVE",
"653 213 CURVE"
);
}
);
width = 481;
}
);
unicode = 0045;
},
{
glyphname = Eacute;
layers = (
{
layerId = "D6BACC31-AA00-4837-BF4A-0C7E591D0F9E";
name = Bold;
paths = (
{
closed = 1;
nodes = (
"323 830 LINE",
"329 823 OFFCURVE",
"347 801 OFFCURVE",
"361 793 CURVE",
"541 926 LINE",
"522 954 OFFCURVE",
"479 1003 OFFCURVE",
"450 1017 CURVE"
);
},
{
closed = 1;
nodes = (
"619 274 LINE",
"576 198 OFFCURVE",
"468 86 OFFCURVE",
"329 86 CURVE SMOOTH",
"212 86 OFFCURVE",
"172 172 OFFCURVE",
"176 238 CURVE SMOOTH",
"179 292 OFFCURVE",
"203 327 OFFCURVE",
"234 349 CURVE",
"269 334 OFFCURVE",
"308 326 OFFCURVE",
"345 326 CURVE SMOOTH",
"393 326 OFFCURVE",
"461 337 OFFCURVE",
"463 382 CURVE SMOOTH",
"465 434 OFFCURVE",
"401 448 OFFCURVE",
"353 449 CURVE SMOOTH",
"329 449 OFFCURVE",
"304 448 OFFCURVE",
"279 445 CURVE",
"257 475 OFFCURVE",
"247 515 OFFCURVE",
"250 550 CURVE SMOOTH",
"256 615 OFFCURVE",
"322 674 OFFCURVE",
"388 674 CURVE SMOOTH",
"460 674 OFFCURVE",
"502 638 OFFCURVE",
"501 565 CURVE",
"596 565 LINE",
"596 682 OFFCURVE",
"514 761 OFFCURVE",
"383 761 CURVE SMOOTH",
"235 761 OFFCURVE",
"101 659 OFFCURVE",
"108 523 CURVE SMOOTH",
"110 477 OFFCURVE",
"127 439 OFFCURVE",
"151 410 CURVE",
"76 372 OFFCURVE",
"22 306 OFFCURVE",
"22 200 CURVE SMOOTH",
"22 91 OFFCURVE",
"140 -6 OFFCURVE",
"294 -6 CURVE SMOOTH",
"475 -6 OFFCURVE",
"586 99 OFFCURVE",
"653 213 CURVE"
);
}
);
width = 481;
}
);
unicode = 00C9;
},
{
glyphname = Ecircumflex;
layers = (
{
layerId = "D6BACC31-AA00-4837-BF4A-0C7E591D0F9E";
name = Bold;
paths = (
{
closed = 1;
nodes = (
"392 980 LINE",
"218 859 LINE",
"226 844 OFFCURVE",
"242 815 OFFCURVE",
"251 801 CURVE",
"392 874 LINE",
"533 801 LINE",
"542 815 OFFCURVE",
"558 844 OFFCURVE",
"566 859 CURVE"
);
},
{
closed = 1;
nodes = (
"619 274 LINE",
"576 198 OFFCURVE",
"468 86 OFFCURVE",
"329 86 CURVE SMOOTH",
"212 86 OFFCURVE",
"172 172 OFFCURVE",
"176 238 CURVE SMOOTH",
"179 292 OFFCURVE",
"203 327 OFFCURVE",
"234 349 CURVE",
"269 334 OFFCURVE",
"308 326 OFFCURVE",
"345 326 CURVE SMOOTH",
"393 326 OFFCURVE",
"461 337 OFFCURVE",
"463 382 CURVE SMOOTH",
"465 434 OFFCURVE",
"401 448 OFFCURVE",
"353 449 CURVE SMOOTH",
"329 449 OFFCURVE",
"304 448 OFFCURVE",
"279 445 CURVE",
"257 475 OFFCURVE",
"247 515 OFFCURVE",
"250 550 CURVE SMOOTH",
"256 615 OFFCURVE",
"322 674 OFFCURVE",
"388 674 CURVE SMOOTH",
"460 674 OFFCURVE",
"502 638 OFFCURVE",
"501 565 CURVE",
"596 565 LINE",
"596 682 OFFCURVE",
"514 761 OFFCURVE",
"383 761 CURVE SMOOTH",
"235 761 OFFCURVE",
"101 659 OFFCURVE",
"108 523 CURVE SMOOTH",
"110 477 OFFCURVE",
"127 439 OFFCURVE",
"151 410 CURVE",
"76 372 OFFCURVE",
"22 306 OFFCURVE",
"22 200 CURVE SMOOTH",
"22 91 OFFCURVE",
"140 -6 OFFCURVE",
"294 -6 CURVE SMOOTH",
"475 -6 OFFCURVE",
"586 99 OFFCURVE",
"653 213 CURVE"
);
}
);
width = 481;
}
);
unicode = 00CA;
},
{
glyphname = Edieresis;
layers = (
{
layerId = "D6BACC31-AA00-4837-BF4A-0C7E591D0F9E";
name = Bold;
paths = (
{
closed = 1;
nodes = (
"228 957 OFFCURVE",
"198 924 OFFCURVE",
"198 884 CURVE SMOOTH",
"198 844 OFFCURVE",
"228 812 OFFCURVE",
"270 812 CURVE SMOOTH",
"309 812 OFFCURVE",
"341 844 OFFCURVE",
"341 884 CURVE SMOOTH",
"341 924 OFFCURVE",
"309 957 OFFCURVE",
"270 957 CURVE SMOOTH"
);
},
{
closed = 1;
nodes = (
"470 957 OFFCURVE",
"437 924 OFFCURVE",
"437 884 CURVE SMOOTH",
"437 844 OFFCURVE",
"470 812 OFFCURVE",
"510 812 CURVE SMOOTH",
"551 812 OFFCURVE",
"582 844 OFFCURVE",
"582 884 CURVE SMOOTH",
"582 924 OFFCURVE",
"551 957 OFFCURVE",
"510 957 CURVE SMOOTH"
);
},
{
closed = 1;
nodes = (
"619 274 LINE",
"576 198 OFFCURVE",
"468 86 OFFCURVE",
"329 86 CURVE SMOOTH",
"212 86 OFFCURVE",
"172 172 OFFCURVE",
"176 238 CURVE SMOOTH",
"179 292 OFFCURVE",
"203 327 OFFCURVE",
"234 349 CURVE",
"269 334 OFFCURVE",
"308 326 OFFCURVE",
"345 326 CURVE SMOOTH",
"393 326 OFFCURVE",
"461 337 OFFCURVE",
"463 382 CURVE SMOOTH",
"465 434 OFFCURVE",
"401 448 OFFCURVE",
"353 449 CURVE SMOOTH",
"329 449 OFFCURVE",
"304 448 OFFCURVE",
"279 445 CURVE",
"257 475 OFFCURVE",
"247 515 OFFCURVE",
"250 550 CURVE SMOOTH",
"256 615 OFFCURVE",
"322 674 OFFCURVE",
"388 674 CURVE SMOOTH",
"460 674 OFFCURVE",
"502 638 OFFCURVE",
"501 565 CURVE",
"596 565 LINE",
"596 682 OFFCURVE",
"514 761 OFFCURVE",
"383 761 CURVE SMOOTH",
"235 761 OFFCURVE",
"101 659 OFFCURVE",
"108 523 CURVE SMOOTH",
"110 477 OFFCURVE",
"127 439 OFFCURVE",
"151 410 CURVE",
"76 372 OFFCURVE",
"22 306 OFFCURVE",
"22 200 CURVE SMOOTH",
"22 91 OFFCURVE",
"140 -6 OFFCURVE",
"294 -6 CURVE SMOOTH",
"475 -6 OFFCURVE",
"586 99 OFFCURVE",
"653 213 CURVE"
);
}
);
width = 481;
}
);
unicode = 00CB;
},
{
glyphname = Egrave;
layers = (
{
layerId = "D6BACC31-AA00-4837-BF4A-0C7E591D0F9E";
name = Bold;
paths = (
{
closed = 1;
nodes = (
"362 1017 LINE",
"333 1003 OFFCURVE",
"290 954 OFFCURVE",
"271 926 CURVE",
"451 793 LINE",
"465 801 OFFCURVE",
"483 823 OFFCURVE",
"489 830 CURVE"
);
},
{
closed = 1;
nodes = (
"619 274 LINE",
"576 198 OFFCURVE",
"468 86 OFFCURVE",
"329 86 CURVE SMOOTH",
"212 86 OFFCURVE",
"172 172 OFFCURVE",
"176 238 CURVE SMOOTH",
"179 292 OFFCURVE",
"203 327 OFFCURVE",
"234 349 CURVE",
"269 334 OFFCURVE",
"308 326 OFFCURVE",
"345 326 CURVE SMOOTH",
"393 326 OFFCURVE",
"461 337 OFFCURVE",
"463 382 CURVE SMOOTH",
"465 434 OFFCURVE",
"401 448 OFFCURVE",
"353 449 CURVE SMOOTH",
"329 449 OFFCURVE",
"304 448 OFFCURVE",
"279 445 CURVE",
"257 475 OFFCURVE",
"247 515 OFFCURVE",
"250 550 CURVE SMOOTH",
"256 615 OFFCURVE",
"322 674 OFFCURVE",
"388 674 CURVE SMOOTH",
"460 674 OFFCURVE",
"502 638 OFFCURVE",
"501 565 CURVE",
"596 565 LINE",
"596 682 OFFCURVE",
"514 761 OFFCURVE",
"383 761 CURVE SMOOTH",
"235 761 OFFCURVE",
"101 659 OFFCURVE",
"108 523 CURVE SMOOTH",
"110 477 OFFCURVE",
"127 439 OFFCURVE",
"151 410 CURVE",
"76 372 OFFCURVE",
"22 306 OFFCURVE",
"22 200 CURVE SMOOTH",
"22 91 OFFCURVE",
"140 -6 OFFCURVE",
"294 -6 CURVE SMOOTH",
"475 -6 OFFCURVE",
"586 99 OFFCURVE",
"653 213 CURVE"
);
}
);
width = 481;
}
);
unicode = 00C8;
},
{
glyphname = F;
layers = (
{
layerId = "D6BACC31-AA00-4837-BF4A-0C7E591D0F9E";
name = Bold;
paths = (
{
closed = 1;
nodes = (
"572 760 LINE",
"547 705 OFFCURVE",
"494 699 OFFCURVE",
"455 700 CURVE SMOOTH",
"357 703 OFFCURVE",
"251 761 OFFCURVE",
"162 761 CURVE SMOOTH",
"67 761 OFFCURVE",
"25 708 OFFCURVE",
"25 642 CURVE SMOOTH",
"25 574 OFFCURVE",
"72 528 OFFCURVE",
"155 526 CURVE SMOOTH",
"219 524 OFFCURVE",
"292 561 OFFCURVE",
"346 602 CURVE",
"384 595 OFFCURVE",
"422 589 OFFCURVE",
"457 589 CURVE SMOOTH",
"540 589 OFFCURVE",
"595 630 OFFCURVE",
"611 733 CURVE"
);
},
{
closed = 1;
nodes = (
"151 587 OFFCURVE",
"124 593 OFFCURVE",
"124 612 CURVE SMOOTH",
"124 629 OFFCURVE",
"137 641 OFFCURVE",
"151 641 CURVE SMOOTH",
"181 641 OFFCURVE",
"224 631 OFFCURVE",
"272 619 CURVE",
"235 600 OFFCURVE",
"197 587 OFFCURVE",
"174 587 CURVE SMOOTH"
);
},
{
closed = 1;
nodes = (
"381 431 LINE",
"389 487 OFFCURVE",
"396 530 OFFCURVE",
"397 538 CURVE",
"378 543 OFFCURVE",
"363 544 OFFCURVE",
"347 544 CURVE SMOOTH",
"310 544 OFFCURVE",
"279 532 OFFCURVE",
"252 519 CURVE",
"241 431 LINE",
"145 431 LINE",
"141 400 OFFCURVE",
"137 362 OFFCURVE",
"135 343 CURVE",
"229 343 LINE",
"202 136 LINE SMOOTH",
"201 129 OFFCURVE",
"200 123 OFFCURVE",
"200 116 CURVE SMOOTH",
"199 42 OFFCURVE",
"250 -6 OFFCURVE",
"331 -6 CURVE SMOOTH",
"405 -6 OFFCURVE",
"489 24 OFFCURVE",
"492 152 CURVE SMOOTH",
"494 249 OFFCURVE",
"431 303 OFFCURVE",
"366 334 CURVE",
"367 343 LINE",
"472 343 LINE SMOOTH",
"509 343 OFFCURVE",
"539 361 OFFCURVE",
"539 395 CURVE SMOOTH",
"539 405 OFFCURVE",
"536 417 OFFCURVE",
"530 431 CURVE"
);
},
{
closed = 1;
nodes = (
"424 100 OFFCURVE",
"391 85 OFFCURVE",
"365 85 CURVE SMOOTH",
"353 85 OFFCURVE",
"340 100 OFFCURVE",
"340 125 CURVE",
"341 152 OFFCURVE",
"348 209 OFFCURVE",
"357 273 CURVE",
"396 250 OFFCURVE",
"427 209 OFFCURVE",
"425 159 CURVE SMOOTH"
);
}
);
width = 556;
}
);
leftKerningGroup = F;
rightKerningGroup = F;
unicode = 0046;
},
{
glyphname = G;
layers = (
{
anchors = (
{
name = class0;
position = "{405, 761}";
},
{
name = class1;
position = "{327, 235}";
}
);
layerId = "D6BACC31-AA00-4837-BF4A-0C7E591D0F9E";
name = Bold;
paths = (
{
closed = 1;
nodes = (
"681 268 LINE",
"654 215 OFFCURVE",
"598 175 OFFCURVE",
"539 144 CURVE",
"561 307 LINE",
"421 307 LINE",
"396 89 LINE",
"382 87 OFFCURVE",
"368 86 OFFCURVE",
"354 86 CURVE SMOOTH",
"219 86 OFFCURVE",
"182 200 OFFCURVE",
"182 299 CURVE SMOOTH",
"182 485 OFFCURVE",
"278 673 OFFCURVE",
"419 673 CURVE SMOOTH",
"491 673 OFFCURVE",
"520 630 OFFCURVE",
"520 573 CURVE SMOOTH",
"520 500 OFFCURVE",
"478 466 OFFCURVE",
"444 466 CURVE SMOOTH",
"409 466 OFFCURVE",
"394 494 OFFCURVE",
"394 518 CURVE SMOOTH",
"394 533 OFFCURVE",
"399 546 OFFCURVE",
"407 554 CURVE",
"332 554 OFFCURVE",
"299 522 OFFCURVE",
"299 484 CURVE SMOOTH",
"299 437 OFFCURVE",
"350 385 OFFCURVE",
"437 385 CURVE SMOOTH",
"537 385 OFFCURVE",
"616 457 OFFCURVE",
"616 578 CURVE SMOOTH",
"616 692 OFFCURVE",
"527 761 OFFCURVE",
"406 761 CURVE SMOOTH",
"172 761 OFFCURVE",
"29 528 OFFCURVE",
"29 291 CURVE SMOOTH",
"29 135 OFFCURVE",
"96 21 OFFCURVE",
"264 -2 CURVE",
"221 -41 OFFCURVE",
"196 -86 OFFCURVE",
"196 -141 CURVE SMOOTH",
"196 -234 OFFCURVE",
"263 -275 OFFCURVE",
"331 -275 CURVE SMOOTH",
"394 -275 OFFCURVE",
"491 -254 OFFCURVE",
"515 -47 CURVE SMOOTH",
"528 61 LINE",
"591 87 OFFCURVE",
"664 127 OFFCURVE",
"720 213 CURVE"
);
},
{
closed = 1;
nodes = (
"375 -86 LINE SMOOTH",
"365 -168 OFFCURVE",
"344 -176 OFFCURVE",
"324 -176 CURVE SMOOTH",
"301 -176 OFFCURVE",
"285 -156 OFFCURVE",
"285 -132 CURVE SMOOTH",
"285 -95 OFFCURVE",
"313 -49 OFFCURVE",
"385 -4 CURVE"
);
}
);
width = 630;
}
);
unicode = 0047;
},
{
glyphname = H;
layers = (
{
anchors = (
{
name = class0;
position = "{473, 761}";
},
{
name = class1;
position = "{0, 0}";
}
);
layerId = "D6BACC31-AA00-4837-BF4A-0C7E591D0F9E";
name = Bold;
paths = (
{
closed = 1;
nodes = (
"521 415 LINE",
"497 409 LINE SMOOTH",
"445 395 OFFCURVE",
"393 380 OFFCURVE",
"343 362 CURVE",
"395 760 LINE",
"386 761 OFFCURVE",
"377 761 OFFCURVE",
"349 761 CURVE SMOOTH",
"323 761 OFFCURVE",
"273 748 OFFCURVE",
"247 730 CURVE",
"196 296 LINE",
"106 245 OFFCURVE",
"45 181 OFFCURVE",
"45 103 CURVE SMOOTH",
"45 42 OFFCURVE",
"81 -6 OFFCURVE",
"152 -6 CURVE SMOOTH",
"234 -6 OFFCURVE",
"300 36 OFFCURVE",
"318 171 CURVE SMOOTH",
"332 281 LINE",
"381 298 OFFCURVE",
"441 317 OFFCURVE",
"499 334 CURVE SMOOTH",
"512 338 LINE",
"473 0 LINE",
"609 0 LINE",
"707 753 LINE",
"700 756 OFFCURVE",
"676 761 OFFCURVE",
"652 761 CURVE SMOOTH",
"624 761 OFFCURVE",
"567 749 OFFCURVE",
"559 738 CURVE"
);
},
{
closed = 1;
nodes = (
"184 193 LINE SMOOTH",
"178 140 OFFCURVE",
"180 86 OFFCURVE",
"144 86 CURVE SMOOTH",
"117 86 OFFCURVE",
"115 107 OFFCURVE",
"115 118 CURVE SMOOTH",
"115 142 OFFCURVE",
"138 175 OFFCURVE",
"186 208 CURVE"
);
}
);
width = 725;
}
);
unicode = 0048;
},
{
glyphname = I;
layers = (
{
anchors = (
{
name = class0;
position = "{332, 761}";
},
{
name = class1;
position = "{0, 0}";
}
);
layerId = "D6BACC31-AA00-4837-BF4A-0C7E591D0F9E";
name = Bold;
paths = (
{
closed = 1;
nodes = (
"264 299 LINE",
"248 303 OFFCURVE",
"212 305 OFFCURVE",
"198 305 CURVE SMOOTH",
"104 305 OFFCURVE",
"42 231 OFFCURVE",
"41 160 CURVE SMOOTH",
"39 60 OFFCURVE",
"106 0 OFFCURVE",
"198 -6 CURVE SMOOTH",
"331 -15 OFFCURVE",
"406 83 OFFCURVE",
"423 210 CURVE SMOOTH",
"475 581 LINE SMOOTH",
"485 658 OFFCURVE",
"529 664 OFFCURVE",
"556 648 CURVE",
"560 687 OFFCURVE",
"552 723 OFFCURVE",
"532 751 CURVE",
"499 726 OFFCURVE",
"463 716 OFFCURVE",
"418 716 CURVE SMOOTH",
"342 716 OFFCURVE",
"278 762 OFFCURVE",
"204 762 CURVE SMOOTH",
"130 762 OFFCURVE",
"65 725 OFFCURVE",
"65 637 CURVE SMOOTH",
"65 579 OFFCURVE",
"112 521 OFFCURVE",
"215 521 CURVE SMOOTH",
"249 521 OFFCURVE",
"284 529 OFFCURVE",
"321 542 CURVE",
"307 443 OFFCURVE",
"289 272 OFFCURVE",
"282 207 CURVE SMOOTH",
"273 126 OFFCURVE",
"241 84 OFFCURVE",
"187 83 CURVE SMOOTH",
"150 82 OFFCURVE",
"114 109 OFFCURVE",
"116 159 CURVE SMOOTH",
"118 208 OFFCURVE",
"157 242 OFFCURVE",
"212 242 CURVE SMOOTH",
"227 242 OFFCURVE",
"246 241 OFFCURVE",
"259 238 CURVE"
);
},
{
closed = 1;
nodes = (
"164 634 OFFCURVE",
"176 642 OFFCURVE",
"189 642 CURVE SMOOTH",
"206 642 OFFCURVE",
"230 633 OFFCURVE",
"263 624 CURVE SMOOTH",
"283 618 OFFCURVE",
"301 614 OFFCURVE",
"318 610 CURVE",
"284 591 OFFCURVE",
"250 580 OFFCURVE",
"221 580 CURVE SMOOTH",
"188 580 OFFCURVE",
"164 598 OFFCURVE",
"164 617 CURVE SMOOTH"
);
}
);
width = 483;
}
);
leftKerningGroup = F;
rightKerningGroup = F;
unicode = 0049;
},
{
glyphname = Iacute;
layers = (
{
layerId = "D6BACC31-AA00-4837-BF4A-0C7E591D0F9E";
name = Bold;
paths = (
{
closed = 1;
nodes = (
"275 830 LINE",
"281 823 OFFCURVE",
"299 801 OFFCURVE",
"313 793 CURVE",
"493 926 LINE",
"474 954 OFFCURVE",
"431 1003 OFFCURVE",
"402 1017 CURVE"
);
},
{
closed = 1;
nodes = (
"264 299 LINE",
"248 303 OFFCURVE",
"212 305 OFFCURVE",
"198 305 CURVE SMOOTH",
"104 305 OFFCURVE",
"42 231 OFFCURVE",
"41 160 CURVE SMOOTH",
"39 60 OFFCURVE",
"106 0 OFFCURVE",
"198 -6 CURVE SMOOTH",
"331 -15 OFFCURVE",
"406 83 OFFCURVE",
"423 210 CURVE SMOOTH",
"475 581 LINE SMOOTH",
"485 658 OFFCURVE",
"529 664 OFFCURVE",
"556 648 CURVE",
"560 687 OFFCURVE",
"552 723 OFFCURVE",
"532 751 CURVE",
"499 726 OFFCURVE",
"463 716 OFFCURVE",
"418 716 CURVE SMOOTH",
"342 716 OFFCURVE",
"278 762 OFFCURVE",
"204 762 CURVE SMOOTH",
"130 762 OFFCURVE",
"65 725 OFFCURVE",
"65 637 CURVE SMOOTH",
"65 579 OFFCURVE",
"112 521 OFFCURVE",
"215 521 CURVE SMOOTH",
"249 521 OFFCURVE",
"284 529 OFFCURVE",
"321 542 CURVE",
"307 443 OFFCURVE",
"289 272 OFFCURVE",
"282 207 CURVE SMOOTH",
"273 126 OFFCURVE",
"241 84 OFFCURVE",
"187 83 CURVE SMOOTH",
"150 82 OFFCURVE",
"114 109 OFFCURVE",
"116 159 CURVE SMOOTH",
"118 208 OFFCURVE",
"157 242 OFFCURVE",
"212 242 CURVE SMOOTH",
"227 242 OFFCURVE",
"246 241 OFFCURVE",
"259 238 CURVE"
);
},
{
closed = 1;
nodes = (
"164 634 OFFCURVE",
"176 642 OFFCURVE",
"189 642 CURVE SMOOTH",
"206 642 OFFCURVE",
"230 633 OFFCURVE",
"263 624 CURVE SMOOTH",
"283 618 OFFCURVE",
"301 614 OFFCURVE",
"318 610 CURVE",
"284 591 OFFCURVE",
"250 580 OFFCURVE",
"221 580 CURVE SMOOTH",
"188 580 OFFCURVE",
"164 598 OFFCURVE",
"164 617 CURVE SMOOTH"
);
}
);
width = 483;
}
);
unicode = 00CD;
},
{
glyphname = Icircumflex;
layers = (
{
layerId = "D6BACC31-AA00-4837-BF4A-0C7E591D0F9E";
name = Bold;
paths = (
{
closed = 1;
nodes = (
"344 980 LINE",
"170 859 LINE",
"178 844 OFFCURVE",
"194 815 OFFCURVE",
"203 801 CURVE",
"344 874 LINE",
"485 801 LINE",
"494 815 OFFCURVE",
"510 844 OFFCURVE",
"518 859 CURVE"
);
},
{
closed = 1;
nodes = (
"264 299 LINE",
"248 303 OFFCURVE",
"212 305 OFFCURVE",
"198 305 CURVE SMOOTH",
"104 305 OFFCURVE",
"42 231 OFFCURVE",
"41 160 CURVE SMOOTH",
"39 60 OFFCURVE",
"106 0 OFFCURVE",
"198 -6 CURVE SMOOTH",
"331 -15 OFFCURVE",
"406 83 OFFCURVE",
"423 210 CURVE SMOOTH",
"475 581 LINE SMOOTH",
"485 658 OFFCURVE",
"529 664 OFFCURVE",
"556 648 CURVE",
"560 687 OFFCURVE",
"552 723 OFFCURVE",
"532 751 CURVE",
"499 726 OFFCURVE",
"463 716 OFFCURVE",
"418 716 CURVE SMOOTH",
"342 716 OFFCURVE",
"278 762 OFFCURVE",
"204 762 CURVE SMOOTH",
"130 762 OFFCURVE",
"65 725 OFFCURVE",
"65 637 CURVE SMOOTH",
"65 579 OFFCURVE",
"112 521 OFFCURVE",
"215 521 CURVE SMOOTH",
"249 521 OFFCURVE",
"284 529 OFFCURVE",
"321 542 CURVE",
"307 443 OFFCURVE",
"289 272 OFFCURVE",
"282 207 CURVE SMOOTH",
"273 126 OFFCURVE",
"241 84 OFFCURVE",
"187 83 CURVE SMOOTH",
"150 82 OFFCURVE",
"114 109 OFFCURVE",
"116 159 CURVE SMOOTH",
"118 208 OFFCURVE",
"157 242 OFFCURVE",
"212 242 CURVE SMOOTH",
"227 242 OFFCURVE",
"246 241 OFFCURVE",
"259 238 CURVE"
);
},
{
closed = 1;
nodes = (
"164 634 OFFCURVE",
"176 642 OFFCURVE",
"189 642 CURVE SMOOTH",
"206 642 OFFCURVE",
"230 633 OFFCURVE",
"263 624 CURVE SMOOTH",
"283 618 OFFCURVE",
"301 614 OFFCURVE",
"318 610 CURVE",
"284 591 OFFCURVE",
"250 580 OFFCURVE",
"221 580 CURVE SMOOTH",
"188 580 OFFCURVE",
"164 598 OFFCURVE",
"164 617 CURVE SMOOTH"
);
}
);
width = 483;
}
);
unicode = 00CE;
},
{
glyphname = Idieresis;
layers = (
{
layerId = "D6BACC31-AA00-4837-BF4A-0C7E591D0F9E";
name = Bold;
paths = (
{
closed = 1;
nodes = (
"180 957 OFFCURVE",
"150 924 OFFCURVE",
"150 884 CURVE SMOOTH",
"150 844 OFFCURVE",
"180 812 OFFCURVE",
"222 812 CURVE SMOOTH",
"261 812 OFFCURVE",
"293 844 OFFCURVE",
"293 884 CURVE SMOOTH",
"293 924 OFFCURVE",
"261 957 OFFCURVE",
"222 957 CURVE SMOOTH"
);
},
{
closed = 1;
nodes = (
"422 957 OFFCURVE",
"389 924 OFFCURVE",
"389 884 CURVE SMOOTH",
"389 844 OFFCURVE",
"422 812 OFFCURVE",
"462 812 CURVE SMOOTH",
"503 812 OFFCURVE",
"534 844 OFFCURVE",
"534 884 CURVE SMOOTH",
"534 924 OFFCURVE",
"503 957 OFFCURVE",
"462 957 CURVE SMOOTH"
);
},
{
closed = 1;
nodes = (
"264 299 LINE",
"248 303 OFFCURVE",
"212 305 OFFCURVE",
"198 305 CURVE SMOOTH",
"104 305 OFFCURVE",
"42 231 OFFCURVE",
"41 160 CURVE SMOOTH",
"39 60 OFFCURVE",
"106 0 OFFCURVE",
"198 -6 CURVE SMOOTH",
"331 -15 OFFCURVE",
"406 83 OFFCURVE",
"423 210 CURVE SMOOTH",
"475 581 LINE SMOOTH",
"485 658 OFFCURVE",
"529 664 OFFCURVE",
"556 648 CURVE",
"560 687 OFFCURVE",
"552 723 OFFCURVE",
"532 751 CURVE",
"499 726 OFFCURVE",
"463 716 OFFCURVE",
"418 716 CURVE SMOOTH",
"342 716 OFFCURVE",
"278 762 OFFCURVE",
"204 762 CURVE SMOOTH",
"130 762 OFFCURVE",
"65 725 OFFCURVE",
"65 637 CURVE SMOOTH",
"65 579 OFFCURVE",
"112 521 OFFCURVE",
"215 521 CURVE SMOOTH",
"249 521 OFFCURVE",
"284 529 OFFCURVE",
"321 542 CURVE",
"307 443 OFFCURVE",
"289 272 OFFCURVE",
"282 207 CURVE SMOOTH",
"273 126 OFFCURVE",
"241 84 OFFCURVE",
"187 83 CURVE SMOOTH",
"150 82 OFFCURVE",
"114 109 OFFCURVE",
"116 159 CURVE SMOOTH",
"118 208 OFFCURVE",
"157 242 OFFCURVE",
"212 242 CURVE SMOOTH",
"227 242 OFFCURVE",
"246 241 OFFCURVE",
"259 238 CURVE"
);
},
{
closed = 1;
nodes = (
"164 634 OFFCURVE",
"176 642 OFFCURVE",
"189 642 CURVE SMOOTH",
"206 642 OFFCURVE",
"230 633 OFFCURVE",
"263 624 CURVE SMOOTH",
"283 618 OFFCURVE",
"301 614 OFFCURVE",
"318 610 CURVE",
"284 591 OFFCURVE",
"250 580 OFFCURVE",
"221 580 CURVE SMOOTH",
"188 580 OFFCURVE",
"164 598 OFFCURVE",
"164 617 CURVE SMOOTH"
);
}
);
width = 483;
}
);
unicode = 00CF;
},
{
glyphname = Igrave;
layers = (
{
layerId = "D6BACC31-AA00-4837-BF4A-0C7E591D0F9E";
name = Bold;
paths = (
{
closed = 1;
nodes = (
"314 1017 LINE",
"285 1003 OFFCURVE",
"242 954 OFFCURVE",
"223 926 CURVE",
"403 793 LINE",
"417 801 OFFCURVE",
"435 823 OFFCURVE",
"441 830 CURVE"
);
},
{
closed = 1;
nodes = (
"264 299 LINE",
"248 303 OFFCURVE",
"212 305 OFFCURVE",
"198 305 CURVE SMOOTH",
"104 305 OFFCURVE",
"42 231 OFFCURVE",
"41 160 CURVE SMOOTH",
"39 60 OFFCURVE",
"106 0 OFFCURVE",
"198 -6 CURVE SMOOTH",
"331 -15 OFFCURVE",
"406 83 OFFCURVE",
"423 210 CURVE SMOOTH",
"475 581 LINE SMOOTH",
"485 658 OFFCURVE",
"529 664 OFFCURVE",
"556 648 CURVE",
"560 687 OFFCURVE",
"552 723 OFFCURVE",
"532 751 CURVE",
"499 726 OFFCURVE",
"463 716 OFFCURVE",
"418 716 CURVE SMOOTH",
"342 716 OFFCURVE",
"278 762 OFFCURVE",
"204 762 CURVE SMOOTH",
"130 762 OFFCURVE",
"65 725 OFFCURVE",
"65 637 CURVE SMOOTH",
"65 579 OFFCURVE",
"112 521 OFFCURVE",
"215 521 CURVE SMOOTH",
"249 521 OFFCURVE",
"284 529 OFFCURVE",
"321 542 CURVE",
"307 443 OFFCURVE",
"289 272 OFFCURVE",
"282 207 CURVE SMOOTH",
"273 126 OFFCURVE",
"241 84 OFFCURVE",
"187 83 CURVE SMOOTH",
"150 82 OFFCURVE",
"114 109 OFFCURVE",
"116 159 CURVE SMOOTH",
"118 208 OFFCURVE",
"157 242 OFFCURVE",
"212 242 CURVE SMOOTH",
"227 242 OFFCURVE",
"246 241 OFFCURVE",
"259 238 CURVE"
);
},
{
closed = 1;
nodes = (
"164 634 OFFCURVE",
"176 642 OFFCURVE",
"189 642 CURVE SMOOTH",
"206 642 OFFCURVE",
"230 633 OFFCURVE",
"263 624 CURVE SMOOTH",
"283 618 OFFCURVE",
"301 614 OFFCURVE",
"318 610 CURVE",
"284 591 OFFCURVE",
"250 580 OFFCURVE",
"221 580 CURVE SMOOTH",
"188 580 OFFCURVE",
"164 598 OFFCURVE",
"164 617 CURVE SMOOTH"
);
}
);
width = 483;
}
);
unicode = 00CC;
},
{
glyphname = J;
layers = (
{
anchors = (
{
name = class0;
position = "{319, 761}";
},
{
name = class1;
position = "{0, 0}";
}
);
layerId = "D6BACC31-AA00-4837-BF4A-0C7E591D0F9E";
name = Bold;
paths = (
{
closed = 1;
nodes = (
"542 311 LINE",
"517 292 OFFCURVE",
"456 262 OFFCURVE",
"381 229 CURVE",
"431 579 LINE SMOOTH",
"442 656 OFFCURVE",
"485 662 OFFCURVE",
"512 646 CURVE",
"516 685 OFFCURVE",
"508 721 OFFCURVE",
"488 749 CURVE",
"455 724 OFFCURVE",
"419 714 OFFCURVE",
"374 714 CURVE SMOOTH",
"298 714 OFFCURVE",
"234 760 OFFCURVE",
"160 760 CURVE SMOOTH",
"86 760 OFFCURVE",
"21 723 OFFCURVE",
"21 635 CURVE SMOOTH",
"21 577 OFFCURVE",
"68 519 OFFCURVE",
"171 519 CURVE SMOOTH",
"206 519 OFFCURVE",
"243 527 OFFCURVE",
"280 542 CURVE",
"267 459 OFFCURVE",
"250 324 OFFCURVE",
"241 243 CURVE SMOOTH",
"231 162 LINE",
"122 104 OFFCURVE",
"12 16 OFFCURVE",
"2 -97 CURVE SMOOTH",
"-7 -193 OFFCURVE",
"54 -274 OFFCURVE",
"149 -274 CURVE SMOOTH",
"219 -274 OFFCURVE",
"317 -228 OFFCURVE",
"336 -87 CURVE SMOOTH",
"369 147 LINE",
"480 192 OFFCURVE",
"532 209 OFFCURVE",
"580 245 CURVE"
);
},
{
closed = 1;
nodes = (
"120 632 OFFCURVE",
"132 640 OFFCURVE",
"145 640 CURVE SMOOTH",
"162 640 OFFCURVE",
"186 631 OFFCURVE",
"219 622 CURVE SMOOTH",
"239 616 OFFCURVE",
"257 612 OFFCURVE",
"274 608 CURVE",
"240 589 OFFCURVE",
"206 578 OFFCURVE",
"177 578 CURVE SMOOTH",
"144 578 OFFCURVE",
"120 596 OFFCURVE",
"120 615 CURVE SMOOTH"
);
},
{
closed = 1;
nodes = (
"100 -173 OFFCURVE",
"72 -145 OFFCURVE",
"78 -92 CURVE SMOOTH",
"85 -35 OFFCURVE",
"134 23 OFFCURVE",
"220 75 CURVE",
"196 -112 LINE SMOOTH",
"190 -159 OFFCURVE",
"159 -177 OFFCURVE",
"129 -175 CURVE SMOOTH"
);
}
);
width = 418;
}
);
unicode = 004A;
},
{
glyphname = K;
layers = (
{
anchors = (
{
name = class0;
position = "{431, 761}";
},
{
name = class1;
position = "{330, 0}";
}
);
layerId = "D6BACC31-AA00-4837-BF4A-0C7E591D0F9E";
name = Bold;
paths = (
{
closed = 1;
nodes = (
"355 357 LINE",
"421 352 OFFCURVE",
"421 310 OFFCURVE",
"425 165 CURVE SMOOTH",
"428 68 OFFCURVE",
"472 -6 OFFCURVE",
"584 -6 CURVE SMOOTH",
"632 -6 OFFCURVE",
"733 13 OFFCURVE",
"777 166 CURVE",
"775 172 OFFCURVE",
"755 198 OFFCURVE",
"745 215 CURVE",
"714 122 OFFCURVE",
"676 76 OFFCURVE",
"637 76 CURVE SMOOTH",
"529 76 OFFCURVE",
"635 335 OFFCURVE",
"505 398 CURVE",
"628 455 OFFCURVE",
"726 529 OFFCURVE",
"726 645 CURVE SMOOTH",
"726 736 OFFCURVE",
"654 761 OFFCURVE",
"613 761 CURVE SMOOTH",
"551 761 OFFCURVE",
"485 722 OFFCURVE",
"466 601 CURVE SMOOTH",
"442 446 OFFCURVE",
"395 438 OFFCURVE",
"362 432 CURVE"
);
},
{
closed = 1;
nodes = (
"385 755 LINE",
"371 758 OFFCURVE",
"342 760 OFFCURVE",
"327 760 CURVE SMOOTH",
"290 760 OFFCURVE",
"257 750 OFFCURVE",
"232 734 CURVE",
"227 699 OFFCURVE",
"201 470 OFFCURVE",
"182 309 CURVE",
"79 260 OFFCURVE",
"5 195 OFFCURVE",
"5 108 CURVE SMOOTH",
"5 43 OFFCURVE",
"50 -6 OFFCURVE",
"122 -6 CURVE SMOOTH",
"207 -6 OFFCURVE",
"288 38 OFFCURVE",
"311 190 CURVE SMOOTH"
);
},
{
closed = 1;
nodes = (
"641 653 OFFCURVE",
"656 644 OFFCURVE",
"656 622 CURVE SMOOTH",
"656 585 OFFCURVE",
"622 546 OFFCURVE",
"572 514 CURVE",
"577 530 OFFCURVE",
"582 548 OFFCURVE",
"587 567 CURVE SMOOTH",
"600 618 OFFCURVE",
"602 653 OFFCURVE",
"628 653 CURVE SMOOTH"
);
},
{
closed = 1;
nodes = (
"86 85 OFFCURVE",
"79 104 OFFCURVE",
"79 121 CURVE SMOOTH",
"79 155 OFFCURVE",
"113 190 OFFCURVE",
"172 224 CURVE",
"164 162 LINE SMOOTH",
"155 103 OFFCURVE",
"128 85 OFFCURVE",
"113 85 CURVE SMOOTH"
);
}
);
width = 682;
}
);
unicode = 004B;
},
{
glyphname = L;
layers = (
{
anchors = (
{
name = class0;
position = "{342, 761}";
},
{
name = class1;
position = "{202, 0}";
}
);
layerId = "D6BACC31-AA00-4837-BF4A-0C7E591D0F9E";
name = Bold;
paths = (
{
closed = 1;
nodes = (
"289 172 LINE",
"319 408 LINE",
"428 460 OFFCURVE",
"502 532 OFFCURVE",
"502 637 CURVE SMOOTH",
"502 718 OFFCURVE",
"448 761 OFFCURVE",
"372 761 CURVE SMOOTH",
"286 761 OFFCURVE",
"218 722 OFFCURVE",
"202 594 CURVE SMOOTH",
"182 431 LINE",
"140 418 OFFCURVE",
"92 405 OFFCURVE",
"38 393 CURVE",
"38 318 LINE",
"84 329 OFFCURVE",
"130 340 OFFCURVE",
"174 354 CURVE",
"160 227 LINE",
"150 228 OFFCURVE",
"140 229 OFFCURVE",
"129 229 CURVE SMOOTH",
"54 229 OFFCURVE",
"0 180 OFFCURVE",
"0 102 CURVE SMOOTH",
"0 30 OFFCURVE",
"60 -6 OFFCURVE",
"112 -6 CURVE SMOOTH",
"166 -6 OFFCURVE",
"221 13 OFFCURVE",
"255 68 CURVE",
"300 30 OFFCURVE",
"348 -6 OFFCURVE",
"400 -6 CURVE SMOOTH",
"481 -6 OFFCURVE",
"537 53 OFFCURVE",
"569 170 CURVE",
"561 189 OFFCURVE",
"537 212 OFFCURVE",
"519 229 CURVE",
"489 134 OFFCURVE",
"475 83 OFFCURVE",
"409 83 CURVE SMOOTH",
"372 83 OFFCURVE",
"335 123 OFFCURVE",
"288 162 CURVE"
);
},
{
closed = 1;
nodes = (
"339 572 LINE SMOOTH",
"345 625 OFFCURVE",
"356 671 OFFCURVE",
"392 671 CURVE SMOOTH",
"413 671 OFFCURVE",
"427 656 OFFCURVE",
"427 629 CURVE SMOOTH",
"427 579 OFFCURVE",
"398 534 OFFCURVE",
"329 493 CURVE"
);
},
{
closed = 1;
nodes = (
"93 83 OFFCURVE",
"76 90 OFFCURVE",
"76 113 CURVE SMOOTH",
"76 133 OFFCURVE",
"93 150 OFFCURVE",
"115 150 CURVE SMOOTH",
"127 150 OFFCURVE",
"139 147 OFFCURVE",
"151 142 CURVE",
"146 109 OFFCURVE",
"137 83 OFFCURVE",
"105 83 CURVE SMOOTH"
);
}
);
width = 464;
}
);
unicode = 004C;
},
{
glyphname = Lslash;
layers = (
{
layerId = "D6BACC31-AA00-4837-BF4A-0C7E591D0F9E";
name = Bold;
paths = (
{
closed = 1;
nodes = (
"289 172 LINE",
"314 374 LINE",
"346 374 OFFCURVE",
"380 374 OFFCURVE",
"415 374 CURVE SMOOTH",
"509 374 LINE",
"509 451 LINE",
"393 451 LINE",
"460 498 OFFCURVE",
"502 558 OFFCURVE",
"502 637 CURVE SMOOTH",
"502 718 OFFCURVE",
"448 761 OFFCURVE",
"372 761 CURVE SMOOTH",
"286 761 OFFCURVE",
"218 722 OFFCURVE",
"202 594 CURVE SMOOTH",
"182 431 LINE",
"140 418 OFFCURVE",
"92 405 OFFCURVE",
"38 393 CURVE",
"38 318 LINE",
"84 329 OFFCURVE",
"130 340 OFFCURVE",
"174 354 CURVE",
"160 227 LINE",
"150 228 OFFCURVE",
"140 229 OFFCURVE",
"129 229 CURVE SMOOTH",
"54 229 OFFCURVE",
"0 180 OFFCURVE",
"0 102 CURVE SMOOTH",
"0 30 OFFCURVE",
"60 -6 OFFCURVE",
"112 -6 CURVE SMOOTH",
"166 -6 OFFCURVE",
"221 13 OFFCURVE",
"255 68 CURVE",
"300 30 OFFCURVE",
"348 -6 OFFCURVE",
"400 -6 CURVE SMOOTH",
"481 -6 OFFCURVE",
"537 53 OFFCURVE",
"569 170 CURVE",
"561 189 OFFCURVE",
"537 212 OFFCURVE",
"519 229 CURVE",
"489 134 OFFCURVE",
"475 83 OFFCURVE",
"409 83 CURVE SMOOTH",
"372 83 OFFCURVE",
"335 123 OFFCURVE",
"288 162 CURVE"
);
},
{
closed = 1;
nodes = (
"339 572 LINE SMOOTH",
"345 625 OFFCURVE",
"356 671 OFFCURVE",
"392 671 CURVE SMOOTH",
"413 671 OFFCURVE",
"427 656 OFFCURVE",
"427 629 CURVE SMOOTH",
"427 579 OFFCURVE",
"398 534 OFFCURVE",
"329 493 CURVE"
);
},
{
closed = 1;
nodes = (
"93 83 OFFCURVE",
"76 90 OFFCURVE",
"76 113 CURVE SMOOTH",
"76 133 OFFCURVE",
"93 150 OFFCURVE",
"115 150 CURVE SMOOTH",
"127 150 OFFCURVE",
"139 147 OFFCURVE",
"151 142 CURVE",
"146 109 OFFCURVE",
"137 83 OFFCURVE",
"105 83 CURVE SMOOTH"
);
}
);
width = 600;
}
);
unicode = 0141;
},
{
glyphname = M;
layers = (
{
layerId = "D6BACC31-AA00-4837-BF4A-0C7E591D0F9E";
name = Bold;
paths = (
{
closed = 1;
nodes = (
"660 749 LINE",
"460 295 LINE",
"398 760 LINE",
"391 760 LINE",
"376 762 OFFCURVE",
"359 762 OFFCURVE",
"342 762 CURVE SMOOTH",
"319 762 OFFCURVE",
"287 760 OFFCURVE",
"271 756 CURVE",
"265 718 OFFCURVE",
"207 437 OFFCURVE",
"175 283 CURVE",
"81 240 OFFCURVE",
"8 184 OFFCURVE",
"11 97 CURVE SMOOTH",
"14 28 OFFCURVE",
"57 -7 OFFCURVE",
"117 -7 CURVE SMOOTH",
"172 -7 OFFCURVE",
"233 31 OFFCURVE",
"257 137 CURVE SMOOTH",
"327 447 LINE",
"376 74 LINE",
"461 74 LINE",
"625 453 LINE",
"608 316 OFFCURVE",
"590 176 OFFCURVE",
"584 112 CURVE SMOOTH",
"577 52 OFFCURVE",
"605 -6 OFFCURVE",
"685 -6 CURVE SMOOTH",
"773 -6 OFFCURVE",
"870 69 OFFCURVE",
"932 167 CURVE",
"929 185 OFFCURVE",
"910 238 OFFCURVE",
"910 238 CURVE",
"858 171 OFFCURVE",
"790 100 OFFCURVE",
"743 100 CURVE SMOOTH",
"730 100 OFFCURVE",
"719 106 OFFCURVE",
"718 126 CURVE",
"718 129 OFFCURVE",
"718 134 OFFCURVE",
"719 138 CURVE",
"729 230 OFFCURVE",
"747 458 OFFCURVE",
"787 757 CURVE",
"769 760 OFFCURVE",
"743 762 OFFCURVE",
"721 762 CURVE SMOOTH",
"698 762 OFFCURVE",
"676 760 OFFCURVE",
"660 754 CURVE"
);
},
{
closed = 1;
nodes = (
"93 87 OFFCURVE",
"83 94 OFFCURVE",
"82 117 CURVE SMOOTH",
"81 141 OFFCURVE",
"96 166 OFFCURVE",
"158 201 CURVE",
"157 195 LINE SMOOTH",
"144 130 OFFCURVE",
"132 87 OFFCURVE",
"107 87 CURVE SMOOTH"
);
}
);
width = 810;
}
);
unicode = 004D;
},
{
glyphname = N;
layers = (
{
anchors = (
{
name = class0;
position = "{465, 761}";
},
{
name = class1;
position = "{345, 0}";
}
);
layerId = "D6BACC31-AA00-4837-BF4A-0C7E591D0F9E";
name = Bold;
paths = (
{
closed = 1;
nodes = (
"534 216 LINE",
"440 612 LINE SMOOTH",
"415 725 OFFCURVE",
"358 762 OFFCURVE",
"279 762 CURVE SMOOTH",
"202 762 OFFCURVE",
"133 711 OFFCURVE",
"113 683 CURVE",
"132 597 LINE",
"149 620 OFFCURVE",
"175 649 OFFCURVE",
"221 649 CURVE SMOOTH",
"256 649 OFFCURVE",
"278 637 OFFCURVE",
"293 613 CURVE",
"268 618 OFFCURVE",
"239 614 OFFCURVE",
"218 605 CURVE",
"175 283 LINE",
"85 240 OFFCURVE",
"17 184 OFFCURVE",
"27 97 CURVE SMOOTH",
"36 28 OFFCURVE",
"82 -7 OFFCURVE",
"141 -7 CURVE SMOOTH",
"196 -7 OFFCURVE",
"252 31 OFFCURVE",
"267 137 CURVE SMOOTH",
"322 527 LINE",
"441 0 LINE",
"609 0 LINE",
"679 473 LINE",
"764 515 OFFCURVE",
"811 570 OFFCURVE",
"826 646 CURVE SMOOTH",
"837 702 OFFCURVE",
"795 761 OFFCURVE",
"728 761 CURVE SMOOTH",
"650 761 OFFCURVE",
"607 720 OFFCURVE",
"592 616 CURVE SMOOTH"
);
},
{
closed = 1;
nodes = (
"753 628 OFFCURVE",
"745 597 OFFCURVE",
"692 559 CURVE",
"693 568 LINE SMOOTH",
"702 633 OFFCURVE",
"707 666 OFFCURVE",
"734 666 CURVE SMOOTH",
"749 666 OFFCURVE",
"756 648 OFFCURVE",
"754 636 CURVE"
);
},
{
closed = 1;
nodes = (
"110 87 OFFCURVE",
"99 94 OFFCURVE",
"97 117 CURVE",
"93 141 OFFCURVE",
"106 166 OFFCURVE",
"165 200 CURVE",
"164 195 LINE",
"155 120 OFFCURVE",
"148 87 OFFCURVE",
"123 87 CURVE SMOOTH"
);
}
);
width = 730;
}
);
unicode = 004E;
},
{
glyphname = Ntilde;
layers = (
{
layerId = "D6BACC31-AA00-4837-BF4A-0C7E591D0F9E";
name = Bold;
paths = (
{
closed = 1;
nodes = (
"332 820 LINE",
"354 866 OFFCURVE",
"374 881 OFFCURVE",
"406 879 CURVE SMOOTH",
"455 876 OFFCURVE",
"497 804 OFFCURVE",
"573 804 CURVE SMOOTH",
"645 804 OFFCURVE",
"691 870 OFFCURVE",
"703 952 CURVE",
"659 977 LINE",
"645 943 OFFCURVE",
"620 909 OFFCURVE",
"585 909 CURVE SMOOTH",
"535 909 OFFCURVE",
"489 976 OFFCURVE",
"416 979 CURVE SMOOTH",
"346 982 OFFCURVE",
"304 915 OFFCURVE",
"288 846 CURVE"
);
},
{
closed = 1;
nodes = (
"534 216 LINE",
"440 612 LINE SMOOTH",
"415 725 OFFCURVE",
"358 762 OFFCURVE",
"279 762 CURVE SMOOTH",
"202 762 OFFCURVE",
"133 711 OFFCURVE",
"113 683 CURVE",
"132 597 LINE",
"149 620 OFFCURVE",
"175 649 OFFCURVE",
"221 649 CURVE SMOOTH",
"256 649 OFFCURVE",
"278 637 OFFCURVE",
"293 613 CURVE",
"268 618 OFFCURVE",
"239 614 OFFCURVE",
"218 605 CURVE",
"175 283 LINE",
"85 240 OFFCURVE",
"17 184 OFFCURVE",
"27 97 CURVE SMOOTH",
"36 28 OFFCURVE",
"82 -7 OFFCURVE",
"141 -7 CURVE SMOOTH",
"196 -7 OFFCURVE",
"252 31 OFFCURVE",
"267 137 CURVE SMOOTH",
"322 527 LINE",
"441 0 LINE",
"609 0 LINE",
"679 473 LINE",
"764 515 OFFCURVE",
"811 570 OFFCURVE",
"826 646 CURVE SMOOTH",
"837 702 OFFCURVE",
"795 761 OFFCURVE",
"728 761 CURVE SMOOTH",
"650 761 OFFCURVE",
"607 720 OFFCURVE",
"592 616 CURVE SMOOTH"
);
},
{
closed = 1;
nodes = (
"693 568 LINE SMOOTH",
"702 633 OFFCURVE",
"707 666 OFFCURVE",
"734 666 CURVE SMOOTH",
"749 666 OFFCURVE",
"756 648 OFFCURVE",
"754 636 CURVE",
"753 628 OFFCURVE",
"745 597 OFFCURVE",
"692 559 CURVE"
);
},
{
closed = 1;
nodes = (
"164 195 LINE",
"155 120 OFFCURVE",
"148 87 OFFCURVE",
"123 87 CURVE SMOOTH",
"110 87 OFFCURVE",
"99 94 OFFCURVE",
"97 117 CURVE",
"93 141 OFFCURVE",
"106 166 OFFCURVE",
"165 200 CURVE"
);
}
);
width = 730;
}
);
unicode = 00D1;
},
{
glyphname = O;
layers = (
{
anchors = (
{
name = class0;
position = "{460, 761}";
},
{
name = class1;
position = "{0, 0}";
}
);
layerId = "D6BACC31-AA00-4837-BF4A-0C7E591D0F9E";
name = Bold;
paths = (
{
closed = 1;
nodes = (
"903 462 LINE",
"865 433 OFFCURVE",
"807 407 OFFCURVE",
"750 415 CURVE SMOOTH",
"702 422 OFFCURVE",
"669 450 OFFCURVE",
"672 490 CURVE SMOOTH",
"673 506 OFFCURVE",
"685 528 OFFCURVE",
"716 530 CURVE",
"711 534 OFFCURVE",
"691 539 OFFCURVE",
"679 541 CURVE SMOOTH",
"614 550 OFFCURVE",
"578 516 OFFCURVE",
"571 469 CURVE SMOOTH",
"569 456 OFFCURVE",
"570 443 OFFCURVE",
"573 432 CURVE",
"573 420 LINE SMOOTH",
"573 271 OFFCURVE",
"497 87 OFFCURVE",
"364 87 CURVE SMOOTH",
"258 87 OFFCURVE",
"233 201 OFFCURVE",
"233 293 CURVE SMOOTH",
"233 480 OFFCURVE",
"340 673 OFFCURVE",
"461 673 CURVE SMOOTH",
"526 673 OFFCURVE",
"530 627 OFFCURVE",
"530 617 CURVE",
"527 588 OFFCURVE",
"509 576 OFFCURVE",
"491 576 CURVE SMOOTH",
"467 576 OFFCURVE",
"459 597 OFFCURVE",
"459 616 CURVE",
"459 616 OFFCURVE",
"426 606 OFFCURVE",
"426 569 CURVE SMOOTH",
"426 519 OFFCURVE",
"471 504 OFFCURVE",
"505 504 CURVE SMOOTH",
"588 504 OFFCURVE",
"631 568 OFFCURVE",
"631 627 CURVE SMOOTH",
"631 715 OFFCURVE",
"548 761 OFFCURVE",
"457 761 CURVE SMOOTH",
"226 761 OFFCURVE",
"80 531 OFFCURVE",
"80 297 CURVE SMOOTH",
"80 125 OFFCURVE",
"168 -6 OFFCURVE",
"346 -6 CURVE SMOOTH",
"540 -6 OFFCURVE",
"686 148 OFFCURVE",
"718 340 CURVE",
"814 329 OFFCURVE",
"902 377 OFFCURVE",
"925 402 CURVE"
);
}
);
width = 747;
}
);
unicode = 004F;
},
{
glyphname = Oacute;
layers = (
{
layerId = "D6BACC31-AA00-4837-BF4A-0C7E591D0F9E";
name = Bold;
paths = (
{
closed = 1;
nodes = (
"403 830 LINE",
"409 823 OFFCURVE",
"427 801 OFFCURVE",
"441 793 CURVE",
"621 926 LINE",
"602 954 OFFCURVE",
"559 1003 OFFCURVE",
"530 1017 CURVE"
);
},
{
closed = 1;
nodes = (
"903 462 LINE",
"865 433 OFFCURVE",
"807 407 OFFCURVE",
"750 415 CURVE SMOOTH",
"702 422 OFFCURVE",
"669 450 OFFCURVE",
"672 490 CURVE SMOOTH",
"673 506 OFFCURVE",
"685 528 OFFCURVE",
"716 530 CURVE",
"711 534 OFFCURVE",
"691 539 OFFCURVE",
"679 541 CURVE SMOOTH",
"614 550 OFFCURVE",
"578 516 OFFCURVE",
"571 469 CURVE SMOOTH",
"569 456 OFFCURVE",
"570 443 OFFCURVE",
"573 432 CURVE",
"573 420 LINE SMOOTH",
"573 271 OFFCURVE",
"497 87 OFFCURVE",
"364 87 CURVE SMOOTH",
"258 87 OFFCURVE",
"233 201 OFFCURVE",
"233 293 CURVE SMOOTH",
"233 480 OFFCURVE",
"340 673 OFFCURVE",
"461 673 CURVE SMOOTH",
"526 673 OFFCURVE",
"530 627 OFFCURVE",
"530 617 CURVE",
"527 588 OFFCURVE",
"509 576 OFFCURVE",
"491 576 CURVE SMOOTH",
"467 576 OFFCURVE",
"459 597 OFFCURVE",
"459 616 CURVE",
"459 616 OFFCURVE",
"426 606 OFFCURVE",
"426 569 CURVE SMOOTH",
"426 519 OFFCURVE",
"471 504 OFFCURVE",
"505 504 CURVE SMOOTH",
"588 504 OFFCURVE",
"631 568 OFFCURVE",
"631 627 CURVE SMOOTH",
"631 715 OFFCURVE",
"548 761 OFFCURVE",
"457 761 CURVE SMOOTH",
"226 761 OFFCURVE",
"80 531 OFFCURVE",
"80 297 CURVE SMOOTH",
"80 125 OFFCURVE",
"168 -6 OFFCURVE",
"346 -6 CURVE SMOOTH",
"540 -6 OFFCURVE",
"686 148 OFFCURVE",
"718 340 CURVE",
"814 329 OFFCURVE",
"902 377 OFFCURVE",
"925 402 CURVE"
);
}
);
width = 747;
}
);
unicode = 00D3;
},
{
glyphname = Ocircumflex;
layers = (
{
layerId = "D6BACC31-AA00-4837-BF4A-0C7E591D0F9E";
name = Bold;
paths = (
{
closed = 1;
nodes = (
"472 980 LINE",
"298 859 LINE",
"306 844 OFFCURVE",
"322 815 OFFCURVE",
"331 801 CURVE",
"472 874 LINE",
"613 801 LINE",
"622 815 OFFCURVE",
"638 844 OFFCURVE",
"646 859 CURVE"
);
},
{
closed = 1;
nodes = (
"903 462 LINE",
"865 433 OFFCURVE",
"807 407 OFFCURVE",
"750 415 CURVE SMOOTH",
"702 422 OFFCURVE",
"669 450 OFFCURVE",
"672 490 CURVE SMOOTH",
"673 506 OFFCURVE",
"685 528 OFFCURVE",
"716 530 CURVE",
"711 534 OFFCURVE",
"691 539 OFFCURVE",
"679 541 CURVE SMOOTH",
"614 550 OFFCURVE",
"578 516 OFFCURVE",
"571 469 CURVE SMOOTH",
"569 456 OFFCURVE",
"570 443 OFFCURVE",
"573 432 CURVE",
"573 420 LINE SMOOTH",
"573 271 OFFCURVE",
"497 87 OFFCURVE",
"364 87 CURVE SMOOTH",
"258 87 OFFCURVE",
"233 201 OFFCURVE",
"233 293 CURVE SMOOTH",
"233 480 OFFCURVE",
"340 673 OFFCURVE",
"461 673 CURVE SMOOTH",
"526 673 OFFCURVE",
"530 627 OFFCURVE",
"530 617 CURVE",
"527 588 OFFCURVE",
"509 576 OFFCURVE",
"491 576 CURVE SMOOTH",
"467 576 OFFCURVE",
"459 597 OFFCURVE",
"459 616 CURVE",
"459 616 OFFCURVE",
"426 606 OFFCURVE",
"426 569 CURVE SMOOTH",
"426 519 OFFCURVE",
"471 504 OFFCURVE",
"505 504 CURVE SMOOTH",
"588 504 OFFCURVE",
"631 568 OFFCURVE",
"631 627 CURVE SMOOTH",
"631 715 OFFCURVE",
"548 761 OFFCURVE",
"457 761 CURVE SMOOTH",
"226 761 OFFCURVE",
"80 531 OFFCURVE",
"80 297 CURVE SMOOTH",
"80 125 OFFCURVE",
"168 -6 OFFCURVE",
"346 -6 CURVE SMOOTH",
"540 -6 OFFCURVE",
"686 148 OFFCURVE",
"718 340 CURVE",
"814 329 OFFCURVE",
"902 377 OFFCURVE",
"925 402 CURVE"
);
}
);
width = 747;
}
);
unicode = 00D4;
},
{
glyphname = Odieresis;
layers = (
{
layerId = "D6BACC31-AA00-4837-BF4A-0C7E591D0F9E";
name = Bold;
paths = (
{
closed = 1;
nodes = (
"308 957 OFFCURVE",
"278 924 OFFCURVE",
"278 884 CURVE SMOOTH",
"278 844 OFFCURVE",
"308 812 OFFCURVE",
"350 812 CURVE SMOOTH",
"389 812 OFFCURVE",
"421 844 OFFCURVE",
"421 884 CURVE SMOOTH",
"421 924 OFFCURVE",
"389 957 OFFCURVE",
"350 957 CURVE SMOOTH"
);
},
{
closed = 1;
nodes = (
"550 957 OFFCURVE",
"517 924 OFFCURVE",
"517 884 CURVE SMOOTH",
"517 844 OFFCURVE",
"550 812 OFFCURVE",
"590 812 CURVE SMOOTH",
"631 812 OFFCURVE",
"662 844 OFFCURVE",
"662 884 CURVE SMOOTH",
"662 924 OFFCURVE",
"631 957 OFFCURVE",
"590 957 CURVE SMOOTH"
);
},
{
closed = 1;
nodes = (
"903 462 LINE",
"865 433 OFFCURVE",
"807 407 OFFCURVE",
"750 415 CURVE SMOOTH",
"702 422 OFFCURVE",
"669 450 OFFCURVE",
"672 490 CURVE SMOOTH",
"673 506 OFFCURVE",
"685 528 OFFCURVE",
"716 530 CURVE",
"711 534 OFFCURVE",
"691 539 OFFCURVE",
"679 541 CURVE SMOOTH",
"614 550 OFFCURVE",
"578 516 OFFCURVE",
"571 469 CURVE SMOOTH",
"569 456 OFFCURVE",
"570 443 OFFCURVE",
"573 432 CURVE",
"573 420 LINE SMOOTH",
"573 271 OFFCURVE",
"497 87 OFFCURVE",
"364 87 CURVE SMOOTH",
"258 87 OFFCURVE",
"233 201 OFFCURVE",
"233 293 CURVE SMOOTH",
"233 480 OFFCURVE",
"340 673 OFFCURVE",
"461 673 CURVE SMOOTH",
"526 673 OFFCURVE",
"530 627 OFFCURVE",
"530 617 CURVE",
"527 588 OFFCURVE",
"509 576 OFFCURVE",
"491 576 CURVE SMOOTH",
"467 576 OFFCURVE",
"459 597 OFFCURVE",
"459 616 CURVE",
"459 616 OFFCURVE",
"426 606 OFFCURVE",
"426 569 CURVE SMOOTH",
"426 519 OFFCURVE",
"471 504 OFFCURVE",
"505 504 CURVE SMOOTH",
"588 504 OFFCURVE",
"631 568 OFFCURVE",
"631 627 CURVE SMOOTH",
"631 715 OFFCURVE",
"548 761 OFFCURVE",
"457 761 CURVE SMOOTH",
"226 761 OFFCURVE",
"80 531 OFFCURVE",
"80 297 CURVE SMOOTH",
"80 125 OFFCURVE",
"168 -6 OFFCURVE",
"346 -6 CURVE SMOOTH",
"540 -6 OFFCURVE",
"686 148 OFFCURVE",
"718 340 CURVE",
"814 329 OFFCURVE",
"902 377 OFFCURVE",
"925 402 CURVE"
);
}
);
width = 747;
}
);
unicode = 00D6;
},
{
glyphname = Ograve;
layers = (
{
layerId = "D6BACC31-AA00-4837-BF4A-0C7E591D0F9E";
name = Bold;
paths = (
{
closed = 1;
nodes = (
"442 1017 LINE",
"413 1003 OFFCURVE",
"370 954 OFFCURVE",
"351 926 CURVE",
"531 793 LINE",
"545 801 OFFCURVE",
"563 823 OFFCURVE",
"569 830 CURVE"
);
},
{
closed = 1;
nodes = (
"903 462 LINE",
"865 433 OFFCURVE",
"807 407 OFFCURVE",
"750 415 CURVE SMOOTH",
"702 422 OFFCURVE",
"669 450 OFFCURVE",
"672 490 CURVE SMOOTH",
"673 506 OFFCURVE",
"685 528 OFFCURVE",
"716 530 CURVE",
"711 534 OFFCURVE",
"691 539 OFFCURVE",
"679 541 CURVE SMOOTH",
"614 550 OFFCURVE",
"578 516 OFFCURVE",
"571 469 CURVE SMOOTH",
"569 456 OFFCURVE",
"570 443 OFFCURVE",
"573 432 CURVE",
"573 420 LINE SMOOTH",
"573 271 OFFCURVE",
"497 87 OFFCURVE",
"364 87 CURVE SMOOTH",
"258 87 OFFCURVE",
"233 201 OFFCURVE",
"233 293 CURVE SMOOTH",
"233 480 OFFCURVE",
"340 673 OFFCURVE",
"461 673 CURVE SMOOTH",
"526 673 OFFCURVE",
"530 627 OFFCURVE",
"530 617 CURVE",
"527 588 OFFCURVE",
"509 576 OFFCURVE",
"491 576 CURVE SMOOTH",
"467 576 OFFCURVE",
"459 597 OFFCURVE",
"459 616 CURVE",
"459 616 OFFCURVE",
"426 606 OFFCURVE",
"426 569 CURVE SMOOTH",
"426 519 OFFCURVE",
"471 504 OFFCURVE",
"505 504 CURVE SMOOTH",
"588 504 OFFCURVE",
"631 568 OFFCURVE",
"631 627 CURVE SMOOTH",
"631 715 OFFCURVE",
"548 761 OFFCURVE",
"457 761 CURVE SMOOTH",
"226 761 OFFCURVE",
"80 531 OFFCURVE",
"80 297 CURVE SMOOTH",
"80 125 OFFCURVE",
"168 -6 OFFCURVE",
"346 -6 CURVE SMOOTH",
"540 -6 OFFCURVE",
"686 148 OFFCURVE",
"718 340 CURVE",
"814 329 OFFCURVE",
"902 377 OFFCURVE",
"925 402 CURVE"
);
}
);
width = 747;
}
);
unicode = 00D2;
},
{
glyphname = Oslash;
layers = (
{
anchors = (
{
name = class0;
position = "{434, 761}";
},
{
name = class1;
position = "{0, 0}";
}
);
layerId = "D6BACC31-AA00-4837-BF4A-0C7E591D0F9E";
name = Bold;
paths = (
{
closed = 1;
nodes = (
"903 462 LINE",
"865 433 OFFCURVE",
"807 407 OFFCURVE",
"750 415 CURVE SMOOTH",
"702 422 OFFCURVE",
"669 450 OFFCURVE",
"672 490 CURVE SMOOTH",
"673 506 OFFCURVE",
"685 528 OFFCURVE",
"716 530 CURVE",
"711 534 OFFCURVE",
"691 539 OFFCURVE",
"679 541 CURVE SMOOTH",
"614 550 OFFCURVE",
"578 516 OFFCURVE",
"571 469 CURVE SMOOTH",
"569 456 OFFCURVE",
"570 443 OFFCURVE",
"573 432 CURVE",
"573 420 LINE SMOOTH",
"573 271 OFFCURVE",
"497 87 OFFCURVE",
"364 87 CURVE SMOOTH",
"355 87 LINE",
"481 507 LINE",
"489 505 OFFCURVE",
"497 504 OFFCURVE",
"505 504 CURVE SMOOTH",
"588 504 OFFCURVE",
"631 568 OFFCURVE",
"631 627 CURVE SMOOTH",
"631 682 OFFCURVE",
"598 721 OFFCURVE",
"551 742 CURVE",
"569 801 LINE",
"486 801 LINE",
"474 760 LINE",
"457 761 LINE",
"226 761 OFFCURVE",
"80 531 OFFCURVE",
"80 297 CURVE SMOOTH",
"80 160 OFFCURVE",
"136 49 OFFCURVE",
"249 9 CURVE",
"228 -60 LINE",
"311 -60 LINE",
"327 -6 LINE",
"346 -6 LINE SMOOTH",
"540 -6 OFFCURVE",
"686 148 OFFCURVE",
"718 340 CURVE",
"814 329 OFFCURVE",
"902 377 OFFCURVE",
"925 402 CURVE"
);
},
{
closed = 1;
nodes = (
"282 121 LINE",
"244 161 OFFCURVE",
"233 232 OFFCURVE",
"233 293 CURVE SMOOTH",
"233 473 OFFCURVE",
"332 658 OFFCURVE",
"447 672 CURVE"
);
},
{
closed = 1;
nodes = (
"522 645 LINE",
"529 633 OFFCURVE",
"530 622 OFFCURVE",
"530 617 CURVE",
"528 594 OFFCURVE",
"516 582 OFFCURVE",
"502 578 CURVE"
);
}
);
width = 747;
}
);
unicode = 00D8;
},
{
glyphname = Otilde;
layers = (
{
layerId = "D6BACC31-AA00-4837-BF4A-0C7E591D0F9E";
name = Bold;
paths = (
{
closed = 1;
nodes = (
"327 820 LINE",
"349 866 OFFCURVE",
"369 881 OFFCURVE",
"401 879 CURVE SMOOTH",
"450 876 OFFCURVE",
"492 804 OFFCURVE",
"568 804 CURVE SMOOTH",
"640 804 OFFCURVE",
"686 870 OFFCURVE",
"698 952 CURVE",
"654 977 LINE",
"640 943 OFFCURVE",
"615 909 OFFCURVE",
"580 909 CURVE SMOOTH",
"530 909 OFFCURVE",
"484 976 OFFCURVE",
"411 979 CURVE SMOOTH",
"341 982 OFFCURVE",
"299 915 OFFCURVE",
"283 846 CURVE"
);
},
{
closed = 1;
nodes = (
"903 462 LINE",
"865 433 OFFCURVE",
"807 407 OFFCURVE",
"750 415 CURVE SMOOTH",
"702 422 OFFCURVE",
"669 450 OFFCURVE",
"672 490 CURVE SMOOTH",
"673 506 OFFCURVE",
"685 528 OFFCURVE",
"716 530 CURVE",
"711 534 OFFCURVE",
"691 539 OFFCURVE",
"679 541 CURVE SMOOTH",
"614 550 OFFCURVE",
"578 516 OFFCURVE",
"571 469 CURVE SMOOTH",
"569 456 OFFCURVE",
"570 443 OFFCURVE",
"573 432 CURVE",
"573 420 LINE SMOOTH",
"573 271 OFFCURVE",
"497 87 OFFCURVE",
"364 87 CURVE SMOOTH",
"258 87 OFFCURVE",
"233 201 OFFCURVE",
"233 293 CURVE SMOOTH",
"233 480 OFFCURVE",
"340 673 OFFCURVE",
"461 673 CURVE SMOOTH",
"526 673 OFFCURVE",
"530 627 OFFCURVE",
"530 617 CURVE",
"527 588 OFFCURVE",
"509 576 OFFCURVE",
"491 576 CURVE SMOOTH",
"467 576 OFFCURVE",
"459 597 OFFCURVE",
"459 616 CURVE",
"459 616 OFFCURVE",
"426 606 OFFCURVE",
"426 569 CURVE SMOOTH",
"426 519 OFFCURVE",
"471 504 OFFCURVE",
"505 504 CURVE SMOOTH",
"588 504 OFFCURVE",
"631 568 OFFCURVE",
"631 627 CURVE SMOOTH",
"631 715 OFFCURVE",
"548 761 OFFCURVE",
"457 761 CURVE SMOOTH",
"226 761 OFFCURVE",
"80 531 OFFCURVE",
"80 297 CURVE SMOOTH",
"80 125 OFFCURVE",
"168 -6 OFFCURVE",
"346 -6 CURVE SMOOTH",
"540 -6 OFFCURVE",
"686 148 OFFCURVE",
"718 340 CURVE",
"814 329 OFFCURVE",
"902 377 OFFCURVE",
"925 402 CURVE"
);
}
);
width = 747;
}
);
unicode = 00D5;
},
{
glyphname = OE;
layers = (
{
anchors = (
{
name = class0;
position = "{485, 761}";
},
{
name = class1;
position = "{0, 0}";
}
);
layerId = "D6BACC31-AA00-4837-BF4A-0C7E591D0F9E";
name = Bold;
paths = (
{
closed = 1;
nodes = (
"1234 274 LINE",
"1191 198 OFFCURVE",
"1083 86 OFFCURVE",
"944 86 CURVE SMOOTH",
"827 86 OFFCURVE",
"787 172 OFFCURVE",
"791 238 CURVE SMOOTH",
"794 292 OFFCURVE",
"818 327 OFFCURVE",
"849 349 CURVE",
"884 334 OFFCURVE",
"923 326 OFFCURVE",
"960 326 CURVE SMOOTH",
"1008 326 OFFCURVE",
"1076 337 OFFCURVE",
"1078 382 CURVE SMOOTH",
"1080 434 OFFCURVE",
"1016 448 OFFCURVE",
"968 449 CURVE SMOOTH",
"944 449 OFFCURVE",
"919 448 OFFCURVE",
"894 445 CURVE",
"872 475 OFFCURVE",
"862 515 OFFCURVE",
"865 550 CURVE SMOOTH",
"871 615 OFFCURVE",
"937 674 OFFCURVE",
"1003 674 CURVE SMOOTH",
"1075 674 OFFCURVE",
"1117 638 OFFCURVE",
"1116 565 CURVE",
"1211 565 LINE",
"1211 682 OFFCURVE",
"1129 761 OFFCURVE",
"998 761 CURVE SMOOTH",
"850 761 OFFCURVE",
"716 659 OFFCURVE",
"723 523 CURVE SMOOTH",
"725 480 OFFCURVE",
"740 444 OFFCURVE",
"762 415 CURVE",
"748 413 OFFCURVE",
"734 413 OFFCURVE",
"720 415 CURVE SMOOTH",
"672 422 OFFCURVE",
"639 450 OFFCURVE",
"642 490 CURVE SMOOTH",
"643 506 OFFCURVE",
"655 528 OFFCURVE",
"686 530 CURVE",
"681 534 OFFCURVE",
"661 539 OFFCURVE",
"649 541 CURVE SMOOTH",
"627 544 OFFCURVE",
"608 542 OFFCURVE",
"592 536 CURVE",
"618 560 OFFCURVE",
"631 594 OFFCURVE",
"631 627 CURVE SMOOTH",
"631 715 OFFCURVE",
"548 761 OFFCURVE",
"457 761 CURVE SMOOTH",
"226 761 OFFCURVE",
"80 531 OFFCURVE",
"80 297 CURVE SMOOTH",
"80 125 OFFCURVE",
"168 -6 OFFCURVE",
"346 -6 CURVE SMOOTH",
"485 -6 OFFCURVE",
"584 77 OFFCURVE",
"637 193 CURVE",
"642 87 OFFCURVE",
"758 -6 OFFCURVE",
"909 -6 CURVE SMOOTH",
"1090 -6 OFFCURVE",
"1201 99 OFFCURVE",
"1268 213 CURVE"
);
},
{
closed = 1;
nodes = (
"258 87 OFFCURVE",
"233 201 OFFCURVE",
"233 293 CURVE SMOOTH",
"233 480 OFFCURVE",
"340 673 OFFCURVE",
"461 673 CURVE SMOOTH",
"526 673 OFFCURVE",
"530 627 OFFCURVE",
"530 617 CURVE",
"527 588 OFFCURVE",
"509 576 OFFCURVE",
"491 576 CURVE SMOOTH",
"467 576 OFFCURVE",
"459 597 OFFCURVE",
"459 616 CURVE",
"459 616 OFFCURVE",
"426 606 OFFCURVE",
"426 569 CURVE SMOOTH",
"426 519 OFFCURVE",
"471 504 OFFCURVE",
"505 504 CURVE SMOOTH",
"527 504 OFFCURVE",
"546 508 OFFCURVE",
"562 516 CURVE",
"551 504 OFFCURVE",
"544 487 OFFCURVE",
"541 469 CURVE SMOOTH",
"536 435 OFFCURVE",
"549 407 OFFCURVE",
"572 386 CURVE",
"561 244 OFFCURVE",
"487 87 OFFCURVE",
"364 87 CURVE SMOOTH"
);
},
{
closed = 1;
nodes = (
"679 341 LINE",
"680 340 LINE",
"680 340 OFFCURVE",
"679 339 OFFCURVE",
"679 338 CURVE"
);
}
);
width = 1228;
}
);
unicode = 0152;
},
{
glyphname = P;
layers = (
{
layerId = "D6BACC31-AA00-4837-BF4A-0C7E591D0F9E";
name = Bold;
paths = (
{
closed = 1;
nodes = (
"188 478 LINE",
"140 483 OFFCURVE",
"109 509 OFFCURVE",
"109 546 CURVE SMOOTH",
"109 637 OFFCURVE",
"229 671 OFFCURVE",
"311 670 CURVE SMOOTH",
"443 668 OFFCURVE",
"508 602 OFFCURVE",
"505 525 CURVE SMOOTH",
"501 425 OFFCURVE",
"434 405 OFFCURVE",
"372 405 CURVE",
"363 332 LINE",
"375 331 OFFCURVE",
"387 330 OFFCURVE",
"399 330 CURVE SMOOTH",
"545 330 OFFCURVE",
"646 420 OFFCURVE",
"646 533 CURVE SMOOTH",
"646 643 OFFCURVE",
"569 761 OFFCURVE",
"331 761 CURVE SMOOTH",
"139 761 OFFCURVE",
"19 671 OFFCURVE",
"19 545 CURVE SMOOTH",
"19 471 OFFCURVE",
"83 408 OFFCURVE",
"176 404 CURVE"
);
},
{
closed = 1;
nodes = (
"164 136 LINE SMOOTH",
"163 129 OFFCURVE",
"163 123 OFFCURVE",
"163 116 CURVE SMOOTH",
"163 42 OFFCURVE",
"215 -6 OFFCURVE",
"296 -6 CURVE SMOOTH",
"370 -6 OFFCURVE",
"454 24 OFFCURVE",
"454 152 CURVE SMOOTH",
"454 247 OFFCURVE",
"392 301 OFFCURVE",
"327 332 CURVE",
"346 462 OFFCURVE",
"370 604 OFFCURVE",
"371 618 CURVE",
"352 623 OFFCURVE",
"335 624 OFFCURVE",
"319 624 CURVE SMOOTH",
"282 624 OFFCURVE",
"251 612 OFFCURVE",
"224 599 CURVE"
);
},
{
closed = 1;
nodes = (
"316 85 OFFCURVE",
"303 100 OFFCURVE",
"303 125 CURVE SMOOTH",
"303 149 OFFCURVE",
"310 205 OFFCURVE",
"319 271 CURVE",
"357 248 OFFCURVE",
"387 208 OFFCURVE",
"387 159 CURVE SMOOTH",
"387 100 OFFCURVE",
"354 85 OFFCURVE",
"328 85 CURVE SMOOTH"
);
}
);
width = 619;
}
);
leftKerningGroup = P;
rightKerningGroup = P;
unicode = 0050;
},
{
glyphname = Thorn;
layers = (
{
layerId = "D6BACC31-AA00-4837-BF4A-0C7E591D0F9E";
name = Bold;
paths = (
{
closed = 1;
nodes = (
"302 715 LINE",
"302 751 OFFCURVE",
"260 761 OFFCURVE",
"222 761 CURVE SMOOTH",
"198 761 OFFCURVE",
"174 756 OFFCURVE",
"166 753 CURVE",
"163 733 OFFCURVE",
"154 655 OFFCURVE",
"144 566 CURVE",
"28 535 OFFCURVE",
"-41 460 OFFCURVE",
"-41 365 CURVE SMOOTH",
"-41 299 OFFCURVE",
"23 241 OFFCURVE",
"104 227 CURVE",
"100 199 OFFCURVE",
"98 178 OFFCURVE",
"97 155 CURVE",
"97 151 LINE",
"67 -86 LINE SMOOTH",
"66 -96 OFFCURVE",
"62 -131 OFFCURVE",
"62 -136 CURVE SMOOTH",
"62 -219 OFFCURVE",
"124 -274 OFFCURVE",
"197 -274 CURVE SMOOTH",
"304 -274 OFFCURVE",
"359 -195 OFFCURVE",
"359 -91 CURVE SMOOTH",
"359 -17 OFFCURVE",
"331 70 OFFCURVE",
"274 151 CURVE",
"295 151 LINE SMOOTH",
"409 151 OFFCURVE",
"582 199 OFFCURVE",
"596 363 CURVE SMOOTH",
"605 471 OFFCURVE",
"513 577 OFFCURVE",
"285 581 CURVE"
);
},
{
closed = 1;
nodes = (
"264 164 LINE",
"256 175 OFFCURVE",
"247 187 OFFCURVE",
"237 198 CURVE",
"255 347 LINE",
"273 489 LINE",
"389 483 OFFCURVE",
"455 431 OFFCURVE",
"455 360 CURVE SMOOTH",
"455 256 OFFCURVE",
"365 224 OFFCURVE",
"272 225 CURVE"
);
},
{
closed = 1;
nodes = (
"119 351 LINE",
"113 301 LINE",
"75 310 OFFCURVE",
"49 334 OFFCURVE",
"49 366 CURVE SMOOTH",
"49 417 OFFCURVE",
"86 450 OFFCURVE",
"133 469 CURVE"
);
},
{
closed = 1;
nodes = (
"223 84 LINE",
"257 36 OFFCURVE",
"288 -31 OFFCURVE",
"288 -93 CURVE SMOOTH",
"288 -165 OFFCURVE",
"255 -182 OFFCURVE",
"232 -182 CURVE SMOOTH",
"218 -182 OFFCURVE",
"199 -162 OFFCURVE",
"199 -130 CURVE SMOOTH",
"199 -122 OFFCURVE",
"199 -118 OFFCURVE",
"200 -112 CURVE"
);
}
);
width = 600;
}
);
unicode = 00DE;
},
{
glyphname = Q;
layers = (
{
layerId = "D6BACC31-AA00-4837-BF4A-0C7E591D0F9E";
name = Bold;
paths = (
{
closed = 1;
nodes = (
"330 215 LINE",
"339 218 OFFCURVE",
"347 222 OFFCURVE",
"356 222 CURVE SMOOTH",
"389 222 OFFCURVE",
"417 185 OFFCURVE",
"446 141 CURVE",
"416 108 OFFCURVE",
"378 87 OFFCURVE",
"334 87 CURVE SMOOTH",
"228 87 OFFCURVE",
"203 201 OFFCURVE",
"203 293 CURVE SMOOTH",
"203 480 OFFCURVE",
"310 673 OFFCURVE",
"431 673 CURVE SMOOTH",
"496 673 OFFCURVE",
"500 627 OFFCURVE",
"500 617 CURVE",
"497 588 OFFCURVE",
"479 576 OFFCURVE",
"461 576 CURVE SMOOTH",
"437 576 OFFCURVE",
"429 597 OFFCURVE",
"429 616 CURVE",
"429 616 OFFCURVE",
"396 606 OFFCURVE",
"396 569 CURVE SMOOTH",
"396 519 OFFCURVE",
"441 504 OFFCURVE",
"475 504 CURVE SMOOTH",
"558 504 OFFCURVE",
"601 568 OFFCURVE",
"601 627 CURVE SMOOTH",
"601 715 OFFCURVE",
"518 761 OFFCURVE",
"427 761 CURVE SMOOTH",
"196 761 OFFCURVE",
"50 531 OFFCURVE",
"50 297 CURVE SMOOTH",
"50 125 OFFCURVE",
"138 -6 OFFCURVE",
"316 -6 CURVE SMOOTH",
"386 -6 OFFCURVE",
"452 16 OFFCURVE",
"509 53 CURVE",
"539 17 OFFCURVE",
"575 -10 OFFCURVE",
"620 -10 CURVE SMOOTH",
"667 -10 OFFCURVE",
"715 14 OFFCURVE",
"715 74 CURVE SMOOTH",
"715 104 OFFCURVE",
"694 129 OFFCURVE",
"668 141 CURVE",
"670 133 OFFCURVE",
"671 125 OFFCURVE",
"671 118 CURVE SMOOTH",
"671 94 OFFCURVE",
"658 77 OFFCURVE",
"629 77 CURVE SMOOTH",
"610 77 OFFCURVE",
"592 90 OFFCURVE",
"575 108 CURVE",
"648 185 OFFCURVE",
"694 292 OFFCURVE",
"694 407 CURVE SMOOTH",
"694 447 OFFCURVE",
"678 480 OFFCURVE",
"643 497 CURVE",
"633 501 OFFCURVE",
"622 503 OFFCURVE",
"611 503 CURVE SMOOTH",
"582 503 OFFCURVE",
"550 489 OFFCURVE",
"536 469 CURVE",
"536 469 OFFCURVE",
"543 451 OFFCURVE",
"543 425 CURVE SMOOTH",
"543 356 OFFCURVE",
"527 278 OFFCURVE",
"496 215 CURVE",
"466 253 OFFCURVE",
"433 285 OFFCURVE",
"392 285 CURVE SMOOTH",
"375 285 OFFCURVE",
"358 279 OFFCURVE",
"345 268 CURVE"
);
}
);
width = 729;
}
);
unicode = 0051;
},
{
glyphname = R;
layers = (
{
anchors = (
{
name = class0;
position = "{355, 761}";
},
{
name = class1;
position = "{335, 0}";
}
);
layerId = "D6BACC31-AA00-4837-BF4A-0C7E591D0F9E";
name = Bold;
paths = (
{
closed = 1;
nodes = (
"199 479 LINE",
"153 485 OFFCURVE",
"118 505 OFFCURVE",
"118 543 CURVE SMOOTH",
"118 633 OFFCURVE",
"230 669 OFFCURVE",
"313 670 CURVE SMOOTH",
"434 672 OFFCURVE",
"522 609 OFFCURVE",
"516 523 CURVE SMOOTH",
"511 454 OFFCURVE",
"458 403 OFFCURVE",
"376 404 CURVE",
"365 319 LINE",
"422 315 OFFCURVE",
"443 300 OFFCURVE",
"445 175 CURVE SMOOTH",
"446 109 OFFCURVE",
"454 -6 OFFCURVE",
"576 -6 CURVE SMOOTH",
"634 -6 OFFCURVE",
"735 13 OFFCURVE",
"779 166 CURVE",
"777 172 OFFCURVE",
"757 198 OFFCURVE",
"747 215 CURVE",
"717 124 OFFCURVE",
"679 78 OFFCURVE",
"631 76 CURVE SMOOTH",
"582 74 OFFCURVE",
"584 116 OFFCURVE",
"583 220 CURVE SMOOTH",
"582 294 OFFCURVE",
"567 334 OFFCURVE",
"506 346 CURVE",
"613 375 OFFCURVE",
"652 467 OFFCURVE",
"656 527 CURVE SMOOTH",
"663 633 OFFCURVE",
"585 761 OFFCURVE",
"341 761 CURVE SMOOTH",
"170 761 OFFCURVE",
"30 689 OFFCURVE",
"30 543 CURVE SMOOTH",
"30 459 OFFCURVE",
"110 408 OFFCURVE",
"185 404 CURVE"
);
},
{
closed = 1;
nodes = (
"378 617 LINE",
"364 620 OFFCURVE",
"343 623 OFFCURVE",
"328 623 CURVE SMOOTH",
"291 623 OFFCURVE",
"258 612 OFFCURVE",
"233 596 CURVE",
"228 564 OFFCURVE",
"211 426 OFFCURVE",
"196 309 CURVE",
"92 261 OFFCURVE",
"18 196 OFFCURVE",
"17 108 CURVE SMOOTH",
"16 43 OFFCURVE",
"62 -6 OFFCURVE",
"134 -6 CURVE SMOOTH",
"219 -6 OFFCURVE",
"292 38 OFFCURVE",
"315 190 CURVE SMOOTH"
);
},
{
closed = 1;
nodes = (
"98 85 OFFCURVE",
"90 104 OFFCURVE",
"91 121 CURVE SMOOTH",
"93 155 OFFCURVE",
"127 191 OFFCURVE",
"185 225 CURVE",
"176 157 LINE SMOOTH",
"167 98 OFFCURVE",
"143 85 OFFCURVE",
"125 85 CURVE SMOOTH"
);
}
);
width = 669;
}
);
unicode = 0052;
},
{
glyphname = S;
layers = (
{
anchors = (
{
name = class0;
position = "{344, 761}";
},
{
name = class1;
position = "{226, 0}";
}
);
layerId = "D6BACC31-AA00-4837-BF4A-0C7E591D0F9E";
name = Bold;
paths = (
{
closed = 1;
nodes = (
"493 504 LINE",
"511 539 OFFCURVE",
"523 574 OFFCURVE",
"523 607 CURVE SMOOTH",
"523 693 OFFCURVE",
"464 763 OFFCURVE",
"346 763 CURVE SMOOTH",
"227 763 OFFCURVE",
"139 684 OFFCURVE",
"139 586 CURVE SMOOTH",
"139 536 OFFCURVE",
"174 464 OFFCURVE",
"207 399 CURVE",
"108 347 OFFCURVE",
"40 274 OFFCURVE",
"40 176 CURVE SMOOTH",
"40 87 OFFCURVE",
"102 -6 OFFCURVE",
"230 -6 CURVE SMOOTH",
"338 -6 OFFCURVE",
"444 70 OFFCURVE",
"444 194 CURVE SMOOTH",
"444 275 OFFCURVE",
"413 330 OFFCURVE",
"355 438 CURVE SMOOTH",
"340 466 OFFCURVE",
"288 558 OFFCURVE",
"288 601 CURVE SMOOTH",
"288 653 OFFCURVE",
"324 673 OFFCURVE",
"367 673 CURVE SMOOTH",
"418 673 OFFCURVE",
"448 636 OFFCURVE",
"448 594 CURVE SMOOTH",
"448 563 OFFCURVE",
"434 528 OFFCURVE",
"418 504 CURVE"
);
},
{
closed = 1;
nodes = (
"173 86 OFFCURVE",
"129 123 OFFCURVE",
"129 186 CURVE SMOOTH",
"129 222 OFFCURVE",
"145 282 OFFCURVE",
"241 332 CURVE",
"275 266 OFFCURVE",
"303 221 OFFCURVE",
"303 174 CURVE SMOOTH",
"303 115 OFFCURVE",
"272 84 OFFCURVE",
"218 85 CURVE SMOOTH"
);
}
);
width = 488;
}
);
leftKerningGroup = S;
unicode = 0053;
},
{
glyphname = Scaron;
layers = (
{
layerId = "D6BACC31-AA00-4837-BF4A-0C7E591D0F9E";
name = Bold;
paths = (
{
closed = 1;
nodes = (
"405 822 LINE",
"524 980 LINE",
"444 980 LINE",
"357 897 LINE",
"270 980 LINE",
"190 980 LINE",
"299 822 LINE"
);
},
{
closed = 1;
nodes = (
"493 504 LINE",
"511 539 OFFCURVE",
"523 574 OFFCURVE",
"523 607 CURVE SMOOTH",
"523 693 OFFCURVE",
"464 763 OFFCURVE",
"346 763 CURVE SMOOTH",
"227 763 OFFCURVE",
"139 684 OFFCURVE",
"139 586 CURVE SMOOTH",
"139 536 OFFCURVE",
"174 464 OFFCURVE",
"207 399 CURVE",
"108 347 OFFCURVE",
"40 274 OFFCURVE",
"40 176 CURVE SMOOTH",
"40 87 OFFCURVE",
"102 -6 OFFCURVE",
"230 -6 CURVE SMOOTH",
"338 -6 OFFCURVE",
"444 70 OFFCURVE",
"444 194 CURVE SMOOTH",
"444 275 OFFCURVE",
"413 330 OFFCURVE",
"355 438 CURVE SMOOTH",
"340 466 OFFCURVE",
"288 558 OFFCURVE",
"288 601 CURVE SMOOTH",
"288 653 OFFCURVE",
"324 673 OFFCURVE",
"367 673 CURVE SMOOTH",
"418 673 OFFCURVE",
"448 636 OFFCURVE",
"448 594 CURVE SMOOTH",
"448 563 OFFCURVE",
"434 528 OFFCURVE",
"418 504 CURVE"
);
},
{
closed = 1;
nodes = (
"173 86 OFFCURVE",
"129 123 OFFCURVE",
"129 186 CURVE SMOOTH",
"129 222 OFFCURVE",
"145 282 OFFCURVE",
"241 332 CURVE",
"275 266 OFFCURVE",
"303 221 OFFCURVE",
"303 174 CURVE SMOOTH",
"303 115 OFFCURVE",
"272 84 OFFCURVE",
"218 85 CURVE SMOOTH"
);
}
);
width = 488;
}
);
unicode = 0160;
},
{
glyphname = T;
layers = (
{
anchors = (
{
name = class0;
position = "{322, 761}";
},
{
name = class1;
position = "{156, 0}";
}
);
layerId = "D6BACC31-AA00-4837-BF4A-0C7E591D0F9E";
name = Bold;
paths = (
{
closed = 1;
nodes = (
"457 762 OFFCURVE",
"258 761 OFFCURVE",
"164 761 CURVE SMOOTH",
"88 761 OFFCURVE",
"0 729 OFFCURVE",
"0 642 CURVE SMOOTH",
"0 575 OFFCURVE",
"44 536 OFFCURVE",
"113 536 CURVE SMOOTH",
"173 536 OFFCURVE",
"232 581 OFFCURVE",
"260 642 CURVE",
"472 641 LINE SMOOTH",
"533 641 OFFCURVE",
"575 691 OFFCURVE",
"561 761 CURVE"
);
},
{
closed = 1;
nodes = (
"112 595 OFFCURVE",
"93 600 OFFCURVE",
"93 616 CURVE SMOOTH",
"93 631 OFFCURVE",
"103 642 OFFCURVE",
"130 642 CURVE SMOOTH",
"195 642 LINE",
"175 612 OFFCURVE",
"144 595 OFFCURVE",
"125 595 CURVE SMOOTH"
);
},
{
closed = 1;
nodes = (
"397 599 LINE",
"383 602 OFFCURVE",
"364 604 OFFCURVE",
"349 604 CURVE SMOOTH",
"312 604 OFFCURVE",
"279 594 OFFCURVE",
"254 578 CURVE",
"219 312 LINE",
"116 264 OFFCURVE",
"41 199 OFFCURVE",
"41 112 CURVE SMOOTH",
"41 46 OFFCURVE",
"87 -4 OFFCURVE",
"160 -4 CURVE SMOOTH",
"242 -4 OFFCURVE",
"318 40 OFFCURVE",
"337 192 CURVE SMOOTH"
);
},
{
closed = 1;
nodes = (
"124 87 OFFCURVE",
"115 106 OFFCURVE",
"115 123 CURVE SMOOTH",
"115 157 OFFCURVE",
"149 193 OFFCURVE",
"208 227 CURVE",
"200 164 LINE SMOOTH",
"192 105 OFFCURVE",
"171 87 OFFCURVE",
"150 87 CURVE SMOOTH"
);
}
);
width = 404;
}
);
leftKerningGroup = F;
rightKerningGroup = F;
unicode = 0054;
},
{
glyphname = U;
layers = (
{
anchors = (
{
name = class0;
position = "{331, 761}";
},
{
name = class1;
position = "{0, 0}";
}
);
layerId = "D6BACC31-AA00-4837-BF4A-0C7E591D0F9E";
name = Bold;
paths = (
{
closed = 1;
nodes = (
"381 223 LINE SMOOTH",
"370 127 OFFCURVE",
"336 85 OFFCURVE",
"276 85 CURVE SMOOTH",
"224 85 OFFCURVE",
"203 124 OFFCURVE",
"203 172 CURVE SMOOTH",
"203 179 OFFCURVE",
"203 186 OFFCURVE",
"204 193 CURVE SMOOTH",
"255 584 LINE SMOOTH",
"257 601 OFFCURVE",
"258 617 OFFCURVE",
"258 631 CURVE SMOOTH",
"258 729 OFFCURVE",
"206 761 OFFCURVE",
"135 761 CURVE SMOOTH",
"58 761 OFFCURVE",
"0 709 OFFCURVE",
"0 624 CURVE SMOOTH",
"0 555 OFFCURVE",
"38 502 OFFCURVE",
"99 459 CURVE",
"71 225 LINE SMOOTH",
"69 210 OFFCURVE",
"68 196 OFFCURVE",
"68 183 CURVE SMOOTH",
"68 62 OFFCURVE",
"138 -6 OFFCURVE",
"263 -6 CURVE SMOOTH",
"338 -6 OFFCURVE",
"385 14 OFFCURVE",
"427 67 CURVE",
"430 67 LINE",
"447 21 OFFCURVE",
"484 -6 OFFCURVE",
"536 -6 CURVE SMOOTH",
"640 -6 OFFCURVE",
"701 95 OFFCURVE",
"742 253 CURVE",
"729 260 OFFCURVE",
"685 288 OFFCURVE",
"685 288 CURVE",
"673 247 OFFCURVE",
"635 98 OFFCURVE",
"565 98 CURVE SMOOTH",
"532 98 OFFCURVE",
"516 123 OFFCURVE",
"516 154 CURVE SMOOTH",
"516 178 OFFCURVE",
"515 161 OFFCURVE",
"589 753 CURVE",
"582 756 OFFCURVE",
"558 761 OFFCURVE",
"534 761 CURVE SMOOTH",
"506 761 OFFCURVE",
"449 749 OFFCURVE",
"441 738 CURVE"
);
},
{
closed = 1;
nodes = (
"110 546 LINE",
"81 571 OFFCURVE",
"64 598 OFFCURVE",
"64 626 CURVE SMOOTH",
"64 631 OFFCURVE",
"65 669 OFFCURVE",
"98 669 CURVE SMOOTH",
"115 669 OFFCURVE",
"120 657 OFFCURVE",
"120 637 CURVE",
"119 620 OFFCURVE",
"116 597 OFFCURVE",
"113 572 CURVE SMOOTH"
);
}
);
width = 602;
}
);
unicode = 0055;
},
{
glyphname = Uacute;
layers = (
{
layerId = "D6BACC31-AA00-4837-BF4A-0C7E591D0F9E";
name = Bold;
paths = (
{
closed = 1;
nodes = (
"274 830 LINE",
"280 823 OFFCURVE",
"298 801 OFFCURVE",
"312 793 CURVE",
"492 926 LINE",
"473 954 OFFCURVE",
"430 1003 OFFCURVE",
"401 1017 CURVE"
);
},
{
closed = 1;
nodes = (
"381 223 LINE SMOOTH",
"370 127 OFFCURVE",
"336 85 OFFCURVE",
"276 85 CURVE SMOOTH",
"224 85 OFFCURVE",
"203 124 OFFCURVE",
"203 172 CURVE SMOOTH",
"203 179 OFFCURVE",
"203 186 OFFCURVE",
"204 193 CURVE SMOOTH",
"255 584 LINE SMOOTH",
"257 601 OFFCURVE",
"258 617 OFFCURVE",
"258 631 CURVE SMOOTH",
"258 729 OFFCURVE",
"206 761 OFFCURVE",
"135 761 CURVE SMOOTH",
"58 761 OFFCURVE",
"0 709 OFFCURVE",
"0 624 CURVE SMOOTH",
"0 555 OFFCURVE",
"38 502 OFFCURVE",
"99 459 CURVE",
"71 225 LINE SMOOTH",
"69 210 OFFCURVE",
"68 196 OFFCURVE",
"68 183 CURVE SMOOTH",
"68 62 OFFCURVE",
"138 -6 OFFCURVE",
"263 -6 CURVE SMOOTH",
"338 -6 OFFCURVE",
"385 14 OFFCURVE",
"427 67 CURVE",
"430 67 LINE",
"447 21 OFFCURVE",
"484 -6 OFFCURVE",
"536 -6 CURVE SMOOTH",
"640 -6 OFFCURVE",
"701 95 OFFCURVE",
"742 253 CURVE",
"729 260 OFFCURVE",
"685 288 OFFCURVE",
"685 288 CURVE",
"673 247 OFFCURVE",
"635 98 OFFCURVE",
"565 98 CURVE SMOOTH",
"532 98 OFFCURVE",
"516 123 OFFCURVE",
"516 154 CURVE SMOOTH",
"516 178 OFFCURVE",
"515 161 OFFCURVE",
"589 753 CURVE",
"582 756 OFFCURVE",
"558 761 OFFCURVE",
"534 761 CURVE SMOOTH",
"506 761 OFFCURVE",
"449 749 OFFCURVE",
"441 738 CURVE"
);
},
{
closed = 1;
nodes = (
"110 546 LINE",
"81 571 OFFCURVE",
"64 598 OFFCURVE",
"64 626 CURVE SMOOTH",
"64 631 OFFCURVE",
"65 669 OFFCURVE",
"98 669 CURVE SMOOTH",
"115 669 OFFCURVE",
"120 657 OFFCURVE",
"120 637 CURVE",
"119 620 OFFCURVE",
"116 597 OFFCURVE",
"113 572 CURVE SMOOTH"
);
}
);
width = 602;
}
);
unicode = 00DA;
},
{
glyphname = Ucircumflex;
layers = (
{
layerId = "D6BACC31-AA00-4837-BF4A-0C7E591D0F9E";
name = Bold;
paths = (
{
closed = 1;
nodes = (
"343 980 LINE",
"169 859 LINE",
"177 844 OFFCURVE",
"193 815 OFFCURVE",
"202 801 CURVE",
"343 874 LINE",
"484 801 LINE",
"493 815 OFFCURVE",
"509 844 OFFCURVE",
"517 859 CURVE"
);
},
{
closed = 1;
nodes = (
"381 223 LINE SMOOTH",
"370 127 OFFCURVE",
"336 85 OFFCURVE",
"276 85 CURVE SMOOTH",
"224 85 OFFCURVE",
"203 124 OFFCURVE",
"203 172 CURVE SMOOTH",
"203 179 OFFCURVE",
"203 186 OFFCURVE",
"204 193 CURVE SMOOTH",
"255 584 LINE SMOOTH",
"257 601 OFFCURVE",
"258 617 OFFCURVE",
"258 631 CURVE SMOOTH",
"258 729 OFFCURVE",
"206 761 OFFCURVE",
"135 761 CURVE SMOOTH",
"58 761 OFFCURVE",
"0 709 OFFCURVE",
"0 624 CURVE SMOOTH",
"0 555 OFFCURVE",
"38 502 OFFCURVE",
"99 459 CURVE",
"71 225 LINE SMOOTH",
"69 210 OFFCURVE",
"68 196 OFFCURVE",
"68 183 CURVE SMOOTH",
"68 62 OFFCURVE",
"138 -6 OFFCURVE",
"263 -6 CURVE SMOOTH",
"338 -6 OFFCURVE",
"385 14 OFFCURVE",
"427 67 CURVE",
"430 67 LINE",
"447 21 OFFCURVE",
"484 -6 OFFCURVE",
"536 -6 CURVE SMOOTH",
"640 -6 OFFCURVE",
"701 95 OFFCURVE",
"742 253 CURVE",
"729 260 OFFCURVE",
"685 288 OFFCURVE",
"685 288 CURVE",
"673 247 OFFCURVE",
"635 98 OFFCURVE",
"565 98 CURVE SMOOTH",
"532 98 OFFCURVE",
"516 123 OFFCURVE",
"516 154 CURVE SMOOTH",
"516 178 OFFCURVE",
"515 161 OFFCURVE",
"589 753 CURVE",
"582 756 OFFCURVE",
"558 761 OFFCURVE",
"534 761 CURVE SMOOTH",
"506 761 OFFCURVE",
"449 749 OFFCURVE",
"441 738 CURVE"
);
},
{
closed = 1;
nodes = (
"110 546 LINE",
"81 571 OFFCURVE",
"64 598 OFFCURVE",
"64 626 CURVE SMOOTH",
"64 631 OFFCURVE",
"65 669 OFFCURVE",
"98 669 CURVE SMOOTH",
"115 669 OFFCURVE",
"120 657 OFFCURVE",
"120 637 CURVE",
"119 620 OFFCURVE",
"116 597 OFFCURVE",
"113 572 CURVE SMOOTH"
);
}
);
width = 602;
}
);
unicode = 00DB;
},
{
glyphname = Udieresis;
layers = (
{
layerId = "D6BACC31-AA00-4837-BF4A-0C7E591D0F9E";
name = Bold;
paths = (
{
closed = 1;
nodes = (
"179 957 OFFCURVE",
"149 924 OFFCURVE",
"149 884 CURVE SMOOTH",
"149 844 OFFCURVE",
"179 812 OFFCURVE",
"221 812 CURVE SMOOTH",
"260 812 OFFCURVE",
"292 844 OFFCURVE",
"292 884 CURVE SMOOTH",
"292 924 OFFCURVE",
"260 957 OFFCURVE",
"221 957 CURVE SMOOTH"
);
},
{
closed = 1;
nodes = (
"421 957 OFFCURVE",
"388 924 OFFCURVE",
"388 884 CURVE SMOOTH",
"388 844 OFFCURVE",
"421 812 OFFCURVE",
"461 812 CURVE SMOOTH",
"502 812 OFFCURVE",
"533 844 OFFCURVE",
"533 884 CURVE SMOOTH",
"533 924 OFFCURVE",
"502 957 OFFCURVE",
"461 957 CURVE SMOOTH"
);
},
{
closed = 1;
nodes = (
"381 223 LINE SMOOTH",
"370 127 OFFCURVE",
"336 85 OFFCURVE",
"276 85 CURVE SMOOTH",
"224 85 OFFCURVE",
"203 124 OFFCURVE",
"203 172 CURVE SMOOTH",
"203 179 OFFCURVE",
"203 186 OFFCURVE",
"204 193 CURVE SMOOTH",
"255 584 LINE SMOOTH",
"257 601 OFFCURVE",
"258 617 OFFCURVE",
"258 631 CURVE SMOOTH",
"258 729 OFFCURVE",
"206 761 OFFCURVE",
"135 761 CURVE SMOOTH",
"58 761 OFFCURVE",
"0 709 OFFCURVE",
"0 624 CURVE SMOOTH",
"0 555 OFFCURVE",
"38 502 OFFCURVE",
"99 459 CURVE",
"71 225 LINE SMOOTH",
"69 210 OFFCURVE",
"68 196 OFFCURVE",
"68 183 CURVE SMOOTH",
"68 62 OFFCURVE",
"138 -6 OFFCURVE",
"263 -6 CURVE SMOOTH",
"338 -6 OFFCURVE",
"385 14 OFFCURVE",
"427 67 CURVE",
"430 67 LINE",
"447 21 OFFCURVE",
"484 -6 OFFCURVE",
"536 -6 CURVE SMOOTH",
"640 -6 OFFCURVE",
"701 95 OFFCURVE",
"742 253 CURVE",
"729 260 OFFCURVE",
"685 288 OFFCURVE",
"685 288 CURVE",
"673 247 OFFCURVE",
"635 98 OFFCURVE",
"565 98 CURVE SMOOTH",
"532 98 OFFCURVE",
"516 123 OFFCURVE",
"516 154 CURVE SMOOTH",
"516 178 OFFCURVE",
"515 161 OFFCURVE",
"589 753 CURVE",
"582 756 OFFCURVE",
"558 761 OFFCURVE",
"534 761 CURVE SMOOTH",
"506 761 OFFCURVE",
"449 749 OFFCURVE",
"441 738 CURVE"
);
},
{
closed = 1;
nodes = (
"110 546 LINE",
"81 571 OFFCURVE",
"64 598 OFFCURVE",
"64 626 CURVE SMOOTH",
"64 631 OFFCURVE",
"65 669 OFFCURVE",
"98 669 CURVE SMOOTH",
"115 669 OFFCURVE",
"120 657 OFFCURVE",
"120 637 CURVE",
"119 620 OFFCURVE",
"116 597 OFFCURVE",
"113 572 CURVE SMOOTH"
);
}
);
width = 602;
}
);
unicode = 00DC;
},
{
glyphname = Ugrave;
layers = (
{
layerId = "D6BACC31-AA00-4837-BF4A-0C7E591D0F9E";
name = Bold;
paths = (
{
closed = 1;
nodes = (
"313 1017 LINE",
"284 1003 OFFCURVE",
"241 954 OFFCURVE",
"222 926 CURVE",
"402 793 LINE",
"416 801 OFFCURVE",
"434 823 OFFCURVE",
"440 830 CURVE"
);
},
{
closed = 1;
nodes = (
"381 223 LINE SMOOTH",
"370 127 OFFCURVE",
"336 85 OFFCURVE",
"276 85 CURVE SMOOTH",
"224 85 OFFCURVE",
"203 124 OFFCURVE",
"203 172 CURVE SMOOTH",
"203 179 OFFCURVE",
"203 186 OFFCURVE",
"204 193 CURVE SMOOTH",
"255 584 LINE SMOOTH",
"257 601 OFFCURVE",
"258 617 OFFCURVE",
"258 631 CURVE SMOOTH",
"258 729 OFFCURVE",
"206 761 OFFCURVE",
"135 761 CURVE SMOOTH",
"58 761 OFFCURVE",
"0 709 OFFCURVE",
"0 624 CURVE SMOOTH",
"0 555 OFFCURVE",
"38 502 OFFCURVE",
"99 459 CURVE",
"71 225 LINE SMOOTH",
"69 210 OFFCURVE",
"68 196 OFFCURVE",
"68 183 CURVE SMOOTH",
"68 62 OFFCURVE",
"138 -6 OFFCURVE",
"263 -6 CURVE SMOOTH",
"338 -6 OFFCURVE",
"385 14 OFFCURVE",
"427 67 CURVE",
"430 67 LINE",
"447 21 OFFCURVE",
"484 -6 OFFCURVE",
"536 -6 CURVE SMOOTH",
"640 -6 OFFCURVE",
"701 95 OFFCURVE",
"742 253 CURVE",
"729 260 OFFCURVE",
"685 288 OFFCURVE",
"685 288 CURVE",
"673 247 OFFCURVE",
"635 98 OFFCURVE",
"565 98 CURVE SMOOTH",
"532 98 OFFCURVE",
"516 123 OFFCURVE",
"516 154 CURVE SMOOTH",
"516 178 OFFCURVE",
"515 161 OFFCURVE",
"589 753 CURVE",
"582 756 OFFCURVE",
"558 761 OFFCURVE",
"534 761 CURVE SMOOTH",
"506 761 OFFCURVE",
"449 749 OFFCURVE",
"441 738 CURVE"
);
},
{
closed = 1;
nodes = (
"110 546 LINE",
"81 571 OFFCURVE",
"64 598 OFFCURVE",
"64 626 CURVE SMOOTH",
"64 631 OFFCURVE",
"65 669 OFFCURVE",
"98 669 CURVE SMOOTH",
"115 669 OFFCURVE",
"120 657 OFFCURVE",
"120 637 CURVE",
"119 620 OFFCURVE",
"116 597 OFFCURVE",
"113 572 CURVE SMOOTH"
);
}
);
width = 602;
}
);
unicode = 00D9;
},
{
glyphname = V;
layers = (
{
layerId = "D6BACC31-AA00-4837-BF4A-0C7E591D0F9E";
name = Bold;
paths = (
{
closed = 1;
nodes = (
"388 161 LINE",
"382 161 LINE",
"371 322 OFFCURVE",
"363 493 OFFCURVE",
"354 589 CURVE SMOOTH",
"340 739 OFFCURVE",
"294 764 OFFCURVE",
"232 765 CURVE SMOOTH",
"150 766 OFFCURVE",
"92 721 OFFCURVE",
"40 595 CURVE SMOOTH",
"28 565 OFFCURVE",
"11 516 OFFCURVE",
"8 506 CURVE",
"27 495 OFFCURVE",
"75 472 OFFCURVE",
"75 472 CURVE",
"91 525 OFFCURVE",
"131 659 OFFCURVE",
"184 659 CURVE SMOOTH",
"212 659 OFFCURVE",
"219 645 OFFCURVE",
"224 587 CURVE SMOOTH",
"229 528 OFFCURVE",
"261 85 OFFCURVE",
"267 0 CURVE",
"433 0 LINE",
"488 145 OFFCURVE",
"554 318 OFFCURVE",
"605 450 CURVE",
"710 499 OFFCURVE",
"791 553 OFFCURVE",
"801 643 CURVE SMOOTH",
"811 727 OFFCURVE",
"753 758 OFFCURVE",
"712 761 CURVE SMOOTH",
"602 769 OFFCURVE",
"573 675 OFFCURVE",
"541 586 CURVE SMOOTH"
);
},
{
closed = 1;
nodes = (
"659 589 OFFCURVE",
"673 624 OFFCURVE",
"681 641 CURVE",
"687 655 OFFCURVE",
"695 664 OFFCURVE",
"707 664 CURVE SMOOTH",
"721 664 OFFCURVE",
"734 653 OFFCURVE",
"734 635 CURVE SMOOTH",
"734 602 OFFCURVE",
"697 571 OFFCURVE",
"640 541 CURVE"
);
}
);
width = 673;
}
);
leftKerningGroup = V;
rightKerningGroup = V;
unicode = 0056;
},
{
glyphname = W;
layers = (
{
anchors = (
{
name = class0;
position = "{464, 761}";
},
{
name = class1;
position = "{0, 0}";
}
);
layerId = "D6BACC31-AA00-4837-BF4A-0C7E591D0F9E";
name = Bold;
paths = (
{
closed = 1;
nodes = (
"351 223 LINE SMOOTH",
"342 152 OFFCURVE",
"319 92 OFFCURVE",
"262 92 CURVE SMOOTH",
"220 92 OFFCURVE",
"210 126 OFFCURVE",
"210 159 CURVE SMOOTH",
"210 171 OFFCURVE",
"211 182 OFFCURVE",
"213 192 CURVE",
"269 600 OFFCURVE",
"275 617 OFFCURVE",
"275 631 CURVE SMOOTH",
"275 729 OFFCURVE",
"216 761 OFFCURVE",
"145 761 CURVE SMOOTH",
"68 761 OFFCURVE",
"0 713 OFFCURVE",
"0 628 CURVE SMOOTH",
"0 560 OFFCURVE",
"43 501 OFFCURVE",
"107 455 CURVE",
"70 173 LINE SMOOTH",
"69 164 OFFCURVE",
"68 155 OFFCURVE",
"68 146 CURVE SMOOTH",
"68 57 OFFCURVE",
"120 -6 OFFCURVE",
"219 -6 CURVE SMOOTH",
"289 -6 OFFCURVE",
"349 22 OFFCURVE",
"386 80 CURVE",
"417 18 OFFCURVE",
"475 -6 OFFCURVE",
"532 -6 CURVE SMOOTH",
"730 -6 OFFCURVE",
"781 219 OFFCURVE",
"806 383 CURVE SMOOTH",
"830 541 OFFCURVE",
"836 631 OFFCURVE",
"838 691 CURVE SMOOTH",
"839 732 OFFCURVE",
"825 762 OFFCURVE",
"782 762 CURVE SMOOTH",
"757 762 OFFCURVE",
"711 753 OFFCURVE",
"686 738 CURVE",
"695 700 OFFCURVE",
"698 652 OFFCURVE",
"697 607 CURVE SMOOTH",
"694 478 OFFCURVE",
"658 91 OFFCURVE",
"537 91 CURVE SMOOTH",
"497 91 OFFCURVE",
"487 126 OFFCURVE",
"487 153 CURVE SMOOTH",
"487 238 OFFCURVE",
"506 281 OFFCURVE",
"557 680 CURVE",
"557 685 OFFCURVE",
"558 689 OFFCURVE",
"558 693 CURVE SMOOTH",
"558 729 OFFCURVE",
"534 743 OFFCURVE",
"494 743 CURVE SMOOTH",
"467 743 OFFCURVE",
"428 734 OFFCURVE",
"415 728 CURVE"
);
},
{
closed = 1;
nodes = (
"118 542 LINE",
"87 572 OFFCURVE",
"68 606 OFFCURVE",
"68 635 CURVE SMOOTH",
"68 655 OFFCURVE",
"77 681 OFFCURVE",
"105 681 CURVE SMOOTH",
"118 681 OFFCURVE",
"128 672 OFFCURVE",
"128 644 CURVE",
"127 624 OFFCURVE",
"126 610 OFFCURVE",
"123 582 CURVE SMOOTH"
);
}
);
width = 827;
}
);
rightKerningGroup = W;
unicode = 0057;
},
{
glyphname = X;
layers = (
{
layerId = "D6BACC31-AA00-4837-BF4A-0C7E591D0F9E";
name = Bold;
paths = (
{
closed = 1;
nodes = (
"417 494 LINE",
"368 648 LINE SMOOTH",
"333 757 OFFCURVE",
"264 777 OFFCURVE",
"214 773 CURVE SMOOTH",
"137 767 OFFCURVE",
"100 723 OFFCURVE",
"83 697 CURVE",
"96 625 LINE",
"114 648 OFFCURVE",
"143 682 OFFCURVE",
"168 687 CURVE SMOOTH",
"215 697 OFFCURVE",
"220 642 OFFCURVE",
"240 584 CURVE",
"307 360 LINE",
"290 335 OFFCURVE",
"274 310 OFFCURVE",
"259 286 CURVE",
"127 260 OFFCURVE",
"10 219 OFFCURVE",
"10 95 CURVE SMOOTH",
"10 31 OFFCURVE",
"67 -6 OFFCURVE",
"116 -6 CURVE SMOOTH",
"194 -6 OFFCURVE",
"236 75 OFFCURVE",
"280 151 CURVE SMOOTH",
"340 253 LINE",
"361 183 LINE SMOOTH",
"411 17 OFFCURVE",
"471 -6 OFFCURVE",
"560 -6 CURVE SMOOTH",
"627 -6 OFFCURVE",
"689 45 OFFCURVE",
"701 63 CURVE",
"688 137 LINE",
"672 125 OFFCURVE",
"642 85 OFFCURVE",
"596 85 CURVE SMOOTH",
"562 85 OFFCURVE",
"546 102 OFFCURVE",
"503 229 CURVE SMOOTH",
"489 270 OFFCURVE",
"472 323 OFFCURVE",
"450 391 CURVE",
"465 415 OFFCURVE",
"483 444 OFFCURVE",
"498 468 CURVE",
"635 494 OFFCURVE",
"750 529 OFFCURVE",
"762 651 CURVE SMOOTH",
"769 722 OFFCURVE",
"709 763 OFFCURVE",
"657 763 CURVE SMOOTH",
"579 763 OFFCURVE",
"530 688 OFFCURVE",
"486 612 CURVE SMOOTH"
);
},
{
closed = 1;
nodes = (
"589 614 OFFCURVE",
"612 659 OFFCURVE",
"651 659 CURVE SMOOTH",
"675 659 OFFCURVE",
"687 647 OFFCURVE",
"687 632 CURVE SMOOTH",
"687 591 OFFCURVE",
"628 566 OFFCURVE",
"549 547 CURVE"
);
},
{
closed = 1;
nodes = (
"98 98 OFFCURVE",
"86 110 OFFCURVE",
"86 125 CURVE SMOOTH",
"86 164 OFFCURVE",
"140 189 OFFCURVE",
"213 207 CURVE",
"175 142 OFFCURVE",
"149 98 OFFCURVE",
"122 98 CURVE SMOOTH"
);
}
);
width = 736;
}
);
unicode = 0058;
},
{
glyphname = Y;
layers = (
{
anchors = (
{
name = class0;
position = "{392, 761}";
},
{
name = class1;
position = "{0, 0}";
}
);
layerId = "D6BACC31-AA00-4837-BF4A-0C7E591D0F9E";
name = Bold;
paths = (
{
closed = 1;
nodes = (
"729 270 LINE",
"712 264 OFFCURVE",
"633 229 OFFCURVE",
"566 198 CURVE",
"633 752 LINE",
"633 752 OFFCURVE",
"611 762 OFFCURVE",
"583 762 CURVE SMOOTH",
"545 762 OFFCURVE",
"485 744 OFFCURVE",
"477 675 CURVE SMOOTH",
"421 164 LINE",
"404 127 OFFCURVE",
"367 91 OFFCURVE",
"324 91 CURVE SMOOTH",
"279 91 OFFCURVE",
"253 123 OFFCURVE",
"253 162 CURVE SMOOTH",
"253 168 OFFCURVE",
"254 173 OFFCURVE",
"255 179 CURVE",
"268 288 OFFCURVE",
"306 545 OFFCURVE",
"312 626 CURVE",
"312 632 OFFCURVE",
"313 637 OFFCURVE",
"313 643 CURVE SMOOTH",
"313 732 OFFCURVE",
"236 762 OFFCURVE",
"182 762 CURVE SMOOTH",
"123 762 OFFCURVE",
"25 732 OFFCURVE",
"25 596 CURVE SMOOTH",
"25 514 OFFCURVE",
"72 452 OFFCURVE",
"148 404 CURVE",
"116 158 LINE SMOOTH",
"115 150 OFFCURVE",
"114 143 OFFCURVE",
"114 136 CURVE SMOOTH",
"114 60 OFFCURVE",
"170 9 OFFCURVE",
"237 -3 CURVE",
"211 -35 OFFCURVE",
"195 -73 OFFCURVE",
"195 -116 CURVE SMOOTH",
"195 -203 OFFCURVE",
"254 -274 OFFCURVE",
"343 -274 CURVE SMOOTH",
"413 -274 OFFCURVE",
"514 -238 OFFCURVE",
"532 -87 CURVE SMOOTH",
"557 117 LINE",
"644 158 OFFCURVE",
"698 181 OFFCURVE",
"744 200 CURVE"
);
},
{
closed = 1;
nodes = (
"158 488 LINE",
"111 520 OFFCURVE",
"92 565 OFFCURVE",
"92 603 CURVE SMOOTH",
"92 644 OFFCURVE",
"114 681 OFFCURVE",
"147 681 CURVE SMOOTH",
"179 681 OFFCURVE",
"177 647 OFFCURVE",
"177 632 CURVE"
);
},
{
closed = 1;
nodes = (
"299 -175 OFFCURVE",
"271 -153 OFFCURVE",
"271 -106 CURVE SMOOTH",
"271 -46 OFFCURVE",
"328 1 OFFCURVE",
"408 45 CURVE",
"390 -112 LINE SMOOTH",
"384 -155 OFFCURVE",
"355 -175 OFFCURVE",
"327 -175 CURVE SMOOTH"
);
}
);
width = 644;
}
);
unicode = 0059;
},
{
glyphname = Yacute;
layers = (
{
layerId = "D6BACC31-AA00-4837-BF4A-0C7E591D0F9E";
name = Bold;
paths = (
{
closed = 1;
nodes = (
"335 830 LINE",
"341 823 OFFCURVE",
"359 801 OFFCURVE",
"373 793 CURVE",
"553 926 LINE",
"534 954 OFFCURVE",
"491 1003 OFFCURVE",
"462 1017 CURVE"
);
},
{
closed = 1;
nodes = (
"729 270 LINE",
"712 264 OFFCURVE",
"633 229 OFFCURVE",
"566 198 CURVE",
"633 752 LINE",
"633 752 OFFCURVE",
"611 762 OFFCURVE",
"583 762 CURVE SMOOTH",
"545 762 OFFCURVE",
"485 744 OFFCURVE",
"477 675 CURVE SMOOTH",
"421 164 LINE",
"404 127 OFFCURVE",
"367 91 OFFCURVE",
"324 91 CURVE SMOOTH",
"279 91 OFFCURVE",
"253 123 OFFCURVE",
"253 162 CURVE SMOOTH",
"253 168 OFFCURVE",
"254 173 OFFCURVE",
"255 179 CURVE",
"268 288 OFFCURVE",
"306 545 OFFCURVE",
"312 626 CURVE",
"312 632 OFFCURVE",
"313 637 OFFCURVE",
"313 643 CURVE SMOOTH",
"313 732 OFFCURVE",
"236 762 OFFCURVE",
"182 762 CURVE SMOOTH",
"123 762 OFFCURVE",
"25 732 OFFCURVE",
"25 596 CURVE SMOOTH",
"25 514 OFFCURVE",
"72 452 OFFCURVE",
"148 404 CURVE",
"116 158 LINE SMOOTH",
"115 150 OFFCURVE",
"114 143 OFFCURVE",
"114 136 CURVE SMOOTH",
"114 60 OFFCURVE",
"170 9 OFFCURVE",
"237 -3 CURVE",
"211 -35 OFFCURVE",
"195 -73 OFFCURVE",
"195 -116 CURVE SMOOTH",
"195 -203 OFFCURVE",
"254 -274 OFFCURVE",
"343 -274 CURVE SMOOTH",
"413 -274 OFFCURVE",
"514 -238 OFFCURVE",
"532 -87 CURVE SMOOTH",
"557 117 LINE",
"644 158 OFFCURVE",
"698 181 OFFCURVE",
"744 200 CURVE"
);
},
{
closed = 1;
nodes = (
"158 488 LINE",
"111 520 OFFCURVE",
"92 565 OFFCURVE",
"92 603 CURVE SMOOTH",
"92 644 OFFCURVE",
"114 681 OFFCURVE",
"147 681 CURVE SMOOTH",
"179 681 OFFCURVE",
"177 647 OFFCURVE",
"177 632 CURVE"
);
},
{
closed = 1;
nodes = (
"390 -112 LINE SMOOTH",
"384 -155 OFFCURVE",
"355 -175 OFFCURVE",
"327 -175 CURVE SMOOTH",
"299 -175 OFFCURVE",
"271 -153 OFFCURVE",
"271 -106 CURVE SMOOTH",
"271 -46 OFFCURVE",
"328 1 OFFCURVE",
"408 45 CURVE"
);
}
);
width = 644;
}
);
unicode = 00DD;
},
{
glyphname = Ydieresis;
layers = (
{
layerId = "D6BACC31-AA00-4837-BF4A-0C7E591D0F9E";
name = Bold;
paths = (
{
closed = 1;
nodes = (
"240 957 OFFCURVE",
"210 924 OFFCURVE",
"210 884 CURVE SMOOTH",
"210 844 OFFCURVE",
"240 812 OFFCURVE",
"282 812 CURVE SMOOTH",
"321 812 OFFCURVE",
"353 844 OFFCURVE",
"353 884 CURVE SMOOTH",
"353 924 OFFCURVE",
"321 957 OFFCURVE",
"282 957 CURVE SMOOTH"
);
},
{
closed = 1;
nodes = (
"482 957 OFFCURVE",
"449 924 OFFCURVE",
"449 884 CURVE SMOOTH",
"449 844 OFFCURVE",
"482 812 OFFCURVE",
"522 812 CURVE SMOOTH",
"563 812 OFFCURVE",
"594 844 OFFCURVE",
"594 884 CURVE SMOOTH",
"594 924 OFFCURVE",
"563 957 OFFCURVE",
"522 957 CURVE SMOOTH"
);
},
{
closed = 1;
nodes = (
"729 270 LINE",
"712 264 OFFCURVE",
"633 229 OFFCURVE",
"566 198 CURVE",
"633 752 LINE",
"633 752 OFFCURVE",
"611 762 OFFCURVE",
"583 762 CURVE SMOOTH",
"545 762 OFFCURVE",
"485 744 OFFCURVE",
"477 675 CURVE SMOOTH",
"421 164 LINE",
"404 127 OFFCURVE",
"367 91 OFFCURVE",
"324 91 CURVE SMOOTH",
"279 91 OFFCURVE",
"253 123 OFFCURVE",
"253 162 CURVE SMOOTH",
"253 168 OFFCURVE",
"254 173 OFFCURVE",
"255 179 CURVE",
"268 288 OFFCURVE",
"306 545 OFFCURVE",
"312 626 CURVE",
"312 632 OFFCURVE",
"313 637 OFFCURVE",
"313 643 CURVE SMOOTH",
"313 732 OFFCURVE",
"236 762 OFFCURVE",
"182 762 CURVE SMOOTH",
"123 762 OFFCURVE",
"25 732 OFFCURVE",
"25 596 CURVE SMOOTH",
"25 514 OFFCURVE",
"72 452 OFFCURVE",
"148 404 CURVE",
"116 158 LINE SMOOTH",
"115 150 OFFCURVE",
"114 143 OFFCURVE",
"114 136 CURVE SMOOTH",
"114 60 OFFCURVE",
"170 9 OFFCURVE",
"237 -3 CURVE",
"211 -35 OFFCURVE",
"195 -73 OFFCURVE",
"195 -116 CURVE SMOOTH",
"195 -203 OFFCURVE",
"254 -274 OFFCURVE",
"343 -274 CURVE SMOOTH",
"413 -274 OFFCURVE",
"514 -238 OFFCURVE",
"532 -87 CURVE SMOOTH",
"557 117 LINE",
"644 158 OFFCURVE",
"698 181 OFFCURVE",
"744 200 CURVE"
);
},
{
closed = 1;
nodes = (
"158 488 LINE",
"111 520 OFFCURVE",
"92 565 OFFCURVE",
"92 603 CURVE SMOOTH",
"92 644 OFFCURVE",
"114 681 OFFCURVE",
"147 681 CURVE SMOOTH",
"179 681 OFFCURVE",
"177 647 OFFCURVE",
"177 632 CURVE"
);
},
{
closed = 1;
nodes = (
"390 -112 LINE SMOOTH",
"384 -155 OFFCURVE",
"355 -175 OFFCURVE",
"327 -175 CURVE SMOOTH",
"299 -175 OFFCURVE",
"271 -153 OFFCURVE",
"271 -106 CURVE SMOOTH",
"271 -46 OFFCURVE",
"328 1 OFFCURVE",
"408 45 CURVE"
);
}
);
width = 644;
}
);
unicode = 0178;
},
{
glyphname = Z;
layers = (
{
anchors = (
{
name = class0;
position = "{328, 761}";
},
{
name = class1;
position = "{0, 0}";
}
);
layerId = "D6BACC31-AA00-4837-BF4A-0C7E591D0F9E";
name = Bold;
paths = (
{
closed = 1;
nodes = (
"210 119 LINE",
"567 670 LINE",
"570 674 OFFCURVE",
"573 679 OFFCURVE",
"576 684 CURVE",
"577 686 LINE SMOOTH",
"578 688 OFFCURVE",
"579 690 OFFCURVE",
"580 692 CURVE",
"587 712 OFFCURVE",
"589 736 OFFCURVE",
"581 761 CURVE",
"183 761 LINE SMOOTH",
"71 761 OFFCURVE",
"30 691 OFFCURVE",
"30 633 CURVE SMOOTH",
"30 571 OFFCURVE",
"76 518 OFFCURVE",
"170 518 CURVE SMOOTH",
"245 520 OFFCURVE",
"318 572 OFFCURVE",
"353 642 CURVE",
"387 642 LINE",
"40 109 LINE",
"11 70 OFFCURVE",
"21 21 OFFCURVE",
"29 0 CURVE",
"437 0 LINE SMOOTH",
"549 0 OFFCURVE",
"590 70 OFFCURVE",
"590 128 CURVE SMOOTH",
"590 190 OFFCURVE",
"544 243 OFFCURVE",
"450 243 CURVE SMOOTH",
"375 241 OFFCURVE",
"302 189 OFFCURVE",
"267 119 CURVE"
);
},
{
closed = 1;
nodes = (
"283 642 LINE",
"256 604 OFFCURVE",
"215 580 OFFCURVE",
"175 580 CURVE SMOOTH",
"135 580 OFFCURVE",
"117 593 OFFCURVE",
"117 611 CURVE SMOOTH",
"117 636 OFFCURVE",
"147 642 OFFCURVE",
"182 642 CURVE SMOOTH"
);
},
{
closed = 1;
nodes = (
"337 119 LINE",
"364 157 OFFCURVE",
"405 181 OFFCURVE",
"445 181 CURVE SMOOTH",
"485 181 OFFCURVE",
"503 168 OFFCURVE",
"503 150 CURVE SMOOTH",
"503 125 OFFCURVE",
"473 119 OFFCURVE",
"438 119 CURVE SMOOTH"
);
}
);
width = 535;
}
);
unicode = 005A;
},
{
glyphname = Zcaron;
layers = (
{
layerId = "D6BACC31-AA00-4837-BF4A-0C7E591D0F9E";
name = Bold;
paths = (
{
closed = 1;
nodes = (
"389 822 LINE",
"508 980 LINE",
"428 980 LINE",
"341 897 LINE",
"254 980 LINE",
"174 980 LINE",
"283 822 LINE"
);
},
{
closed = 1;
nodes = (
"210 119 LINE",
"567 670 LINE",
"570 674 OFFCURVE",
"573 679 OFFCURVE",
"576 684 CURVE",
"577 686 LINE",
"580 692 LINE",
"587 712 OFFCURVE",
"589 736 OFFCURVE",
"581 761 CURVE",
"183 761 LINE SMOOTH",
"71 761 OFFCURVE",
"30 691 OFFCURVE",
"30 633 CURVE SMOOTH",
"30 571 OFFCURVE",
"76 518 OFFCURVE",
"170 518 CURVE SMOOTH",
"245 520 OFFCURVE",
"318 572 OFFCURVE",
"353 642 CURVE",
"387 642 LINE",
"40 109 LINE",
"11 70 OFFCURVE",
"21 21 OFFCURVE",
"29 0 CURVE",
"437 0 LINE SMOOTH",
"549 0 OFFCURVE",
"590 70 OFFCURVE",
"590 128 CURVE SMOOTH",
"590 190 OFFCURVE",
"544 243 OFFCURVE",
"450 243 CURVE SMOOTH",
"375 241 OFFCURVE",
"302 189 OFFCURVE",
"267 119 CURVE"
);
},
{
closed = 1;
nodes = (
"283 642 LINE",
"256 604 OFFCURVE",
"215 580 OFFCURVE",
"175 580 CURVE SMOOTH",
"135 580 OFFCURVE",
"117 593 OFFCURVE",
"117 611 CURVE SMOOTH",
"117 636 OFFCURVE",
"147 642 OFFCURVE",
"182 642 CURVE SMOOTH"
);
},
{
closed = 1;
nodes = (
"337 119 LINE",
"364 157 OFFCURVE",
"405 181 OFFCURVE",
"445 181 CURVE SMOOTH",
"485 181 OFFCURVE",
"503 168 OFFCURVE",
"503 150 CURVE SMOOTH",
"503 125 OFFCURVE",
"473 119 OFFCURVE",
"438 119 CURVE SMOOTH"
);
}
);
width = 535;
}
);
unicode = 017D;
},
{
glyphname = a;
layers = (
{
anchors = (
{
name = class0;
position = "{324, 481}";
},
{
name = class1;
position = "{0, 0}";
}
);
layerId = "D6BACC31-AA00-4837-BF4A-0C7E591D0F9E";
name = Bold;
paths = (
{
closed = 1;
nodes = (
"583 120 OFFCURVE",
"540 86 OFFCURVE",
"511 86 CURVE SMOOTH",
"496 86 OFFCURVE",
"479 95 OFFCURVE",
"479 126 CURVE SMOOTH",
"479 171 OFFCURVE",
"491 233 OFFCURVE",
"521 471 CURVE",
"506 480 OFFCURVE",
"493 481 OFFCURVE",
"465 481 CURVE SMOOTH",
"440 481 OFFCURVE",
"416 474 OFFCURVE",
"400 464 CURVE",
"378 473 OFFCURVE",
"347 481 OFFCURVE",
"308 481 CURVE SMOOTH",
"147 483 OFFCURVE",
"30 371 OFFCURVE",
"30 194 CURVE SMOOTH",
"30 68 OFFCURVE",
"122 -6 OFFCURVE",
"215 -6 CURVE SMOOTH",
"270 -6 OFFCURVE",
"319 13 OFFCURVE",
"356 59 CURVE",
"375 19 OFFCURVE",
"417 -5 OFFCURVE",
"478 -5 CURVE SMOOTH",
"526 -5 OFFCURVE",
"610 24 OFFCURVE",
"653 167 CURVE",
"648 182 OFFCURVE",
"638 203 OFFCURVE",
"613 225 CURVE"
);
},
{
closed = 1;
nodes = (
"349 175 LINE",
"325 108 OFFCURVE",
"290 86 OFFCURVE",
"254 86 CURVE SMOOTH",
"211 86 OFFCURVE",
"165 121 OFFCURVE",
"171 210 CURVE SMOOTH",
"180 339 OFFCURVE",
"233 403 OFFCURVE",
"317 403 CURVE SMOOTH",
"337 403 OFFCURVE",
"356 398 OFFCURVE",
"373 391 CURVE"
);
}
);
width = 548;
}
);
leftKerningGroup = a;
unicode = 0061;
},
{
glyphname = aacute;
layers = (
{
layerId = "D6BACC31-AA00-4837-BF4A-0C7E591D0F9E";
name = Bold;
paths = (
{
closed = 1;
nodes = (
"267 550 LINE",
"273 543 OFFCURVE",
"291 521 OFFCURVE",
"305 513 CURVE",
"485 646 LINE",
"466 674 OFFCURVE",
"423 723 OFFCURVE",
"394 737 CURVE"
);
},
{
closed = 1;
nodes = (
"583 120 OFFCURVE",
"540 86 OFFCURVE",
"511 86 CURVE SMOOTH",
"496 86 OFFCURVE",
"479 95 OFFCURVE",
"479 126 CURVE SMOOTH",
"479 171 OFFCURVE",
"491 233 OFFCURVE",
"521 471 CURVE",
"506 480 OFFCURVE",
"493 481 OFFCURVE",
"465 481 CURVE SMOOTH",
"440 481 OFFCURVE",
"416 474 OFFCURVE",
"400 464 CURVE",
"378 473 OFFCURVE",
"347 481 OFFCURVE",
"308 481 CURVE SMOOTH",
"147 483 OFFCURVE",
"30 371 OFFCURVE",
"30 194 CURVE SMOOTH",
"30 68 OFFCURVE",
"122 -6 OFFCURVE",
"215 -6 CURVE SMOOTH",
"270 -6 OFFCURVE",
"319 13 OFFCURVE",
"356 59 CURVE",
"375 19 OFFCURVE",
"417 -5 OFFCURVE",
"478 -5 CURVE SMOOTH",
"526 -5 OFFCURVE",
"610 24 OFFCURVE",
"653 167 CURVE",
"648 182 OFFCURVE",
"638 203 OFFCURVE",
"613 225 CURVE"
);
},
{
closed = 1;
nodes = (
"349 175 LINE",
"325 108 OFFCURVE",
"290 86 OFFCURVE",
"254 86 CURVE SMOOTH",
"211 86 OFFCURVE",
"165 121 OFFCURVE",
"171 210 CURVE SMOOTH",
"180 339 OFFCURVE",
"233 403 OFFCURVE",
"317 403 CURVE SMOOTH",
"337 403 OFFCURVE",
"356 398 OFFCURVE",
"373 391 CURVE"
);
}
);
width = 548;
}
);
leftKerningGroup = a;
unicode = 00E1;
},
{
glyphname = acircumflex;
layers = (
{
layerId = "D6BACC31-AA00-4837-BF4A-0C7E591D0F9E";
name = Bold;
paths = (
{
closed = 1;
nodes = (
"336 700 LINE",
"162 579 LINE",
"170 564 OFFCURVE",
"186 535 OFFCURVE",
"195 521 CURVE",
"336 594 LINE",
"477 521 LINE",
"486 535 OFFCURVE",
"502 564 OFFCURVE",
"510 579 CURVE"
);
},
{
closed = 1;
nodes = (
"583 120 OFFCURVE",
"540 86 OFFCURVE",
"511 86 CURVE SMOOTH",
"496 86 OFFCURVE",
"479 95 OFFCURVE",
"479 126 CURVE SMOOTH",
"479 171 OFFCURVE",
"491 233 OFFCURVE",
"521 471 CURVE",
"506 480 OFFCURVE",
"493 481 OFFCURVE",
"465 481 CURVE SMOOTH",
"440 481 OFFCURVE",
"416 474 OFFCURVE",
"400 464 CURVE",
"378 473 OFFCURVE",
"347 481 OFFCURVE",
"308 481 CURVE SMOOTH",
"147 483 OFFCURVE",
"30 371 OFFCURVE",
"30 194 CURVE SMOOTH",
"30 68 OFFCURVE",
"122 -6 OFFCURVE",
"215 -6 CURVE SMOOTH",
"270 -6 OFFCURVE",
"319 13 OFFCURVE",
"356 59 CURVE",
"375 19 OFFCURVE",
"417 -5 OFFCURVE",
"478 -5 CURVE SMOOTH",
"526 -5 OFFCURVE",
"610 24 OFFCURVE",
"653 167 CURVE",
"648 182 OFFCURVE",
"638 203 OFFCURVE",
"613 225 CURVE"
);
},
{
closed = 1;
nodes = (
"349 175 LINE",
"325 108 OFFCURVE",
"290 86 OFFCURVE",
"254 86 CURVE SMOOTH",
"211 86 OFFCURVE",
"165 121 OFFCURVE",
"171 210 CURVE SMOOTH",
"180 339 OFFCURVE",
"233 403 OFFCURVE",
"317 403 CURVE SMOOTH",
"337 403 OFFCURVE",
"356 398 OFFCURVE",
"373 391 CURVE"
);
}
);
width = 548;
}
);
leftKerningGroup = a;
unicode = 00E2;
},
{
glyphname = adieresis;
layers = (
{
layerId = "D6BACC31-AA00-4837-BF4A-0C7E591D0F9E";
name = Bold;
paths = (
{
closed = 1;
nodes = (
"253 532 OFFCURVE",
"285 564 OFFCURVE",
"285 604 CURVE SMOOTH",
"285 644 OFFCURVE",
"253 677 OFFCURVE",
"214 677 CURVE SMOOTH",
"172 677 OFFCURVE",
"142 644 OFFCURVE",
"142 604 CURVE SMOOTH",
"142 564 OFFCURVE",
"172 532 OFFCURVE",
"214 532 CURVE SMOOTH"
);
},
{
closed = 1;
nodes = (
"495 532 OFFCURVE",
"526 564 OFFCURVE",
"526 604 CURVE SMOOTH",
"526 644 OFFCURVE",
"495 677 OFFCURVE",
"454 677 CURVE SMOOTH",
"414 677 OFFCURVE",
"381 644 OFFCURVE",
"381 604 CURVE SMOOTH",
"381 564 OFFCURVE",
"414 532 OFFCURVE",
"454 532 CURVE SMOOTH"
);
},
{
closed = 1;
nodes = (
"583 120 OFFCURVE",
"540 86 OFFCURVE",
"511 86 CURVE SMOOTH",
"496 86 OFFCURVE",
"479 95 OFFCURVE",
"479 126 CURVE SMOOTH",
"479 171 OFFCURVE",
"491 233 OFFCURVE",
"521 471 CURVE",
"506 480 OFFCURVE",
"493 481 OFFCURVE",
"465 481 CURVE SMOOTH",
"440 481 OFFCURVE",
"416 474 OFFCURVE",
"400 464 CURVE",
"378 473 OFFCURVE",
"347 481 OFFCURVE",
"308 481 CURVE SMOOTH",
"147 483 OFFCURVE",
"30 371 OFFCURVE",
"30 194 CURVE SMOOTH",
"30 68 OFFCURVE",
"122 -6 OFFCURVE",
"215 -6 CURVE SMOOTH",
"270 -6 OFFCURVE",
"319 13 OFFCURVE",
"356 59 CURVE",
"375 19 OFFCURVE",
"417 -5 OFFCURVE",
"478 -5 CURVE SMOOTH",
"526 -5 OFFCURVE",
"610 24 OFFCURVE",
"653 167 CURVE",
"648 182 OFFCURVE",
"638 203 OFFCURVE",
"613 225 CURVE"
);
},
{
closed = 1;
nodes = (
"349 175 LINE",
"325 108 OFFCURVE",
"290 86 OFFCURVE",
"254 86 CURVE SMOOTH",
"211 86 OFFCURVE",
"165 121 OFFCURVE",
"171 210 CURVE SMOOTH",
"180 339 OFFCURVE",
"233 403 OFFCURVE",
"317 403 CURVE SMOOTH",
"337 403 OFFCURVE",
"356 398 OFFCURVE",
"373 391 CURVE"
);
}
);
width = 548;
}
);
leftKerningGroup = a;
unicode = 00E4;
},
{
glyphname = agrave;
layers = (
{
layerId = "D6BACC31-AA00-4837-BF4A-0C7E591D0F9E";
name = Bold;
paths = (
{
closed = 1;
nodes = (
"306 737 LINE",
"277 723 OFFCURVE",
"234 674 OFFCURVE",
"215 646 CURVE",
"395 513 LINE",
"409 521 OFFCURVE",
"427 543 OFFCURVE",
"433 550 CURVE"
);
},
{
closed = 1;
nodes = (
"583 120 OFFCURVE",
"540 86 OFFCURVE",
"511 86 CURVE SMOOTH",
"496 86 OFFCURVE",
"479 95 OFFCURVE",
"479 126 CURVE SMOOTH",
"479 171 OFFCURVE",
"491 233 OFFCURVE",
"521 471 CURVE",
"506 480 OFFCURVE",
"493 481 OFFCURVE",
"465 481 CURVE SMOOTH",
"440 481 OFFCURVE",
"416 474 OFFCURVE",
"400 464 CURVE",
"378 473 OFFCURVE",
"347 481 OFFCURVE",
"308 481 CURVE SMOOTH",
"147 483 OFFCURVE",
"30 371 OFFCURVE",
"30 194 CURVE SMOOTH",
"30 68 OFFCURVE",
"122 -6 OFFCURVE",
"215 -6 CURVE SMOOTH",
"270 -6 OFFCURVE",
"319 13 OFFCURVE",
"356 59 CURVE",
"375 19 OFFCURVE",
"417 -5 OFFCURVE",
"478 -5 CURVE SMOOTH",
"526 -5 OFFCURVE",
"610 24 OFFCURVE",
"653 167 CURVE",
"648 182 OFFCURVE",
"638 203 OFFCURVE",
"613 225 CURVE"
);
},
{
closed = 1;
nodes = (
"349 175 LINE",
"325 108 OFFCURVE",
"290 86 OFFCURVE",
"254 86 CURVE SMOOTH",
"211 86 OFFCURVE",
"165 121 OFFCURVE",
"171 210 CURVE SMOOTH",
"180 339 OFFCURVE",
"233 403 OFFCURVE",
"317 403 CURVE SMOOTH",
"337 403 OFFCURVE",
"356 398 OFFCURVE",
"373 391 CURVE"
);
}
);
width = 548;
}
);
leftKerningGroup = a;
unicode = 00E0;
},
{
glyphname = aring;
layers = (
{
layerId = "D6BACC31-AA00-4837-BF4A-0C7E591D0F9E";
name = Bold;
paths = (
{
closed = 1;
nodes = (
"583 120 OFFCURVE",
"540 86 OFFCURVE",
"511 86 CURVE SMOOTH",
"496 86 OFFCURVE",
"479 95 OFFCURVE",
"479 126 CURVE SMOOTH",
"479 171 OFFCURVE",
"491 233 OFFCURVE",
"521 471 CURVE",
"506 480 OFFCURVE",
"493 481 OFFCURVE",
"465 481 CURVE SMOOTH",
"440 481 OFFCURVE",
"416 474 OFFCURVE",
"400 464 CURVE",
"393 466 OFFCURVE",
"386 469 OFFCURVE",
"377 471 CURVE",
"407 490 OFFCURVE",
"426 523 OFFCURVE",
"426 560 CURVE SMOOTH",
"426 618 OFFCURVE",
"379 665 OFFCURVE",
"321 665 CURVE SMOOTH",
"263 665 OFFCURVE",
"216 618 OFFCURVE",
"216 560 CURVE SMOOTH",
"216 527 OFFCURVE",
"232 497 OFFCURVE",
"256 478 CURVE",
"122 457 OFFCURVE",
"30 351 OFFCURVE",
"30 194 CURVE SMOOTH",
"30 68 OFFCURVE",
"122 -6 OFFCURVE",
"215 -6 CURVE SMOOTH",
"270 -6 OFFCURVE",
"319 13 OFFCURVE",
"356 59 CURVE",
"375 19 OFFCURVE",
"417 -5 OFFCURVE",
"478 -5 CURVE SMOOTH",
"526 -5 OFFCURVE",
"610 24 OFFCURVE",
"653 167 CURVE",
"648 182 OFFCURVE",
"638 203 OFFCURVE",
"613 225 CURVE"
);
},
{
closed = 1;
nodes = (
"348 609 OFFCURVE",
"370 587 OFFCURVE",
"370 560 CURVE SMOOTH",
"370 533 OFFCURVE",
"348 511 OFFCURVE",
"321 511 CURVE SMOOTH",
"294 511 OFFCURVE",
"272 533 OFFCURVE",
"272 560 CURVE SMOOTH",
"272 587 OFFCURVE",
"294 609 OFFCURVE",
"321 609 CURVE SMOOTH"
);
},
{
closed = 1;
nodes = (
"349 175 LINE",
"325 108 OFFCURVE",
"290 86 OFFCURVE",
"254 86 CURVE SMOOTH",
"211 86 OFFCURVE",
"165 121 OFFCURVE",
"171 210 CURVE SMOOTH",
"180 339 OFFCURVE",
"233 403 OFFCURVE",
"317 403 CURVE SMOOTH",
"337 403 OFFCURVE",
"356 398 OFFCURVE",
"373 391 CURVE"
);
}
);
width = 548;
}
);
leftKerningGroup = a;
unicode = 00E5;
},
{
glyphname = atilde;
layers = (
{
layerId = "D6BACC31-AA00-4837-BF4A-0C7E591D0F9E";
name = Bold;
paths = (
{
closed = 1;
nodes = (
"518 697 LINE",
"504 663 OFFCURVE",
"479 629 OFFCURVE",
"444 629 CURVE SMOOTH",
"394 629 OFFCURVE",
"348 696 OFFCURVE",
"275 699 CURVE SMOOTH",
"205 702 OFFCURVE",
"163 635 OFFCURVE",
"147 566 CURVE",
"191 540 LINE",
"213 586 OFFCURVE",
"233 601 OFFCURVE",
"265 599 CURVE SMOOTH",
"314 596 OFFCURVE",
"356 524 OFFCURVE",
"432 524 CURVE SMOOTH",
"504 524 OFFCURVE",
"550 590 OFFCURVE",
"562 672 CURVE"
);
},
{
closed = 1;
nodes = (
"583 120 OFFCURVE",
"540 86 OFFCURVE",
"511 86 CURVE SMOOTH",
"496 86 OFFCURVE",
"479 95 OFFCURVE",
"479 126 CURVE SMOOTH",
"479 171 OFFCURVE",
"491 233 OFFCURVE",
"521 471 CURVE",
"506 480 OFFCURVE",
"493 481 OFFCURVE",
"465 481 CURVE SMOOTH",
"440 481 OFFCURVE",
"416 474 OFFCURVE",
"400 464 CURVE",
"378 473 OFFCURVE",
"347 481 OFFCURVE",
"308 481 CURVE SMOOTH",
"147 483 OFFCURVE",
"30 371 OFFCURVE",
"30 194 CURVE SMOOTH",
"30 68 OFFCURVE",
"122 -6 OFFCURVE",
"215 -6 CURVE SMOOTH",
"270 -6 OFFCURVE",
"319 13 OFFCURVE",
"356 59 CURVE",
"375 19 OFFCURVE",
"417 -5 OFFCURVE",
"478 -5 CURVE SMOOTH",
"526 -5 OFFCURVE",
"610 24 OFFCURVE",
"653 167 CURVE",
"648 182 OFFCURVE",
"638 203 OFFCURVE",
"613 225 CURVE"
);
},
{
closed = 1;
nodes = (
"349 175 LINE",
"325 108 OFFCURVE",
"290 86 OFFCURVE",
"254 86 CURVE SMOOTH",
"211 86 OFFCURVE",
"165 121 OFFCURVE",
"171 210 CURVE SMOOTH",
"180 339 OFFCURVE",
"233 403 OFFCURVE",
"317 403 CURVE SMOOTH",
"337 403 OFFCURVE",
"356 398 OFFCURVE",
"373 391 CURVE"
);
}
);
width = 548;
}
);
leftKerningGroup = a;
unicode = 00E3;
},
{
glyphname = ae;
layers = (
{
anchors = (
{
name = class0;
position = "{507, 481}";
},
{
name = class1;
position = "{0, 0}";
}
);
layerId = "D6BACC31-AA00-4837-BF4A-0C7E591D0F9E";
name = Bold;
paths = (
{
closed = 1;
nodes = (
"572 165 LINE",
"708 189 OFFCURVE",
"802 251 OFFCURVE",
"802 357 CURVE",
"800 434 OFFCURVE",
"730 481 OFFCURVE",
"628 481 CURVE SMOOTH",
"594 481 OFFCURVE",
"561 474 OFFCURVE",
"530 462 CURVE",
"531 471 LINE",
"516 480 OFFCURVE",
"503 481 OFFCURVE",
"475 481 CURVE SMOOTH",
"450 481 OFFCURVE",
"426 474 OFFCURVE",
"410 464 CURVE",
"388 473 OFFCURVE",
"357 481 OFFCURVE",
"318 481 CURVE SMOOTH",
"157 483 OFFCURVE",
"40 371 OFFCURVE",
"40 194 CURVE SMOOTH",
"40 68 OFFCURVE",
"132 -6 OFFCURVE",
"225 -6 CURVE SMOOTH",
"294 -6 OFFCURVE",
"354 25 OFFCURVE",
"393 102 CURVE",
"427 39 OFFCURVE",
"491 -6 OFFCURVE",
"585 -6 CURVE SMOOTH",
"757 -6 OFFCURVE",
"879 128 OFFCURVE",
"920 220 CURVE",
"913 232 OFFCURVE",
"901 252 OFFCURVE",
"880 272 CURVE",
"822 159 OFFCURVE",
"728 90 OFFCURVE",
"635 84 CURVE SMOOTH",
"555 79 OFFCURVE",
"504 135 OFFCURVE",
"504 218 CURVE SMOOTH",
"504 334 OFFCURVE",
"564 403 OFFCURVE",
"618 405 CURVE SMOOTH",
"645 406 OFFCURVE",
"681 394 OFFCURVE",
"681 351 CURVE SMOOTH",
"681 305 OFFCURVE",
"648 243 OFFCURVE",
"558 224 CURVE"
);
},
{
closed = 1;
nodes = (
"369 268 LINE",
"367 255 OFFCURVE",
"365 241 OFFCURVE",
"365 227 CURVE",
"359 175 LINE",
"335 108 OFFCURVE",
"300 86 OFFCURVE",
"264 86 CURVE SMOOTH",
"221 86 OFFCURVE",
"175 121 OFFCURVE",
"181 210 CURVE SMOOTH",
"190 339 OFFCURVE",
"243 403 OFFCURVE",
"327 403 CURVE SMOOTH",
"347 403 OFFCURVE",
"366 398 OFFCURVE",
"383 391 CURVE"
);
}
);
width = 1014;
}
);
leftKerningGroup = a;
unicode = 00E6;
},
{
glyphname = b;
layers = (
{
layerId = "D6BACC31-AA00-4837-BF4A-0C7E591D0F9E";
name = Bold;
paths = (
{
closed = 1;
nodes = (
"242 715 LINE",
"242 751 OFFCURVE",
"200 761 OFFCURVE",
"162 761 CURVE SMOOTH",
"138 761 OFFCURVE",
"114 756 OFFCURVE",
"106 753 CURVE",
"100 707 OFFCURVE",
"61 359 OFFCURVE",
"49 266 CURVE SMOOTH",
"41 207 OFFCURVE",
"38 178 OFFCURVE",
"36 138 CURVE SMOOTH",
"34 92 OFFCURVE",
"71 0 OFFCURVE",
"212 -6 CURVE",
"374 -6 OFFCURVE",
"486 84 OFFCURVE",
"501 262 CURVE SMOOTH",
"512 391 OFFCURVE",
"420 482 OFFCURVE",
"319 482 CURVE SMOOTH",
"276 482 OFFCURVE",
"238 470 OFFCURVE",
"208 449 CURVE"
);
},
{
closed = 1;
nodes = (
"192 322 LINE",
"207 356 OFFCURVE",
"234 390 OFFCURVE",
"279 390 CURVE SMOOTH",
"336 390 OFFCURVE",
"366 333 OFFCURVE",
"360 257 CURVE SMOOTH",
"352 150 OFFCURVE",
"305 83 OFFCURVE",
"237 83 CURVE SMOOTH",
"200 83 OFFCURVE",
"167 102 OFFCURVE",
"171 150 CURVE SMOOTH",
"173 172 OFFCURVE",
"177 209 OFFCURVE",
"184 262 CURVE SMOOTH"
);
}
);
width = 512;
}
);
leftKerningGroup = a;
unicode = 0062;
},
{
glyphname = c;
layers = (
{
anchors = (
{
name = class0;
position = "{295, 481}";
},
{
name = class1;
position = "{246, 0}";
}
);
layerId = "D6BACC31-AA00-4837-BF4A-0C7E591D0F9E";
name = Bold;
paths = (
{
closed = 1;
nodes = (
"173 481 OFFCURVE",
"36 382 OFFCURVE",
"36 214 CURVE SMOOTH",
"36 82 OFFCURVE",
"131 -9 OFFCURVE",
"254 -6 CURVE SMOOTH",
"440 -1 OFFCURVE",
"562 159 OFFCURVE",
"590 216 CURVE",
"579 239 OFFCURVE",
"567 259 OFFCURVE",
"551 271 CURVE",
"490 164 OFFCURVE",
"384 87 OFFCURVE",
"298 83 CURVE SMOOTH",
"223 80 OFFCURVE",
"172 135 OFFCURVE",
"175 238 CURVE SMOOTH",
"178 330 OFFCURVE",
"232 402 OFFCURVE",
"285 404 CURVE SMOOTH",
"335 406 OFFCURVE",
"349 368 OFFCURVE",
"345 327 CURVE SMOOTH",
"343 306 OFFCURVE",
"337 283 OFFCURVE",
"331 262 CURVE",
"375 262 OFFCURVE",
"462 291 OFFCURVE",
"462 365 CURVE SMOOTH",
"462 433 OFFCURVE",
"400 481 OFFCURVE",
"295 481 CURVE SMOOTH"
);
}
);
width = 469;
}
);
leftKerningGroup = a;
unicode = 0063;
},
{
glyphname = ccedilla;
layers = (
{
layerId = "D6BACC31-AA00-4837-BF4A-0C7E591D0F9E";
name = Bold;
paths = (
{
closed = 1;
nodes = (
"196 -71 LINE",
"201 -70 OFFCURVE",
"211 -70 OFFCURVE",
"226 -70 CURVE SMOOTH",
"265 -70 OFFCURVE",
"296 -89 OFFCURVE",
"296 -129 CURVE SMOOTH",
"296 -156 OFFCURVE",
"278 -184 OFFCURVE",
"241 -184 CURVE SMOOTH",
"215 -184 OFFCURVE",
"180 -161 OFFCURVE",
"169 -144 CURVE",
"151 -182 LINE",
"168 -206 OFFCURVE",
"200 -225 OFFCURVE",
"242 -229 CURVE SMOOTH",
"314 -236 OFFCURVE",
"369 -186 OFFCURVE",
"369 -125 CURVE SMOOTH",
"369 -60 OFFCURVE",
"317 -32 OFFCURVE",
"273 -32 CURVE",
"267 -33 LINE",
"278 -5 LINE",
"450 13 OFFCURVE",
"563 161 OFFCURVE",
"590 216 CURVE",
"579 239 OFFCURVE",
"567 259 OFFCURVE",
"551 271 CURVE",
"490 164 OFFCURVE",
"384 87 OFFCURVE",
"298 83 CURVE SMOOTH",
"223 80 OFFCURVE",
"172 135 OFFCURVE",
"175 238 CURVE SMOOTH",
"178 330 OFFCURVE",
"232 402 OFFCURVE",
"285 404 CURVE SMOOTH",
"335 406 OFFCURVE",
"349 368 OFFCURVE",
"345 327 CURVE SMOOTH",
"343 306 OFFCURVE",
"337 283 OFFCURVE",
"331 262 CURVE",
"375 262 OFFCURVE",
"462 291 OFFCURVE",
"462 365 CURVE SMOOTH",
"462 433 OFFCURVE",
"400 481 OFFCURVE",
"295 481 CURVE SMOOTH",
"173 481 OFFCURVE",
"36 382 OFFCURVE",
"36 214 CURVE SMOOTH",
"36 94 OFFCURVE",
"115 8 OFFCURVE",
"221 -5 CURVE"
);
}
);
width = 469;
}
);
leftKerningGroup = a;
unicode = 00E7;
},
{
glyphname = d;
layers = (
{
layerId = "D6BACC31-AA00-4837-BF4A-0C7E591D0F9E";
name = Bold;
paths = (
{
closed = 1;
nodes = (
"385 469 LINE",
"364 476 OFFCURVE",
"339 481 OFFCURVE",
"308 481 CURVE SMOOTH",
"147 483 OFFCURVE",
"30 371 OFFCURVE",
"30 194 CURVE SMOOTH",
"30 68 OFFCURVE",
"122 -6 OFFCURVE",
"215 -6 CURVE SMOOTH",
"269 -6 OFFCURVE",
"318 13 OFFCURVE",
"355 59 CURVE",
"373 21 OFFCURVE",
"411 -5 OFFCURVE",
"474 -5 CURVE SMOOTH",
"512 -5 OFFCURVE",
"609 13 OFFCURVE",
"653 166 CURVE",
"648 181 OFFCURVE",
"639 201 OFFCURVE",
"614 225 CURVE",
"580 117 OFFCURVE",
"538 86 OFFCURVE",
"509 86 CURVE SMOOTH",
"494 86 OFFCURVE",
"479 95 OFFCURVE",
"479 126 CURVE SMOOTH",
"479 171 OFFCURVE",
"527 513 OFFCURVE",
"557 751 CURVE",
"542 760 OFFCURVE",
"529 761 OFFCURVE",
"501 761 CURVE SMOOTH",
"461 761 OFFCURVE",
"424 744 OFFCURVE",
"415 721 CURVE"
);
},
{
closed = 1;
nodes = (
"349 175 LINE",
"325 108 OFFCURVE",
"290 86 OFFCURVE",
"254 86 CURVE SMOOTH",
"211 86 OFFCURVE",
"165 121 OFFCURVE",
"171 210 CURVE SMOOTH",
"180 339 OFFCURVE",
"233 403 OFFCURVE",
"317 403 CURVE SMOOTH",
"337 403 OFFCURVE",
"357 397 OFFCURVE",
"375 390 CURVE"
);
}
);
width = 548;
}
);
leftKerningGroup = a;
unicode = 0064;
},
{
glyphname = eth;
layers = (
{
layerId = "D6BACC31-AA00-4837-BF4A-0C7E591D0F9E";
name = Bold;
paths = (
{
closed = 1;
nodes = (
"648 403 LINE",
"648 480 LINE",
"522 480 LINE",
"534 572 OFFCURVE",
"546 668 OFFCURVE",
"557 751 CURVE",
"542 760 OFFCURVE",
"529 761 OFFCURVE",
"501 761 CURVE SMOOTH",
"461 761 OFFCURVE",
"424 744 OFFCURVE",
"415 721 CURVE",
"386 480 LINE",
"320 481 LINE SMOOTH",
"316 481 OFFCURVE",
"312 481 OFFCURVE",
"308 481 CURVE SMOOTH",
"293 481 LINE SMOOTH",
"288 481 OFFCURVE",
"283 481 OFFCURVE",
"278 481 CURVE",
"278 480 LINE",
"133 468 OFFCURVE",
"30 360 OFFCURVE",
"30 194 CURVE SMOOTH",
"30 68 OFFCURVE",
"122 -6 OFFCURVE",
"215 -6 CURVE SMOOTH",
"269 -6 OFFCURVE",
"318 13 OFFCURVE",
"355 59 CURVE",
"373 21 OFFCURVE",
"411 -5 OFFCURVE",
"474 -5 CURVE SMOOTH",
"512 -5 OFFCURVE",
"609 13 OFFCURVE",
"653 166 CURVE",
"648 181 OFFCURVE",
"639 201 OFFCURVE",
"614 225 CURVE",
"580 117 OFFCURVE",
"538 86 OFFCURVE",
"509 86 CURVE SMOOTH",
"494 86 OFFCURVE",
"479 95 OFFCURVE",
"479 126 CURVE SMOOTH",
"479 151 OFFCURVE",
"494 265 OFFCURVE",
"512 403 CURVE",
"534 403 OFFCURVE",
"555 403 OFFCURVE",
"574 403 CURVE SMOOTH"
);
},
{
closed = 1;
nodes = (
"349 175 LINE",
"325 108 OFFCURVE",
"290 86 OFFCURVE",
"254 86 CURVE SMOOTH",
"211 86 OFFCURVE",
"165 121 OFFCURVE",
"171 210 CURVE SMOOTH",
"180 339 OFFCURVE",
"233 403 OFFCURVE",
"317 403 CURVE SMOOTH",
"337 403 OFFCURVE",
"357 397 OFFCURVE",
"375 390 CURVE"
);
}
);
width = 600;
}
);
leftKerningGroup = a;
unicode = 00F0;
},
{
glyphname = e;
layers = (
{
anchors = (
{
name = class0;
position = "{283, 481}";
},
{
name = class1;
position = "{253, 0}";
}
);
layerId = "D6BACC31-AA00-4837-BF4A-0C7E591D0F9E";
name = Bold;
paths = (
{
closed = 1;
nodes = (
"233 165 LINE",
"369 189 OFFCURVE",
"463 251 OFFCURVE",
"463 357 CURVE",
"461 434 OFFCURVE",
"391 481 OFFCURVE",
"289 481 CURVE SMOOTH",
"149 481 OFFCURVE",
"19 365 OFFCURVE",
"26 205 CURVE SMOOTH",
"31 94 OFFCURVE",
"106 -6 OFFCURVE",
"246 -6 CURVE SMOOTH",
"418 -6 OFFCURVE",
"540 128 OFFCURVE",
"581 220 CURVE",
"574 232 OFFCURVE",
"562 252 OFFCURVE",
"541 272 CURVE",
"483 159 OFFCURVE",
"389 90 OFFCURVE",
"296 84 CURVE SMOOTH",
"216 79 OFFCURVE",
"165 135 OFFCURVE",
"165 218 CURVE SMOOTH",
"165 334 OFFCURVE",
"225 403 OFFCURVE",
"279 405 CURVE SMOOTH",
"306 406 OFFCURVE",
"342 394 OFFCURVE",
"342 351 CURVE SMOOTH",
"342 305 OFFCURVE",
"309 243 OFFCURVE",
"219 224 CURVE"
);
}
);
width = 466;
}
);
leftKerningGroup = a;
unicode = 0065;
},
{
glyphname = eacute;
layers = (
{
layerId = "D6BACC31-AA00-4837-BF4A-0C7E591D0F9E";
name = Bold;
paths = (
{
closed = 1;
nodes = (
"226 550 LINE",
"232 543 OFFCURVE",
"250 521 OFFCURVE",
"264 513 CURVE",
"444 646 LINE",
"425 674 OFFCURVE",
"382 723 OFFCURVE",
"353 737 CURVE"
);
},
{
closed = 1;
nodes = (
"233 165 LINE",
"369 189 OFFCURVE",
"463 251 OFFCURVE",
"463 357 CURVE",
"461 434 OFFCURVE",
"391 481 OFFCURVE",
"289 481 CURVE SMOOTH",
"149 481 OFFCURVE",
"19 365 OFFCURVE",
"26 205 CURVE SMOOTH",
"31 94 OFFCURVE",
"106 -6 OFFCURVE",
"246 -6 CURVE SMOOTH",
"418 -6 OFFCURVE",
"540 128 OFFCURVE",
"581 220 CURVE",
"574 232 OFFCURVE",
"562 252 OFFCURVE",
"541 272 CURVE",
"483 159 OFFCURVE",
"389 90 OFFCURVE",
"296 84 CURVE SMOOTH",
"216 79 OFFCURVE",
"165 135 OFFCURVE",
"165 218 CURVE SMOOTH",
"165 334 OFFCURVE",
"225 403 OFFCURVE",
"279 405 CURVE SMOOTH",
"306 406 OFFCURVE",
"342 394 OFFCURVE",
"342 351 CURVE SMOOTH",
"342 305 OFFCURVE",
"309 243 OFFCURVE",
"219 224 CURVE"
);
}
);
width = 466;
}
);
leftKerningGroup = a;
unicode = 00E9;
},
{
glyphname = ecircumflex;
layers = (
{
layerId = "D6BACC31-AA00-4837-BF4A-0C7E591D0F9E";
name = Bold;
paths = (
{
closed = 1;
nodes = (
"295 700 LINE",
"121 579 LINE",
"129 564 OFFCURVE",
"145 535 OFFCURVE",
"154 521 CURVE",
"295 594 LINE",
"436 521 LINE",
"445 535 OFFCURVE",
"461 564 OFFCURVE",
"469 579 CURVE"
);
},
{
closed = 1;
nodes = (
"233 165 LINE",
"369 189 OFFCURVE",
"463 251 OFFCURVE",
"463 357 CURVE",
"461 434 OFFCURVE",
"391 481 OFFCURVE",
"289 481 CURVE SMOOTH",
"149 481 OFFCURVE",
"19 365 OFFCURVE",
"26 205 CURVE SMOOTH",
"31 94 OFFCURVE",
"106 -6 OFFCURVE",
"246 -6 CURVE SMOOTH",
"418 -6 OFFCURVE",
"540 128 OFFCURVE",
"581 220 CURVE",
"574 232 OFFCURVE",
"562 252 OFFCURVE",
"541 272 CURVE",
"483 159 OFFCURVE",
"389 90 OFFCURVE",
"296 84 CURVE SMOOTH",
"216 79 OFFCURVE",
"165 135 OFFCURVE",
"165 218 CURVE SMOOTH",
"165 334 OFFCURVE",
"225 403 OFFCURVE",
"279 405 CURVE SMOOTH",
"306 406 OFFCURVE",
"342 394 OFFCURVE",
"342 351 CURVE SMOOTH",
"342 305 OFFCURVE",
"309 243 OFFCURVE",
"219 224 CURVE"
);
}
);
width = 466;
}
);
leftKerningGroup = a;
unicode = 00EA;
},
{
glyphname = edieresis;
layers = (
{
layerId = "D6BACC31-AA00-4837-BF4A-0C7E591D0F9E";
name = Bold;
paths = (
{
closed = 1;
nodes = (
"131 677 OFFCURVE",
"101 644 OFFCURVE",
"101 604 CURVE SMOOTH",
"101 564 OFFCURVE",
"131 532 OFFCURVE",
"173 532 CURVE SMOOTH",
"212 532 OFFCURVE",
"244 564 OFFCURVE",
"244 604 CURVE SMOOTH",
"244 644 OFFCURVE",
"212 677 OFFCURVE",
"173 677 CURVE SMOOTH"
);
},
{
closed = 1;
nodes = (
"373 677 OFFCURVE",
"340 644 OFFCURVE",
"340 604 CURVE SMOOTH",
"340 564 OFFCURVE",
"373 532 OFFCURVE",
"413 532 CURVE SMOOTH",
"454 532 OFFCURVE",
"485 564 OFFCURVE",
"485 604 CURVE SMOOTH",
"485 644 OFFCURVE",
"454 677 OFFCURVE",
"413 677 CURVE SMOOTH"
);
},
{
closed = 1;
nodes = (
"233 165 LINE",
"369 189 OFFCURVE",
"463 251 OFFCURVE",
"463 357 CURVE",
"461 434 OFFCURVE",
"391 481 OFFCURVE",
"289 481 CURVE SMOOTH",
"149 481 OFFCURVE",
"19 365 OFFCURVE",
"26 205 CURVE SMOOTH",
"31 94 OFFCURVE",
"106 -6 OFFCURVE",
"246 -6 CURVE SMOOTH",
"418 -6 OFFCURVE",
"540 128 OFFCURVE",
"581 220 CURVE",
"574 232 OFFCURVE",
"562 252 OFFCURVE",
"541 272 CURVE",
"483 159 OFFCURVE",
"389 90 OFFCURVE",
"296 84 CURVE SMOOTH",
"216 79 OFFCURVE",
"165 135 OFFCURVE",
"165 218 CURVE SMOOTH",
"165 334 OFFCURVE",
"225 403 OFFCURVE",
"279 405 CURVE SMOOTH",
"306 406 OFFCURVE",
"342 394 OFFCURVE",
"342 351 CURVE SMOOTH",
"342 305 OFFCURVE",
"309 243 OFFCURVE",
"219 224 CURVE"
);
}
);
width = 466;
}
);
leftKerningGroup = a;
unicode = 00EB;
},
{
glyphname = egrave;
layers = (
{
layerId = "D6BACC31-AA00-4837-BF4A-0C7E591D0F9E";
name = Bold;
paths = (
{
closed = 1;
nodes = (
"265 737 LINE",
"236 723 OFFCURVE",
"193 674 OFFCURVE",
"174 646 CURVE",
"354 513 LINE",
"368 521 OFFCURVE",
"386 543 OFFCURVE",
"392 550 CURVE"
);
},
{
closed = 1;
nodes = (
"233 165 LINE",
"369 189 OFFCURVE",
"463 251 OFFCURVE",
"463 357 CURVE",
"461 434 OFFCURVE",
"391 481 OFFCURVE",
"289 481 CURVE SMOOTH",
"149 481 OFFCURVE",
"19 365 OFFCURVE",
"26 205 CURVE SMOOTH",
"31 94 OFFCURVE",
"106 -6 OFFCURVE",
"246 -6 CURVE SMOOTH",
"418 -6 OFFCURVE",
"540 128 OFFCURVE",
"581 220 CURVE",
"574 232 OFFCURVE",
"562 252 OFFCURVE",
"541 272 CURVE",
"483 159 OFFCURVE",
"389 90 OFFCURVE",
"296 84 CURVE SMOOTH",
"216 79 OFFCURVE",
"165 135 OFFCURVE",
"165 218 CURVE SMOOTH",
"165 334 OFFCURVE",
"225 403 OFFCURVE",
"279 405 CURVE SMOOTH",
"306 406 OFFCURVE",
"342 394 OFFCURVE",
"342 351 CURVE SMOOTH",
"342 305 OFFCURVE",
"309 243 OFFCURVE",
"219 224 CURVE"
);
}
);
width = 466;
}
);
leftKerningGroup = a;
unicode = 00E8;
},
{
glyphname = f;
layers = (
{
layerId = "D6BACC31-AA00-4837-BF4A-0C7E591D0F9E";
name = Bold;
paths = (
{
closed = 1;
nodes = (
"127 271 LINE",
"126 265 LINE",
"112 283 OFFCURVE",
"100 298 OFFCURVE",
"92 307 CURVE SMOOTH",
"67 336 OFFCURVE",
"29 288 OFFCURVE",
"16 270 CURVE",
"42 238 OFFCURVE",
"78 191 OFFCURVE",
"113 144 CURVE",
"82 -126 LINE SMOOTH",
"81 -135 OFFCURVE",
"78 -165 OFFCURVE",
"78 -174 CURVE SMOOTH",
"78 -258 OFFCURVE",
"141 -304 OFFCURVE",
"215 -304 CURVE SMOOTH",
"299 -304 OFFCURVE",
"367 -248 OFFCURVE",
"357 -144 CURVE SMOOTH",
"352 -98 OFFCURVE",
"330 -49 OFFCURVE",
"303 -1 CURVE",
"394 17 OFFCURVE",
"481 91 OFFCURVE",
"514 247 CURVE",
"511 254 OFFCURVE",
"485 275 OFFCURVE",
"467 285 CURVE",
"430 170 OFFCURVE",
"380 84 OFFCURVE",
"291 84 CURVE SMOOTH",
"269 84 OFFCURVE",
"253 92 OFFCURVE",
"243 103 CURVE",
"268 344 LINE",
"342 407 OFFCURVE",
"439 519 OFFCURVE",
"439 635 CURVE SMOOTH",
"439 713 OFFCURVE",
"396 761 OFFCURVE",
"314 761 CURVE SMOOTH",
"194 761 OFFCURVE",
"172 675 OFFCURVE",
"164 601 CURVE SMOOTH"
);
},
{
closed = 1;
nodes = (
"349 675 OFFCURVE",
"374 670 OFFCURVE",
"374 623 CURVE SMOOTH",
"374 569 OFFCURVE",
"333 498 OFFCURVE",
"278 441 CURVE",
"282 479 LINE SMOOTH",
"298 629 OFFCURVE",
"302 675 OFFCURVE",
"340 675 CURVE SMOOTH"
);
},
{
closed = 1;
nodes = (
"234 -212 OFFCURVE",
"213 -201 OFFCURVE",
"215 -165 CURVE",
"215 -160 OFFCURVE",
"215 -157 OFFCURVE",
"216 -152 CURVE",
"231 -12 LINE",
"264 -60 OFFCURVE",
"294 -115 OFFCURVE",
"294 -157 CURVE SMOOTH",
"294 -198 OFFCURVE",
"271 -212 OFFCURVE",
"249 -212 CURVE SMOOTH"
);
}
);
width = 403;
}
);
unicode = 0066;
},
{
glyphname = g;
layers = (
{
anchors = (
{
name = class0;
position = "{326, 481}";
},
{
name = class1;
position = "{0, 0}";
}
);
layerId = "D6BACC31-AA00-4837-BF4A-0C7E591D0F9E";
name = Bold;
paths = (
{
closed = 1;
nodes = (
"598 295 LINE",
"573 264 OFFCURVE",
"534 228 OFFCURVE",
"486 191 CURVE",
"522 473 LINE",
"511 478 OFFCURVE",
"487 482 OFFCURVE",
"473 482 CURVE SMOOTH",
"451 482 OFFCURVE",
"424 476 OFFCURVE",
"403 463 CURVE",
"380 472 OFFCURVE",
"349 480 OFFCURVE",
"308 481 CURVE SMOOTH",
"147 483 OFFCURVE",
"30 371 OFFCURVE",
"30 194 CURVE SMOOTH",
"30 73 OFFCURVE",
"114 0 OFFCURVE",
"203 -6 CURVE",
"153 -49 OFFCURVE",
"123 -92 OFFCURVE",
"120 -154 CURVE SMOOTH",
"113 -264 OFFCURVE",
"202 -298 OFFCURVE",
"256 -298 CURVE SMOOTH",
"361 -298 OFFCURVE",
"433 -229 OFFCURVE",
"448 -103 CURVE SMOOTH",
"475 106 LINE",
"535 149 OFFCURVE",
"587 192 OFFCURVE",
"627 234 CURVE"
);
},
{
closed = 1;
nodes = (
"180 339 OFFCURVE",
"233 403 OFFCURVE",
"317 403 CURVE SMOOTH",
"337 403 OFFCURVE",
"356 398 OFFCURVE",
"374 391 CURVE",
"349 174 LINE",
"325 108 OFFCURVE",
"289 86 OFFCURVE",
"254 86 CURVE SMOOTH",
"211 86 OFFCURVE",
"165 121 OFFCURVE",
"171 210 CURVE SMOOTH"
);
},
{
closed = 1;
nodes = (
"223 -208 OFFCURVE",
"198 -188 OFFCURVE",
"197 -152 CURVE SMOOTH",
"195 -76 OFFCURVE",
"271 -22 OFFCURVE",
"330 13 CURVE",
"313 -137 LINE SMOOTH",
"306 -194 OFFCURVE",
"277 -208 OFFCURVE",
"248 -208 CURVE SMOOTH"
);
}
);
width = 532;
}
);
leftKerningGroup = a;
unicode = 0067;
},
{
glyphname = h;
layers = (
{
anchors = (
{
name = class0;
position = "{159, 761}";
},
{
name = class1;
position = "{0, 0}";
}
);
layerId = "D6BACC31-AA00-4837-BF4A-0C7E591D0F9E";
name = Bold;
paths = (
{
closed = 1;
nodes = (
"237 715 LINE SMOOTH",
"237 751 OFFCURVE",
"197 761 OFFCURVE",
"159 761 CURVE SMOOTH",
"135 761 OFFCURVE",
"110 756 OFFCURVE",
"102 753 CURVE",
"77 525 OFFCURVE",
"42 231 OFFCURVE",
"15 0 CURVE",
"148 0 LINE",
"156 70 OFFCURVE",
"174 199 OFFCURVE",
"187 309 CURVE",
"199 358 OFFCURVE",
"227 398 OFFCURVE",
"272 398 CURVE SMOOTH",
"309 398 OFFCURVE",
"336 373 OFFCURVE",
"328 313 CURVE SMOOTH",
"324 280 OFFCURVE",
"313 210 OFFCURVE",
"306 125 CURVE SMOOTH",
"301 67 OFFCURVE",
"339 -4 OFFCURVE",
"428 -4 CURVE SMOOTH",
"486 -4 OFFCURVE",
"566 17 OFFCURVE",
"612 170 CURVE",
"607 184 OFFCURVE",
"595 201 OFFCURVE",
"571 227 CURVE",
"545 122 OFFCURVE",
"497 86 OFFCURVE",
"468 86 CURVE SMOOTH",
"453 86 OFFCURVE",
"433 98 OFFCURVE",
"438 139 CURVE SMOOTH",
"450 246 OFFCURVE",
"460 307 OFFCURVE",
"464 339 CURVE SMOOTH",
"477 433 OFFCURVE",
"405 482 OFFCURVE",
"317 481 CURVE SMOOTH",
"271 480 OFFCURVE",
"232 461 OFFCURVE",
"201 433 CURVE",
"208 477 OFFCURVE",
"222 571 OFFCURVE",
"237 709 CURVE"
);
}
);
width = 497;
}
);
leftKerningGroup = h;
unicode = 0068;
},
{
glyphname = i;
layers = (
{
layerId = "D6BACC31-AA00-4837-BF4A-0C7E591D0F9E";
name = Bold;
paths = (
{
closed = 1;
nodes = (
"121 760 OFFCURVE",
"86 724 OFFCURVE",
"86 680 CURVE SMOOTH",
"86 636 OFFCURVE",
"121 601 OFFCURVE",
"165 601 CURVE SMOOTH",
"209 601 OFFCURVE",
"245 636 OFFCURVE",
"245 680 CURVE SMOOTH",
"245 724 OFFCURVE",
"209 760 OFFCURVE",
"165 760 CURVE SMOOTH"
);
},
{
closed = 1;
nodes = (
"32 134 LINE SMOOTH",
"21 41 OFFCURVE",
"79 -9 OFFCURVE",
"163 -7 CURVE SMOOTH",
"257 -5 OFFCURVE",
"320 68 OFFCURVE",
"346 171 CURVE",
"342 185 OFFCURVE",
"315 220 OFFCURVE",
"306 225 CURVE",
"290 163 OFFCURVE",
"251 85 OFFCURVE",
"204 86 CURVE SMOOTH",
"156 87 OFFCURVE",
"166 128 OFFCURVE",
"171 169 CURVE SMOOTH",
"175 204 OFFCURVE",
"182 255 OFFCURVE",
"210 473 CURVE",
"198 477 OFFCURVE",
"182 480 OFFCURVE",
"165 480 CURVE SMOOTH",
"127 480 OFFCURVE",
"82 468 OFFCURVE",
"68 443 CURVE"
);
}
);
width = 231;
}
);
unicode = 0069;
},
{
glyphname = dotlessi;
layers = (
{
anchors = (
{
name = class0;
position = "{135, 481}";
},
{
name = class1;
position = "{0, 0}";
}
);
layerId = "D6BACC31-AA00-4837-BF4A-0C7E591D0F9E";
name = Bold;
paths = (
{
closed = 1;
nodes = (
"31 134 LINE SMOOTH",
"20 41 OFFCURVE",
"78 -9 OFFCURVE",
"162 -7 CURVE SMOOTH",
"256 -5 OFFCURVE",
"319 68 OFFCURVE",
"345 171 CURVE",
"341 185 OFFCURVE",
"314 220 OFFCURVE",
"305 225 CURVE",
"289 163 OFFCURVE",
"250 85 OFFCURVE",
"203 86 CURVE SMOOTH",
"155 87 OFFCURVE",
"165 128 OFFCURVE",
"170 169 CURVE SMOOTH",
"174 204 OFFCURVE",
"181 255 OFFCURVE",
"209 473 CURVE",
"197 477 OFFCURVE",
"181 480 OFFCURVE",
"164 480 CURVE SMOOTH",
"126 480 OFFCURVE",
"81 468 OFFCURVE",
"67 443 CURVE"
);
}
);
width = 230;
}
);
unicode = 0131;
},
{
glyphname = iacute;
layers = (
{
layerId = "D6BACC31-AA00-4837-BF4A-0C7E591D0F9E";
name = Bold;
paths = (
{
closed = 1;
nodes = (
"78 550 LINE",
"84 543 OFFCURVE",
"102 521 OFFCURVE",
"116 513 CURVE",
"296 646 LINE",
"277 674 OFFCURVE",
"234 723 OFFCURVE",
"205 737 CURVE"
);
},
{
closed = 1;
nodes = (
"31 134 LINE SMOOTH",
"20 41 OFFCURVE",
"78 -9 OFFCURVE",
"162 -7 CURVE SMOOTH",
"256 -5 OFFCURVE",
"319 68 OFFCURVE",
"345 171 CURVE",
"341 185 OFFCURVE",
"314 220 OFFCURVE",
"305 225 CURVE",
"289 163 OFFCURVE",
"250 85 OFFCURVE",
"203 86 CURVE SMOOTH",
"155 87 OFFCURVE",
"165 128 OFFCURVE",
"170 169 CURVE SMOOTH",
"174 204 OFFCURVE",
"181 255 OFFCURVE",
"209 473 CURVE",
"197 477 OFFCURVE",
"181 480 OFFCURVE",
"164 480 CURVE SMOOTH",
"126 480 OFFCURVE",
"81 468 OFFCURVE",
"67 443 CURVE"
);
}
);
width = 230;
}
);
unicode = 00ED;
},
{
glyphname = icircumflex;
layers = (
{
layerId = "D6BACC31-AA00-4837-BF4A-0C7E591D0F9E";
name = Bold;
paths = (
{
closed = 1;
nodes = (
"147 700 LINE",
"-27 579 LINE",
"-19 564 OFFCURVE",
"-3 535 OFFCURVE",
"6 521 CURVE",
"147 594 LINE",
"288 521 LINE",
"297 535 OFFCURVE",
"313 564 OFFCURVE",
"321 579 CURVE"
);
},
{
closed = 1;
nodes = (
"31 134 LINE SMOOTH",
"20 41 OFFCURVE",
"78 -9 OFFCURVE",
"162 -7 CURVE SMOOTH",
"256 -5 OFFCURVE",
"319 68 OFFCURVE",
"345 171 CURVE",
"341 185 OFFCURVE",
"314 220 OFFCURVE",
"305 225 CURVE",
"289 163 OFFCURVE",
"250 85 OFFCURVE",
"203 86 CURVE SMOOTH",
"155 87 OFFCURVE",
"165 128 OFFCURVE",
"170 169 CURVE SMOOTH",
"174 204 OFFCURVE",
"181 255 OFFCURVE",
"209 473 CURVE",
"197 477 OFFCURVE",
"181 480 OFFCURVE",
"164 480 CURVE SMOOTH",
"126 480 OFFCURVE",
"81 468 OFFCURVE",
"67 443 CURVE"
);
}
);
width = 230;
}
);
unicode = 00EE;
},
{
glyphname = idieresis;
layers = (
{
layerId = "D6BACC31-AA00-4837-BF4A-0C7E591D0F9E";
name = Bold;
paths = (
{
closed = 1;
nodes = (
"48 706 OFFCURVE",
"19 676 OFFCURVE",
"19 640 CURVE SMOOTH",
"19 604 OFFCURVE",
"48 574 OFFCURVE",
"86 574 CURVE SMOOTH",
"121 574 OFFCURVE",
"150 604 OFFCURVE",
"150 640 CURVE SMOOTH",
"150 676 OFFCURVE",
"121 706 OFFCURVE",
"86 706 CURVE SMOOTH"
);
},
{
closed = 1;
nodes = (
"233 706 OFFCURVE",
"204 676 OFFCURVE",
"204 640 CURVE SMOOTH",
"204 604 OFFCURVE",
"233 574 OFFCURVE",
"269 574 CURVE SMOOTH",
"306 574 OFFCURVE",
"335 604 OFFCURVE",
"335 640 CURVE SMOOTH",
"335 676 OFFCURVE",
"306 706 OFFCURVE",
"269 706 CURVE SMOOTH"
);
},
{
closed = 1;
nodes = (
"31 134 LINE SMOOTH",
"20 41 OFFCURVE",
"78 -9 OFFCURVE",
"162 -7 CURVE SMOOTH",
"256 -5 OFFCURVE",
"319 68 OFFCURVE",
"345 171 CURVE",
"341 185 OFFCURVE",
"314 220 OFFCURVE",
"305 225 CURVE",
"289 163 OFFCURVE",
"250 85 OFFCURVE",
"203 86 CURVE SMOOTH",
"155 87 OFFCURVE",
"165 128 OFFCURVE",
"170 169 CURVE SMOOTH",
"174 204 OFFCURVE",
"181 255 OFFCURVE",
"209 473 CURVE",
"197 477 OFFCURVE",
"181 480 OFFCURVE",
"164 480 CURVE SMOOTH",
"126 480 OFFCURVE",
"81 468 OFFCURVE",
"67 443 CURVE"
);
}
);
width = 230;
}
);
unicode = 00EF;
},
{
glyphname = igrave;
layers = (
{
layerId = "D6BACC31-AA00-4837-BF4A-0C7E591D0F9E";
name = Bold;
paths = (
{
closed = 1;
nodes = (
"117 737 LINE",
"88 723 OFFCURVE",
"45 674 OFFCURVE",
"26 646 CURVE",
"206 513 LINE",
"220 521 OFFCURVE",
"238 543 OFFCURVE",
"244 550 CURVE"
);
},
{
closed = 1;
nodes = (
"31 134 LINE SMOOTH",
"20 41 OFFCURVE",
"78 -9 OFFCURVE",
"162 -7 CURVE SMOOTH",
"256 -5 OFFCURVE",
"319 68 OFFCURVE",
"345 171 CURVE",
"341 185 OFFCURVE",
"314 220 OFFCURVE",
"305 225 CURVE",
"289 163 OFFCURVE",
"250 85 OFFCURVE",
"203 86 CURVE SMOOTH",
"155 87 OFFCURVE",
"165 128 OFFCURVE",
"170 169 CURVE SMOOTH",
"174 204 OFFCURVE",
"181 255 OFFCURVE",
"209 473 CURVE",
"197 477 OFFCURVE",
"181 480 OFFCURVE",
"164 480 CURVE SMOOTH",
"126 480 OFFCURVE",
"81 468 OFFCURVE",
"67 443 CURVE"
);
}
);
width = 230;
}
);
unicode = 00EC;
},
{
glyphname = j;
layers = (
{
layerId = "D6BACC31-AA00-4837-BF4A-0C7E591D0F9E";
name = Bold;
paths = (
{
closed = 1;
nodes = (
"206 760 OFFCURVE",
"171 724 OFFCURVE",
"171 680 CURVE SMOOTH",
"171 636 OFFCURVE",
"206 601 OFFCURVE",
"250 601 CURVE SMOOTH",
"294 601 OFFCURVE",
"330 636 OFFCURVE",
"330 680 CURVE SMOOTH",
"330 724 OFFCURVE",
"294 760 OFFCURVE",
"250 760 CURVE SMOOTH"
);
},
{
closed = 1;
nodes = (
"294 473 LINE",
"283 479 OFFCURVE",
"262 480 OFFCURVE",
"245 480 CURVE SMOOTH",
"210 480 OFFCURVE",
"174 471 OFFCURVE",
"151 443 CURVE",
"136 315 OFFCURVE",
"121 189 OFFCURVE",
"109 82 CURVE",
"23 26 OFFCURVE",
"-65 -59 OFFCURVE",
"-65 -175 CURVE SMOOTH",
"-65 -282 OFFCURVE",
"6 -306 OFFCURVE",
"55 -306 CURVE SMOOTH",
"155 -306 OFFCURVE",
"203 -246 OFFCURVE",
"216 -132 CURVE SMOOTH"
);
},
{
closed = 1;
nodes = (
"18 -221 OFFCURVE",
"-1 -203 OFFCURVE",
"-1 -165 CURVE SMOOTH",
"-1 -99 OFFCURVE",
"46 -38 OFFCURVE",
"100 5 CURVE",
"91 -63 OFFCURVE",
"84 -119 OFFCURVE",
"79 -155 CURVE SMOOTH",
"72 -203 OFFCURVE",
"60 -221 OFFCURVE",
"35 -221 CURVE SMOOTH"
);
}
);
width = 305;
}
);
unicode = 006A;
},
{
glyphname = k;
layers = (
{
anchors = (
{
name = class0;
position = "{0, 0}";
},
{
name = class1;
position = "{248, 0}";
}
);
layerId = "D6BACC31-AA00-4837-BF4A-0C7E591D0F9E";
name = Bold;
paths = (
{
closed = 1;
nodes = (
"242 715 LINE SMOOTH",
"242 751 OFFCURVE",
"202 761 OFFCURVE",
"164 761 CURVE SMOOTH",
"140 761 OFFCURVE",
"115 756 OFFCURVE",
"107 753 CURVE",
"82 525 OFFCURVE",
"47 231 OFFCURVE",
"20 0 CURVE",
"153 0 LINE",
"161 70 OFFCURVE",
"177 197 OFFCURVE",
"190 307 CURVE",
"200 353 OFFCURVE",
"233 397 OFFCURVE",
"283 397 CURVE SMOOTH",
"324 397 OFFCURVE",
"348 375 OFFCURVE",
"347 331 CURVE SMOOTH",
"346 285 OFFCURVE",
"303 236 OFFCURVE",
"224 217 CURVE",
"228 181 OFFCURVE",
"236 148 OFFCURVE",
"247 117 CURVE SMOOTH",
"273 45 OFFCURVE",
"321 -6 OFFCURVE",
"401 -6 CURVE SMOOTH",
"450 -6 OFFCURVE",
"556 13 OFFCURVE",
"596 166 CURVE",
"592 174 OFFCURVE",
"578 203 OFFCURVE",
"556 223 CURVE",
"527 118 OFFCURVE",
"482 79 OFFCURVE",
"431 82 CURVE SMOOTH",
"395 84 OFFCURVE",
"380 121 OFFCURVE",
"371 158 CURVE SMOOTH",
"367 174 OFFCURVE",
"364 188 OFFCURVE",
"362 201 CURVE",
"371 205 LINE SMOOTH",
"439 237 OFFCURVE",
"485 285 OFFCURVE",
"486 357 CURVE SMOOTH",
"487 441 OFFCURVE",
"422 486 OFFCURVE",
"336 483 CURVE SMOOTH",
"294 482 OFFCURVE",
"246 470 OFFCURVE",
"205 432 CURVE",
"213 476 OFFCURVE",
"227 570 OFFCURVE",
"242 709 CURVE"
);
}
);
width = 496;
}
);
unicode = 006B;
},
{
glyphname = l;
layers = (
{
anchors = (
{
name = class0;
position = "{231, 761}";
},
{
name = class1;
position = "{183, 505}";
}
);
layerId = "D6BACC31-AA00-4837-BF4A-0C7E591D0F9E";
name = Bold;
paths = (
{
closed = 1;
nodes = (
"345 172 OFFCURVE",
"285 84 OFFCURVE",
"217 84 CURVE SMOOTH",
"190 84 OFFCURVE",
"168 95 OFFCURVE",
"173 149 CURVE SMOOTH",
"175 173 OFFCURVE",
"182 226 OFFCURVE",
"195 345 CURVE",
"263 405 OFFCURVE",
"354 500 OFFCURVE",
"363 618 CURVE SMOOTH",
"370 703 OFFCURVE",
"338 761 OFFCURVE",
"232 761 CURVE SMOOTH",
"121 761 OFFCURVE",
"99 671 OFFCURVE",
"90 597 CURVE SMOOTH",
"58 324 OFFCURVE",
"44 214 OFFCURVE",
"37 143 CURVE SMOOTH",
"27 41 OFFCURVE",
"89 -12 OFFCURVE",
"184 -6 CURVE SMOOTH",
"327 3 OFFCURVE",
"401 144 OFFCURVE",
"421 245 CURVE",
"413 260 OFFCURVE",
"385 281 OFFCURVE",
"374 285 CURVE"
);
},
{
closed = 1;
nodes = (
"276 675 OFFCURVE",
"301 669 OFFCURVE",
"298 617 CURVE SMOOTH",
"295 565 OFFCURVE",
"256 500 OFFCURVE",
"206 445 CURVE",
"209 475 LINE SMOOTH",
"225 622 OFFCURVE",
"226 671 OFFCURVE",
"262 674 CURVE SMOOTH"
);
}
);
width = 306;
}
);
unicode = 006C;
},
{
glyphname = lslash;
layers = (
{
layerId = "D6BACC31-AA00-4837-BF4A-0C7E591D0F9E";
name = Bold;
paths = (
{
closed = 1;
nodes = (
"367 354 LINE",
"367 431 LINE",
"278 431 LINE",
"321 483 OFFCURVE",
"356 546 OFFCURVE",
"362 618 CURVE SMOOTH",
"369 703 OFFCURVE",
"337 761 OFFCURVE",
"231 761 CURVE SMOOTH",
"120 761 OFFCURVE",
"98 671 OFFCURVE",
"89 597 CURVE SMOOTH",
"82 534 OFFCURVE",
"75 479 OFFCURVE",
"69 431 CURVE",
"-3 432 LINE",
"-12 407 OFFCURVE",
"-12 373 OFFCURVE",
"-11 354 CURVE",
"60 354 LINE",
"48 248 OFFCURVE",
"40 188 OFFCURVE",
"36 143 CURVE SMOOTH",
"26 41 OFFCURVE",
"88 -12 OFFCURVE",
"183 -6 CURVE SMOOTH",
"326 3 OFFCURVE",
"400 144 OFFCURVE",
"420 245 CURVE",
"412 260 OFFCURVE",
"384 281 OFFCURVE",
"373 285 CURVE",
"344 172 OFFCURVE",
"284 84 OFFCURVE",
"216 84 CURVE SMOOTH",
"189 84 OFFCURVE",
"167 95 OFFCURVE",
"172 149 CURVE SMOOTH",
"174 173 OFFCURVE",
"181 226 OFFCURVE",
"194 345 CURVE",
"204 354 LINE",
"236 354 OFFCURVE",
"267 354 OFFCURVE",
"293 354 CURVE SMOOTH"
);
},
{
closed = 1;
nodes = (
"275 675 OFFCURVE",
"300 669 OFFCURVE",
"297 617 CURVE SMOOTH",
"294 565 OFFCURVE",
"255 500 OFFCURVE",
"205 445 CURVE",
"208 475 LINE SMOOTH",
"224 622 OFFCURVE",
"225 671 OFFCURVE",
"261 674 CURVE SMOOTH"
);
}
);
width = 333;
}
);
unicode = 0142;
},
{
glyphname = m;
layers = (
{
layerId = "D6BACC31-AA00-4837-BF4A-0C7E591D0F9E";
name = Bold;
paths = (
{
closed = 1;
nodes = (
"35 0 LINE",
"169 0 LINE",
"172 33 OFFCURVE",
"190 167 OFFCURVE",
"208 296 CURVE",
"214 330 OFFCURVE",
"238 397 OFFCURVE",
"296 397 CURVE SMOOTH",
"333 397 OFFCURVE",
"359 372 OFFCURVE",
"351 309 CURVE SMOOTH",
"348 284 OFFCURVE",
"334 179 OFFCURVE",
"315 0 CURVE",
"444 0 LINE",
"448 28 OFFCURVE",
"470 206 OFFCURVE",
"483 315 CURVE",
"495 361 OFFCURVE",
"527 397 OFFCURVE",
"569 397 CURVE SMOOTH",
"606 397 OFFCURVE",
"633 372 OFFCURVE",
"625 312 CURVE SMOOTH",
"621 279 OFFCURVE",
"610 209 OFFCURVE",
"603 124 CURVE SMOOTH",
"598 66 OFFCURVE",
"636 -5 OFFCURVE",
"725 -5 CURVE SMOOTH",
"783 -5 OFFCURVE",
"863 16 OFFCURVE",
"909 169 CURVE",
"904 183 OFFCURVE",
"892 200 OFFCURVE",
"868 226 CURVE",
"842 121 OFFCURVE",
"794 85 OFFCURVE",
"765 85 CURVE SMOOTH",
"750 85 OFFCURVE",
"730 97 OFFCURVE",
"735 138 CURVE SMOOTH",
"747 245 OFFCURVE",
"757 306 OFFCURVE",
"761 338 CURVE SMOOTH",
"774 432 OFFCURVE",
"702 483 OFFCURVE",
"614 482 CURVE SMOOTH",
"551 481 OFFCURVE",
"506 452 OFFCURVE",
"478 412 CURVE",
"456 459 OFFCURVE",
"400 481 OFFCURVE",
"338 481 CURVE SMOOTH",
"291 481 OFFCURVE",
"252 464 OFFCURVE",
"223 439 CURVE",
"217 479 OFFCURVE",
"179 481 OFFCURVE",
"154 481 CURVE SMOOTH",
"133 481 OFFCURVE",
"113 476 OFFCURVE",
"90 470 CURVE"
);
}
);
width = 804;
}
);
rightKerningGroup = m;
unicode = 006D;
},
{
glyphname = n;
layers = (
{
anchors = (
{
name = class0;
position = "{290, 481}";
},
{
name = class1;
position = "{260, 0}";
}
);
layerId = "D6BACC31-AA00-4837-BF4A-0C7E591D0F9E";
name = Bold;
paths = (
{
closed = 1;
nodes = (
"25 0 LINE",
"160 0 LINE",
"163 33 OFFCURVE",
"181 168 OFFCURVE",
"198 298 CURVE SMOOTH",
"205 352 OFFCURVE",
"236 398 OFFCURVE",
"284 398 CURVE SMOOTH",
"321 398 OFFCURVE",
"348 373 OFFCURVE",
"340 313 CURVE SMOOTH",
"336 280 OFFCURVE",
"325 208 OFFCURVE",
"318 123 CURVE SMOOTH",
"313 65 OFFCURVE",
"351 -6 OFFCURVE",
"440 -6 CURVE SMOOTH",
"498 -6 OFFCURVE",
"578 17 OFFCURVE",
"624 170 CURVE",
"619 184 OFFCURVE",
"607 201 OFFCURVE",
"583 227 CURVE",
"557 122 OFFCURVE",
"518 85 OFFCURVE",
"480 85 CURVE SMOOTH",
"465 85 OFFCURVE",
"445 96 OFFCURVE",
"450 137 CURVE SMOOTH",
"462 244 OFFCURVE",
"472 307 OFFCURVE",
"476 339 CURVE SMOOTH",
"489 433 OFFCURVE",
"417 482 OFFCURVE",
"329 481 CURVE SMOOTH",
"284 480 OFFCURVE",
"244 462 OFFCURVE",
"214 433 CURVE",
"211 480 OFFCURVE",
"170 482 OFFCURVE",
"144 482 CURVE SMOOTH",
"123 482 OFFCURVE",
"103 477 OFFCURVE",
"80 471 CURVE"
);
}
);
width = 519;
}
);
unicode = 006E;
},
{
glyphname = ntilde;
layers = (
{
layerId = "D6BACC31-AA00-4837-BF4A-0C7E591D0F9E";
name = Bold;
paths = (
{
closed = 1;
nodes = (
"157 540 LINE",
"179 586 OFFCURVE",
"199 601 OFFCURVE",
"231 599 CURVE SMOOTH",
"280 596 OFFCURVE",
"322 524 OFFCURVE",
"398 524 CURVE SMOOTH",
"470 524 OFFCURVE",
"516 590 OFFCURVE",
"528 672 CURVE",
"484 697 LINE",
"470 663 OFFCURVE",
"445 629 OFFCURVE",
"410 629 CURVE SMOOTH",
"360 629 OFFCURVE",
"314 696 OFFCURVE",
"241 699 CURVE SMOOTH",
"171 702 OFFCURVE",
"129 635 OFFCURVE",
"113 566 CURVE"
);
},
{
closed = 1;
nodes = (
"25 0 LINE",
"160 0 LINE",
"163 33 OFFCURVE",
"181 168 OFFCURVE",
"198 298 CURVE SMOOTH",
"205 352 OFFCURVE",
"236 398 OFFCURVE",
"284 398 CURVE SMOOTH",
"321 398 OFFCURVE",
"348 373 OFFCURVE",
"340 313 CURVE SMOOTH",
"336 280 OFFCURVE",
"325 208 OFFCURVE",
"318 123 CURVE SMOOTH",
"313 65 OFFCURVE",
"351 -6 OFFCURVE",
"440 -6 CURVE SMOOTH",
"498 -6 OFFCURVE",
"578 17 OFFCURVE",
"624 170 CURVE",
"619 184 OFFCURVE",
"607 201 OFFCURVE",
"583 227 CURVE",
"557 122 OFFCURVE",
"518 85 OFFCURVE",
"480 85 CURVE SMOOTH",
"465 85 OFFCURVE",
"445 96 OFFCURVE",
"450 137 CURVE SMOOTH",
"462 244 OFFCURVE",
"472 307 OFFCURVE",
"476 339 CURVE SMOOTH",
"489 433 OFFCURVE",
"417 482 OFFCURVE",
"329 481 CURVE SMOOTH",
"284 480 OFFCURVE",
"244 462 OFFCURVE",
"214 433 CURVE",
"211 480 OFFCURVE",
"170 482 OFFCURVE",
"144 482 CURVE SMOOTH",
"123 482 OFFCURVE",
"103 477 OFFCURVE",
"80 471 CURVE"
);
}
);
width = 519;
}
);
unicode = 00F1;
},
{
glyphname = o;
layers = (
{
anchors = (
{
name = class0;
position = "{271, 481}";
},
{
name = class1;
position = "{0, 0}";
}
);
layerId = "D6BACC31-AA00-4837-BF4A-0C7E591D0F9E";
name = Bold;
paths = (
{
closed = 1;
nodes = (
"139 480 OFFCURVE",
"20 378 OFFCURVE",
"20 206 CURVE SMOOTH",
"20 88 OFFCURVE",
"109 -6 OFFCURVE",
"246 -6 CURVE SMOOTH",
"392 -6 OFFCURVE",
"510 102 OFFCURVE",
"510 278 CURVE SMOOTH",
"510 389 OFFCURVE",
"420 482 OFFCURVE",
"292 481 CURVE SMOOTH"
);
},
{
closed = 1;
nodes = (
"342 399 OFFCURVE",
"369 330 OFFCURVE",
"369 261 CURVE SMOOTH",
"369 158 OFFCURVE",
"322 76 OFFCURVE",
"252 76 CURVE SMOOTH",
"190 76 OFFCURVE",
"161 137 OFFCURVE",
"161 210 CURVE",
"165 314 OFFCURVE",
"208 401 OFFCURVE",
"282 400 CURVE SMOOTH"
);
}
);
width = 520;
}
);
leftKerningGroup = a;
rightKerningGroup = o;
unicode = 006F;
},
{
glyphname = oacute;
layers = (
{
layerId = "D6BACC31-AA00-4837-BF4A-0C7E591D0F9E";
name = Bold;
paths = (
{
closed = 1;
nodes = (
"214 550 LINE",
"220 543 OFFCURVE",
"238 521 OFFCURVE",
"252 513 CURVE",
"432 646 LINE",
"413 674 OFFCURVE",
"370 723 OFFCURVE",
"341 737 CURVE"
);
},
{
closed = 1;
nodes = (
"139 480 OFFCURVE",
"20 378 OFFCURVE",
"20 206 CURVE SMOOTH",
"20 88 OFFCURVE",
"109 -6 OFFCURVE",
"246 -6 CURVE SMOOTH",
"392 -6 OFFCURVE",
"510 102 OFFCURVE",
"510 278 CURVE SMOOTH",
"510 389 OFFCURVE",
"420 482 OFFCURVE",
"292 481 CURVE SMOOTH"
);
},
{
closed = 1;
nodes = (
"342 399 OFFCURVE",
"369 330 OFFCURVE",
"369 261 CURVE SMOOTH",
"369 158 OFFCURVE",
"322 76 OFFCURVE",
"252 76 CURVE SMOOTH",
"190 76 OFFCURVE",
"161 137 OFFCURVE",
"161 210 CURVE",
"165 314 OFFCURVE",
"208 401 OFFCURVE",
"282 400 CURVE SMOOTH"
);
}
);
width = 520;
}
);
leftKerningGroup = a;
unicode = 00F3;
},
{
glyphname = ocircumflex;
layers = (
{
layerId = "D6BACC31-AA00-4837-BF4A-0C7E591D0F9E";
name = Bold;
paths = (
{
closed = 1;
nodes = (
"283 700 LINE",
"109 579 LINE",
"117 564 OFFCURVE",
"133 535 OFFCURVE",
"142 521 CURVE",
"283 594 LINE",
"424 521 LINE",
"433 535 OFFCURVE",
"449 564 OFFCURVE",
"457 579 CURVE"
);
},
{
closed = 1;
nodes = (
"139 480 OFFCURVE",
"20 378 OFFCURVE",
"20 206 CURVE SMOOTH",
"20 88 OFFCURVE",
"109 -6 OFFCURVE",
"246 -6 CURVE SMOOTH",
"392 -6 OFFCURVE",
"510 102 OFFCURVE",
"510 278 CURVE SMOOTH",
"510 389 OFFCURVE",
"420 482 OFFCURVE",
"292 481 CURVE SMOOTH"
);
},
{
closed = 1;
nodes = (
"342 399 OFFCURVE",
"369 330 OFFCURVE",
"369 261 CURVE SMOOTH",
"369 158 OFFCURVE",
"322 76 OFFCURVE",
"252 76 CURVE SMOOTH",
"190 76 OFFCURVE",
"161 137 OFFCURVE",
"161 210 CURVE",
"165 314 OFFCURVE",
"208 401 OFFCURVE",
"282 400 CURVE SMOOTH"
);
}
);
width = 520;
}
);
leftKerningGroup = a;
unicode = 00F4;
},
{
glyphname = odieresis;
layers = (
{
layerId = "D6BACC31-AA00-4837-BF4A-0C7E591D0F9E";
name = Bold;
paths = (
{
closed = 1;
nodes = (
"119 677 OFFCURVE",
"89 644 OFFCURVE",
"89 604 CURVE SMOOTH",
"89 564 OFFCURVE",
"119 532 OFFCURVE",
"161 532 CURVE SMOOTH",
"200 532 OFFCURVE",
"232 564 OFFCURVE",
"232 604 CURVE SMOOTH",
"232 644 OFFCURVE",
"200 677 OFFCURVE",
"161 677 CURVE SMOOTH"
);
},
{
closed = 1;
nodes = (
"361 677 OFFCURVE",
"328 644 OFFCURVE",
"328 604 CURVE SMOOTH",
"328 564 OFFCURVE",
"361 532 OFFCURVE",
"401 532 CURVE SMOOTH",
"442 532 OFFCURVE",
"473 564 OFFCURVE",
"473 604 CURVE SMOOTH",
"473 644 OFFCURVE",
"442 677 OFFCURVE",
"401 677 CURVE SMOOTH"
);
},
{
closed = 1;
nodes = (
"139 480 OFFCURVE",
"20 378 OFFCURVE",
"20 206 CURVE SMOOTH",
"20 88 OFFCURVE",
"109 -6 OFFCURVE",
"246 -6 CURVE SMOOTH",
"392 -6 OFFCURVE",
"510 102 OFFCURVE",
"510 278 CURVE SMOOTH",
"510 389 OFFCURVE",
"420 482 OFFCURVE",
"292 481 CURVE SMOOTH"
);
},
{
closed = 1;
nodes = (
"342 399 OFFCURVE",
"369 330 OFFCURVE",
"369 261 CURVE SMOOTH",
"369 158 OFFCURVE",
"322 76 OFFCURVE",
"252 76 CURVE SMOOTH",
"190 76 OFFCURVE",
"161 137 OFFCURVE",
"161 210 CURVE",
"165 314 OFFCURVE",
"208 401 OFFCURVE",
"282 400 CURVE SMOOTH"
);
}
);
width = 520;
}
);
leftKerningGroup = a;
unicode = 00F6;
},
{
glyphname = ograve;
layers = (
{
layerId = "D6BACC31-AA00-4837-BF4A-0C7E591D0F9E";
name = Bold;
paths = (
{
closed = 1;
nodes = (
"253 737 LINE",
"224 723 OFFCURVE",
"181 674 OFFCURVE",
"162 646 CURVE",
"342 513 LINE",
"356 521 OFFCURVE",
"374 543 OFFCURVE",
"380 550 CURVE"
);
},
{
closed = 1;
nodes = (
"139 480 OFFCURVE",
"20 378 OFFCURVE",
"20 206 CURVE SMOOTH",
"20 88 OFFCURVE",
"109 -6 OFFCURVE",
"246 -6 CURVE SMOOTH",
"392 -6 OFFCURVE",
"510 102 OFFCURVE",
"510 278 CURVE SMOOTH",
"510 389 OFFCURVE",
"420 482 OFFCURVE",
"292 481 CURVE SMOOTH"
);
},
{
closed = 1;
nodes = (
"342 399 OFFCURVE",
"369 330 OFFCURVE",
"369 261 CURVE SMOOTH",
"369 158 OFFCURVE",
"322 76 OFFCURVE",
"252 76 CURVE SMOOTH",
"190 76 OFFCURVE",
"161 137 OFFCURVE",
"161 210 CURVE",
"165 314 OFFCURVE",
"208 401 OFFCURVE",
"282 400 CURVE SMOOTH"
);
}
);
width = 520;
}
);
leftKerningGroup = a;
unicode = 00F2;
},
{
glyphname = oslash;
layers = (
{
anchors = (
{
name = class0;
position = "{260, 641}";
},
{
name = class1;
position = "{0, 0}";
}
);
layerId = "D6BACC31-AA00-4837-BF4A-0C7E591D0F9E";
name = Bold;
paths = (
{
closed = 1;
nodes = (
"444 701 LINE",
"361 701 LINE",
"295 481 LINE",
"292 481 LINE SMOOTH",
"139 480 OFFCURVE",
"20 378 OFFCURVE",
"20 206 CURVE SMOOTH",
"20 117 OFFCURVE",
"70 42 OFFCURVE",
"154 10 CURVE",
"103 -160 LINE",
"186 -160 LINE",
"232 -6 LINE",
"246 -6 LINE SMOOTH",
"392 -6 OFFCURVE",
"510 102 OFFCURVE",
"510 278 CURVE SMOOTH",
"510 363 OFFCURVE",
"457 438 OFFCURVE",
"374 468 CURVE"
);
},
{
closed = 1;
nodes = (
"185 113 LINE",
"169 138 OFFCURVE",
"161 172 OFFCURVE",
"161 210 CURVE",
"165 309 OFFCURVE",
"204 392 OFFCURVE",
"271 399 CURVE"
);
},
{
closed = 1;
nodes = (
"343 364 LINE",
"361 338 OFFCURVE",
"369 299 OFFCURVE",
"369 261 CURVE SMOOTH",
"369 160 OFFCURVE",
"324 80 OFFCURVE",
"257 76 CURVE"
);
}
);
width = 520;
}
);
leftKerningGroup = a;
unicode = 00F8;
},
{
glyphname = otilde;
layers = (
{
layerId = "D6BACC31-AA00-4837-BF4A-0C7E591D0F9E";
name = Bold;
paths = (
{
closed = 1;
nodes = (
"138 540 LINE",
"160 586 OFFCURVE",
"180 601 OFFCURVE",
"212 599 CURVE SMOOTH",
"261 596 OFFCURVE",
"303 524 OFFCURVE",
"379 524 CURVE SMOOTH",
"451 524 OFFCURVE",
"497 590 OFFCURVE",
"509 672 CURVE",
"465 697 LINE",
"451 663 OFFCURVE",
"426 629 OFFCURVE",
"391 629 CURVE SMOOTH",
"341 629 OFFCURVE",
"295 696 OFFCURVE",
"222 699 CURVE SMOOTH",
"152 702 OFFCURVE",
"110 635 OFFCURVE",
"94 566 CURVE"
);
},
{
closed = 1;
nodes = (
"139 480 OFFCURVE",
"20 378 OFFCURVE",
"20 206 CURVE SMOOTH",
"20 88 OFFCURVE",
"109 -6 OFFCURVE",
"246 -6 CURVE SMOOTH",
"392 -6 OFFCURVE",
"510 102 OFFCURVE",
"510 278 CURVE SMOOTH",
"510 389 OFFCURVE",
"420 482 OFFCURVE",
"292 481 CURVE SMOOTH"
);
},
{
closed = 1;
nodes = (
"342 399 OFFCURVE",
"369 330 OFFCURVE",
"369 261 CURVE SMOOTH",
"369 158 OFFCURVE",
"322 76 OFFCURVE",
"252 76 CURVE SMOOTH",
"190 76 OFFCURVE",
"161 137 OFFCURVE",
"161 210 CURVE",
"165 314 OFFCURVE",
"208 401 OFFCURVE",
"282 400 CURVE SMOOTH"
);
}
);
width = 520;
}
);
leftKerningGroup = a;
unicode = 00F5;
},
{
glyphname = oe;
layers = (
{
anchors = (
{
name = class0;
position = "{543, 481}";
},
{
name = class1;
position = "{0, 0}";
}
);
layerId = "D6BACC31-AA00-4837-BF4A-0C7E591D0F9E";
name = Bold;
paths = (
{
closed = 1;
nodes = (
"577 165 LINE",
"713 189 OFFCURVE",
"807 251 OFFCURVE",
"807 357 CURVE",
"805 434 OFFCURVE",
"735 481 OFFCURVE",
"633 481 CURVE SMOOTH",
"568 481 OFFCURVE",
"505 456 OFFCURVE",
"457 413 CURVE",
"418 455 OFFCURVE",
"361 482 OFFCURVE",
"292 481 CURVE SMOOTH",
"139 480 OFFCURVE",
"20 378 OFFCURVE",
"20 206 CURVE SMOOTH",
"20 88 OFFCURVE",
"109 -6 OFFCURVE",
"246 -6 CURVE SMOOTH",
"315 -6 OFFCURVE",
"378 18 OFFCURVE",
"425 63 CURVE",
"462 21 OFFCURVE",
"517 -6 OFFCURVE",
"590 -6 CURVE SMOOTH",
"762 -6 OFFCURVE",
"884 128 OFFCURVE",
"925 220 CURVE",
"918 232 OFFCURVE",
"906 252 OFFCURVE",
"885 272 CURVE",
"827 159 OFFCURVE",
"733 90 OFFCURVE",
"640 84 CURVE SMOOTH",
"560 79 OFFCURVE",
"509 135 OFFCURVE",
"509 218 CURVE SMOOTH",
"509 334 OFFCURVE",
"569 403 OFFCURVE",
"623 405 CURVE SMOOTH",
"650 406 OFFCURVE",
"686 394 OFFCURVE",
"686 351 CURVE SMOOTH",
"686 305 OFFCURVE",
"653 243 OFFCURVE",
"563 224 CURVE"
);
},
{
closed = 1;
nodes = (
"190 76 OFFCURVE",
"161 137 OFFCURVE",
"161 210 CURVE",
"165 314 OFFCURVE",
"208 401 OFFCURVE",
"282 400 CURVE SMOOTH",
"342 399 OFFCURVE",
"369 330 OFFCURVE",
"369 261 CURVE SMOOTH",
"369 158 OFFCURVE",
"322 76 OFFCURVE",
"252 76 CURVE SMOOTH"
);
}
);
width = 810;
}
);
leftKerningGroup = a;
unicode = 0153;
},
{
glyphname = p;
layers = (
{
layerId = "D6BACC31-AA00-4837-BF4A-0C7E591D0F9E";
name = Bold;
paths = (
{
closed = 1;
nodes = (
"131 -274 LINE",
"163 1 LINE",
"182 -3 OFFCURVE",
"202 -6 OFFCURVE",
"224 -6 CURVE SMOOTH",
"386 -6 OFFCURVE",
"498 84 OFFCURVE",
"513 262 CURVE SMOOTH",
"524 391 OFFCURVE",
"432 482 OFFCURVE",
"331 482 CURVE SMOOTH",
"287 482 OFFCURVE",
"249 470 OFFCURVE",
"219 449 CURVE",
"211 474 OFFCURVE",
"176 482 OFFCURVE",
"143 482 CURVE SMOOTH",
"119 482 OFFCURVE",
"94 477 OFFCURVE",
"86 474 CURVE",
"61 246 OFFCURVE",
"27 -43 OFFCURVE",
"0 -274 CURVE"
);
},
{
closed = 1;
nodes = (
"364 150 OFFCURVE",
"317 84 OFFCURVE",
"249 84 CURVE SMOOTH",
"214 84 OFFCURVE",
"180 101 OFFCURVE",
"181 144 CURVE",
"187 195 OFFCURVE",
"195 250 OFFCURVE",
"204 316 CURVE",
"219 353 OFFCURVE",
"243 390 OFFCURVE",
"291 390 CURVE SMOOTH",
"348 390 OFFCURVE",
"378 333 OFFCURVE",
"372 257 CURVE SMOOTH"
);
}
);
width = 529;
}
);
rightKerningGroup = p;
unicode = 0070;
},
{
glyphname = thorn;
layers = (
{
layerId = "D6BACC31-AA00-4837-BF4A-0C7E591D0F9E";
name = Bold;
paths = (
{
closed = 1;
nodes = (
"242 715 LINE",
"242 751 OFFCURVE",
"200 761 OFFCURVE",
"162 761 CURVE SMOOTH",
"138 761 OFFCURVE",
"114 756 OFFCURVE",
"106 753 CURVE",
"102 726 OFFCURVE",
"88 596 OFFCURVE",
"74 474 CURVE SMOOTH",
"69 435 OFFCURVE",
"64 393 OFFCURVE",
"59 351 CURVE SMOOTH",
"49 266 LINE SMOOTH",
"42 215 OFFCURVE",
"39 187 OFFCURVE",
"37 155 CURVE",
"-13 -274 LINE",
"118 -274 LINE",
"150 3 LINE",
"168 -2 OFFCURVE",
"189 -5 OFFCURVE",
"212 -6 CURVE",
"374 -6 OFFCURVE",
"486 84 OFFCURVE",
"501 262 CURVE SMOOTH",
"512 391 OFFCURVE",
"420 482 OFFCURVE",
"319 482 CURVE SMOOTH",
"276 482 OFFCURVE",
"238 470 OFFCURVE",
"208 449 CURVE"
);
},
{
closed = 1;
nodes = (
"187 289 LINE",
"192 323 LINE",
"207 358 OFFCURVE",
"234 390 OFFCURVE",
"279 390 CURVE SMOOTH",
"336 390 OFFCURVE",
"366 333 OFFCURVE",
"360 257 CURVE SMOOTH",
"352 150 OFFCURVE",
"305 83 OFFCURVE",
"237 83 CURVE SMOOTH",
"200 83 OFFCURVE",
"167 102 OFFCURVE",
"171 150 CURVE SMOOTH",
"173 172 OFFCURVE",
"177 209 OFFCURVE",
"184 262 CURVE SMOOTH"
);
}
);
width = 600;
}
);
rightKerningGroup = p;
unicode = 00FE;
},
{
glyphname = q;
layers = (
{
layerId = "D6BACC31-AA00-4837-BF4A-0C7E591D0F9E";
name = Bold;
paths = (
{
closed = 1;
nodes = (
"294 -130 LINE SMOOTH",
"281 -237 OFFCURVE",
"332 -304 OFFCURVE",
"431 -304 CURVE SMOOTH",
"476 -304 OFFCURVE",
"570 -276 OFFCURVE",
"567 -154 CURVE",
"567 -102 OFFCURVE",
"540 -50 OFFCURVE",
"499 -2 CURVE",
"562 10 OFFCURVE",
"637 58 OFFCURVE",
"673 177 CURVE",
"668 192 OFFCURVE",
"651 215 OFFCURVE",
"635 235 CURVE",
"605 130 OFFCURVE",
"546 90 OFFCURVE",
"497 86 CURVE SMOOTH",
"484 85 OFFCURVE",
"462 85 OFFCURVE",
"458 85 CURVE",
"463 126 LINE SMOOTH",
"468 171 OFFCURVE",
"476 233 OFFCURVE",
"506 471 CURVE",
"491 480 OFFCURVE",
"478 481 OFFCURVE",
"450 481 CURVE SMOOTH",
"430 481 OFFCURVE",
"407 473 OFFCURVE",
"390 464 CURVE",
"367 473 OFFCURVE",
"337 481 OFFCURVE",
"298 481 CURVE SMOOTH",
"137 483 OFFCURVE",
"20 371 OFFCURVE",
"20 194 CURVE SMOOTH",
"20 68 OFFCURVE",
"112 -6 OFFCURVE",
"205 -6 CURVE SMOOTH",
"245 -6 OFFCURVE",
"281 4 OFFCURVE",
"313 27 CURVE"
);
},
{
closed = 1;
nodes = (
"334 175 LINE",
"332 157 LINE",
"308 104 OFFCURVE",
"276 86 OFFCURVE",
"244 86 CURVE SMOOTH",
"201 86 OFFCURVE",
"155 121 OFFCURVE",
"161 210 CURVE SMOOTH",
"170 339 OFFCURVE",
"223 403 OFFCURVE",
"307 403 CURVE SMOOTH",
"325 403 OFFCURVE",
"343 399 OFFCURVE",
"359 393 CURVE"
);
},
{
closed = 1;
nodes = (
"452 -212 OFFCURVE",
"424 -203 OFFCURVE",
"428 -156 CURVE SMOOTH",
"431 -121 OFFCURVE",
"437 -72 OFFCURVE",
"443 -23 CURVE",
"481 -61 OFFCURVE",
"509 -105 OFFCURVE",
"510 -155 CURVE SMOOTH",
"511 -198 OFFCURVE",
"485 -212 OFFCURVE",
"467 -212 CURVE SMOOTH"
);
}
);
width = 573;
}
);
leftKerningGroup = a;
unicode = 0071;
},
{
glyphname = r;
layers = (
{
anchors = (
{
name = class0;
position = "{236, 481}";
},
{
name = class1;
position = "{185, 0}";
}
);
layerId = "D6BACC31-AA00-4837-BF4A-0C7E591D0F9E";
name = Bold;
paths = (
{
closed = 1;
nodes = (
"56 165 LINE SMOOTH",
"55 156 OFFCURVE",
"55 146 OFFCURVE",
"55 137 CURVE SMOOTH",
"55 63 OFFCURVE",
"86 -6 OFFCURVE",
"183 -6 CURVE SMOOTH",
"258 -6 OFFCURVE",
"331 41 OFFCURVE",
"331 151 CURVE SMOOTH",
"331 240 OFFCURVE",
"269 306 OFFCURVE",
"223 342 CURVE",
"237 373 OFFCURVE",
"259 396 OFFCURVE",
"291 394 CURVE SMOOTH",
"325 392 OFFCURVE",
"332 367 OFFCURVE",
"326 329 CURVE",
"385 327 OFFCURVE",
"422 360 OFFCURVE",
"422 410 CURVE SMOOTH",
"422 448 OFFCURVE",
"390 481 OFFCURVE",
"327 481 CURVE SMOOTH",
"286 481 OFFCURVE",
"249 462 OFFCURVE",
"225 434 CURVE",
"225 436 LINE SMOOTH",
"225 473 OFFCURVE",
"190 481 OFFCURVE",
"164 481 CURVE SMOOTH",
"124 481 OFFCURVE",
"104 474 OFFCURVE",
"91 470 CURVE"
);
},
{
closed = 1;
nodes = (
"266 86 OFFCURVE",
"230 85 OFFCURVE",
"222 85 CURVE SMOOTH",
"210 85 OFFCURVE",
"188 89 OFFCURVE",
"188 127 CURVE SMOOTH",
"188 131 OFFCURVE",
"188 135 OFFCURVE",
"189 139 CURVE",
"193 177 OFFCURVE",
"200 225 OFFCURVE",
"206 272 CURVE",
"241 238 OFFCURVE",
"266 197 OFFCURVE",
"266 156 CURVE SMOOTH"
);
}
);
width = 412;
}
);
rightKerningGroup = r;
unicode = 0072;
},
{
glyphname = s;
layers = (
{
anchors = (
{
name = class0;
position = "{231, 516}";
},
{
name = class1;
position = "{318, 0}";
}
);
layerId = "D6BACC31-AA00-4837-BF4A-0C7E591D0F9E";
name = Bold;
paths = (
{
closed = 1;
nodes = (
"318 406 OFFCURVE",
"326 430 OFFCURVE",
"326 454 CURVE SMOOTH",
"326 523 OFFCURVE",
"258 537 OFFCURVE",
"239 537 CURVE SMOOTH",
"183 537 OFFCURVE",
"133 496 OFFCURVE",
"133 433 CURVE SMOOTH",
"133 404 OFFCURVE",
"148 380 OFFCURVE",
"170 358 CURVE",
"138 329 OFFCURVE",
"102 295 OFFCURVE",
"67 258 CURVE SMOOTH",
"-25 161 OFFCURVE",
"-46 111 OFFCURVE",
"-45 51 CURVE SMOOTH",
"-43 -43 OFFCURVE",
"44 -108 OFFCURVE",
"139 -91 CURVE SMOOTH",
"189 -82 OFFCURVE",
"206 -68 OFFCURVE",
"206 -63 CURVE SMOOTH",
"206 -59 OFFCURVE",
"77 -49 OFFCURVE",
"77 62 CURVE SMOOTH",
"77 69 OFFCURVE",
"77 76 OFFCURVE",
"79 84 CURVE",
"91 146 OFFCURVE",
"180 223 OFFCURVE",
"248 302 CURVE",
"314 262 OFFCURVE",
"384 224 OFFCURVE",
"387 162 CURVE SMOOTH",
"389 122 OFFCURVE",
"361 83 OFFCURVE",
"314 85 CURVE SMOOTH",
"282 86 OFFCURVE",
"253 111 OFFCURVE",
"253 142 CURVE SMOOTH",
"253 163 OFFCURVE",
"260 184 OFFCURVE",
"274 204 CURVE",
"218 197 OFFCURVE",
"169 163 OFFCURVE",
"169 102 CURVE SMOOTH",
"169 39 OFFCURVE",
"231 -6 OFFCURVE",
"311 -6 CURVE SMOOTH",
"433 -6 OFFCURVE",
"529 61 OFFCURVE",
"529 170 CURVE SMOOTH",
"529 288 OFFCURVE",
"399 339 OFFCURVE",
"305 381 CURVE"
);
},
{
closed = 1;
nodes = (
"247 481 OFFCURVE",
"260 469 OFFCURVE",
"256 451 CURVE SMOOTH",
"254 443 OFFCURVE",
"246 433 OFFCURVE",
"233 419 CURVE",
"219 430 OFFCURVE",
"210 441 OFFCURVE",
"210 454 CURVE SMOOTH",
"210 475 OFFCURVE",
"223 482 OFFCURVE",
"235 482 CURVE"
);
}
);
width = 515;
}
);
unicode = 0073;
},
{
glyphname = scaron;
layers = (
{
layerId = "D6BACC31-AA00-4837-BF4A-0C7E591D0F9E";
name = Bold;
paths = (
{
closed = 1;
nodes = (
"292 577 LINE",
"411 735 LINE",
"331 735 LINE",
"244 652 LINE",
"157 735 LINE",
"77 735 LINE",
"186 577 LINE"
);
},
{
closed = 1;
nodes = (
"318 406 OFFCURVE",
"326 430 OFFCURVE",
"326 454 CURVE SMOOTH",
"326 523 OFFCURVE",
"258 537 OFFCURVE",
"239 537 CURVE SMOOTH",
"183 537 OFFCURVE",
"133 496 OFFCURVE",
"133 433 CURVE SMOOTH",
"133 404 OFFCURVE",
"148 380 OFFCURVE",
"170 358 CURVE",
"138 329 OFFCURVE",
"102 295 OFFCURVE",
"67 258 CURVE SMOOTH",
"-25 161 OFFCURVE",
"-46 111 OFFCURVE",
"-45 51 CURVE SMOOTH",
"-43 -43 OFFCURVE",
"44 -108 OFFCURVE",
"139 -91 CURVE SMOOTH",
"189 -82 OFFCURVE",
"206 -68 OFFCURVE",
"206 -63 CURVE SMOOTH",
"206 -59 OFFCURVE",
"77 -49 OFFCURVE",
"77 62 CURVE SMOOTH",
"77 69 OFFCURVE",
"77 76 OFFCURVE",
"79 84 CURVE",
"91 146 OFFCURVE",
"180 223 OFFCURVE",
"248 302 CURVE",
"314 262 OFFCURVE",
"384 224 OFFCURVE",
"387 162 CURVE SMOOTH",
"389 122 OFFCURVE",
"361 83 OFFCURVE",
"314 85 CURVE SMOOTH",
"282 86 OFFCURVE",
"253 111 OFFCURVE",
"253 142 CURVE SMOOTH",
"253 163 OFFCURVE",
"260 184 OFFCURVE",
"274 204 CURVE",
"218 197 OFFCURVE",
"169 163 OFFCURVE",
"169 102 CURVE SMOOTH",
"169 39 OFFCURVE",
"231 -6 OFFCURVE",
"311 -6 CURVE SMOOTH",
"433 -6 OFFCURVE",
"529 61 OFFCURVE",
"529 170 CURVE SMOOTH",
"529 288 OFFCURVE",
"399 339 OFFCURVE",
"305 381 CURVE"
);
},
{
closed = 1;
nodes = (
"247 481 OFFCURVE",
"260 469 OFFCURVE",
"256 451 CURVE SMOOTH",
"254 443 OFFCURVE",
"246 433 OFFCURVE",
"233 419 CURVE",
"219 430 OFFCURVE",
"210 441 OFFCURVE",
"210 454 CURVE SMOOTH",
"210 475 OFFCURVE",
"223 482 OFFCURVE",
"235 482 CURVE"
);
}
);
width = 515;
}
);
unicode = 0161;
},
{
glyphname = germandbls;
layers = (
{
layerId = "D6BACC31-AA00-4837-BF4A-0C7E591D0F9E";
name = Bold;
paths = (
{
closed = 1;
nodes = (
"367 379 OFFCURVE",
"356 383 OFFCURVE",
"356 402 CURVE SMOOTH",
"356 456 OFFCURVE",
"499 488 OFFCURVE",
"509 603 CURVE SMOOTH",
"518 707 OFFCURVE",
"402 761 OFFCURVE",
"310 761 CURVE SMOOTH",
"175 761 OFFCURVE",
"121 672 OFFCURVE",
"112 591 CURVE SMOOTH",
"86 369 OFFCURVE",
"63 162 OFFCURVE",
"24 -160 CURVE SMOOTH",
"23 -169 OFFCURVE",
"20 -199 OFFCURVE",
"20 -208 CURVE SMOOTH",
"20 -303 OFFCURVE",
"84 -343 OFFCURVE",
"147 -343 CURVE SMOOTH",
"219 -343 OFFCURVE",
"301 -287 OFFCURVE",
"301 -154 CURVE SMOOTH",
"301 -70 OFFCURVE",
"246 1 OFFCURVE",
"183 49 CURVE",
"190 107 LINE SMOOTH",
"202 213 OFFCURVE",
"218 301 OFFCURVE",
"238 479 CURVE SMOOTH",
"254 620 OFFCURVE",
"260 676 OFFCURVE",
"325 673 CURVE SMOOTH",
"345 672 OFFCURVE",
"375 656 OFFCURVE",
"373 613 CURVE SMOOTH",
"368 512 OFFCURVE",
"278 460 OFFCURVE",
"278 372 CURVE SMOOTH",
"278 344 OFFCURVE",
"289 315 OFFCURVE",
"324 282 CURVE SMOOTH",
"380 229 OFFCURVE",
"407 200 OFFCURVE",
"407 151 CURVE",
"404 108 OFFCURVE",
"374 87 OFFCURVE",
"343 87 CURVE SMOOTH",
"308 87 OFFCURVE",
"283 111 OFFCURVE",
"283 156 CURVE SMOOTH",
"283 173 OFFCURVE",
"294 198 OFFCURVE",
"306 202 CURVE",
"304 204 OFFCURVE",
"299 204 OFFCURVE",
"293 204 CURVE SMOOTH",
"266 204 OFFCURVE",
"197 183 OFFCURVE",
"197 106 CURVE SMOOTH",
"197 43 OFFCURVE",
"266 -6 OFFCURVE",
"347 -6 CURVE SMOOTH",
"461 -6 OFFCURVE",
"551 58 OFFCURVE",
"551 163 CURVE SMOOTH",
"551 255 OFFCURVE",
"496 292 OFFCURVE",
"420 343 CURVE SMOOTH"
);
},
{
closed = 1;
nodes = (
"238 -227 OFFCURVE",
"210 -252 OFFCURVE",
"193 -252 CURVE SMOOTH",
"180 -252 OFFCURVE",
"153 -250 OFFCURVE",
"153 -205 CURVE SMOOTH",
"153 -199 OFFCURVE",
"153 -193 OFFCURVE",
"154 -186 CURVE SMOOTH",
"175 -22 LINE",
"211 -60 OFFCURVE",
"238 -113 OFFCURVE",
"238 -168 CURVE SMOOTH"
);
}
);
width = 576;
}
);
unicode = 00DF;
},
{
glyphname = t;
layers = (
{
anchors = (
{
name = class0;
position = "{0, 0}";
},
{
name = class1;
position = "{172, 0}";
}
);
layerId = "D6BACC31-AA00-4837-BF4A-0C7E591D0F9E";
name = Bold;
paths = (
{
closed = 1;
nodes = (
"379 404 LINE",
"379 481 LINE",
"232 481 LINE",
"243 566 OFFCURVE",
"254 643 OFFCURVE",
"258 681 CURVE",
"259 686 OFFCURVE",
"259 692 OFFCURVE",
"259 696 CURVE SMOOTH",
"259 752 OFFCURVE",
"218 761 OFFCURVE",
"183 761 CURVE SMOOTH",
"159 761 OFFCURVE",
"135 756 OFFCURVE",
"127 753 CURVE",
"95 481 LINE",
"9 482 LINE",
"0 457 OFFCURVE",
"0 423 OFFCURVE",
"1 404 CURVE",
"17 404 OFFCURVE",
"46 404 OFFCURVE",
"82 404 CURVE",
"86 402 LINE",
"55 136 LINE SMOOTH",
"45 51 OFFCURVE",
"90 -6 OFFCURVE",
"178 -6 CURVE SMOOTH",
"252 -6 OFFCURVE",
"336 33 OFFCURVE",
"336 165 CURVE SMOOTH",
"336 257 OFFCURVE",
"281 327 OFFCURVE",
"219 379 CURVE",
"222 404 LINE",
"252 404 OFFCURVE",
"280 404 OFFCURVE",
"305 404 CURVE SMOOTH"
);
},
{
closed = 1;
nodes = (
"269 107 OFFCURVE",
"246 85 OFFCURVE",
"220 85 CURVE SMOOTH",
"207 85 OFFCURVE",
"191 95 OFFCURVE",
"191 130 CURVE SMOOTH",
"191 150 OFFCURVE",
"199 219 OFFCURVE",
"209 302 CURVE",
"243 264 OFFCURVE",
"269 218 OFFCURVE",
"269 166 CURVE SMOOTH"
);
}
);
width = 344;
}
);
unicode = 0074;
},
{
glyphname = u;
layers = (
{
anchors = (
{
name = class0;
position = "{282, 486}";
},
{
name = class1;
position = "{0, 0}";
}
);
layerId = "D6BACC31-AA00-4837-BF4A-0C7E591D0F9E";
name = Bold;
paths = (
{
closed = 1;
nodes = (
"307 175 LINE",
"306 163 OFFCURVE",
"305 151 OFFCURVE",
"305 140 CURVE",
"283 107 OFFCURVE",
"253 91 OFFCURVE",
"222 91 CURVE SMOOTH",
"186 91 OFFCURVE",
"162 111 OFFCURVE",
"170 172 CURVE SMOOTH",
"192 342 OFFCURVE",
"203 410 OFFCURVE",
"203 427 CURVE SMOOTH",
"203 479 OFFCURVE",
"166 481 OFFCURVE",
"131 481 CURVE SMOOTH",
"112 481 OFFCURVE",
"87 476 OFFCURVE",
"70 470 CURVE",
"42 230 OFFCURVE",
"33 160 OFFCURVE",
"32 151 CURVE SMOOTH",
"20 43 OFFCURVE",
"90 -5 OFFCURVE",
"180 -5 CURVE SMOOTH",
"240 -5 OFFCURVE",
"289 23 OFFCURVE",
"319 62 CURVE",
"338 20 OFFCURVE",
"376 -5 OFFCURVE",
"436 -5 CURVE SMOOTH",
"493 -5 OFFCURVE",
"578 29 OFFCURVE",
"612 172 CURVE",
"607 187 OFFCURVE",
"596 202 OFFCURVE",
"572 228 CURVE",
"546 123 OFFCURVE",
"496 86 OFFCURVE",
"467 86 CURVE SMOOTH",
"450 86 OFFCURVE",
"435 98 OFFCURVE",
"439 139 CURVE SMOOTH",
"443 184 OFFCURVE",
"452 254 OFFCURVE",
"479 471 CURVE",
"464 480 OFFCURVE",
"441 481 OFFCURVE",
"423 481 CURVE SMOOTH",
"383 481 OFFCURVE",
"349 464 OFFCURVE",
"340 441 CURVE"
);
}
);
width = 507;
}
);
leftKerningGroup = h;
unicode = 0075;
},
{
glyphname = uacute;
layers = (
{
layerId = "D6BACC31-AA00-4837-BF4A-0C7E591D0F9E";
name = Bold;
paths = (
{
closed = 1;
nodes = (
"225 555 LINE",
"231 548 OFFCURVE",
"249 526 OFFCURVE",
"263 518 CURVE",
"443 651 LINE",
"424 679 OFFCURVE",
"381 728 OFFCURVE",
"352 742 CURVE"
);
},
{
closed = 1;
nodes = (
"307 175 LINE",
"306 163 OFFCURVE",
"305 151 OFFCURVE",
"305 140 CURVE",
"283 107 OFFCURVE",
"253 91 OFFCURVE",
"222 91 CURVE SMOOTH",
"186 91 OFFCURVE",
"162 111 OFFCURVE",
"170 172 CURVE SMOOTH",
"192 342 OFFCURVE",
"203 410 OFFCURVE",
"203 427 CURVE SMOOTH",
"203 479 OFFCURVE",
"166 481 OFFCURVE",
"131 481 CURVE SMOOTH",
"112 481 OFFCURVE",
"87 476 OFFCURVE",
"70 470 CURVE",
"42 230 OFFCURVE",
"33 160 OFFCURVE",
"32 151 CURVE SMOOTH",
"20 43 OFFCURVE",
"90 -5 OFFCURVE",
"180 -5 CURVE SMOOTH",
"240 -5 OFFCURVE",
"289 23 OFFCURVE",
"319 62 CURVE",
"338 20 OFFCURVE",
"376 -5 OFFCURVE",
"436 -5 CURVE SMOOTH",
"493 -5 OFFCURVE",
"578 29 OFFCURVE",
"612 172 CURVE",
"607 187 OFFCURVE",
"596 202 OFFCURVE",
"572 228 CURVE",
"546 123 OFFCURVE",
"496 86 OFFCURVE",
"467 86 CURVE SMOOTH",
"450 86 OFFCURVE",
"435 98 OFFCURVE",
"439 139 CURVE SMOOTH",
"443 184 OFFCURVE",
"452 254 OFFCURVE",
"479 471 CURVE",
"464 480 OFFCURVE",
"441 481 OFFCURVE",
"423 481 CURVE SMOOTH",
"383 481 OFFCURVE",
"349 464 OFFCURVE",
"340 441 CURVE"
);
}
);
width = 507;
}
);
leftKerningGroup = h;
unicode = 00FA;
},
{
glyphname = ucircumflex;
layers = (
{
layerId = "D6BACC31-AA00-4837-BF4A-0C7E591D0F9E";
name = Bold;
paths = (
{
closed = 1;
nodes = (
"294 705 LINE",
"120 584 LINE",
"128 569 OFFCURVE",
"144 540 OFFCURVE",
"153 526 CURVE",
"294 599 LINE",
"435 526 LINE",
"444 540 OFFCURVE",
"460 569 OFFCURVE",
"468 584 CURVE"
);
},
{
closed = 1;
nodes = (
"307 175 LINE",
"306 163 OFFCURVE",
"305 151 OFFCURVE",
"305 140 CURVE",
"283 107 OFFCURVE",
"253 91 OFFCURVE",
"222 91 CURVE SMOOTH",
"186 91 OFFCURVE",
"162 111 OFFCURVE",
"170 172 CURVE SMOOTH",
"192 342 OFFCURVE",
"203 410 OFFCURVE",
"203 427 CURVE SMOOTH",
"203 479 OFFCURVE",
"166 481 OFFCURVE",
"131 481 CURVE SMOOTH",
"112 481 OFFCURVE",
"87 476 OFFCURVE",
"70 470 CURVE",
"42 230 OFFCURVE",
"33 160 OFFCURVE",
"32 151 CURVE SMOOTH",
"20 43 OFFCURVE",
"90 -5 OFFCURVE",
"180 -5 CURVE SMOOTH",
"240 -5 OFFCURVE",
"289 23 OFFCURVE",
"319 62 CURVE",
"338 20 OFFCURVE",
"376 -5 OFFCURVE",
"436 -5 CURVE SMOOTH",
"493 -5 OFFCURVE",
"578 29 OFFCURVE",
"612 172 CURVE",
"607 187 OFFCURVE",
"596 202 OFFCURVE",
"572 228 CURVE",
"546 123 OFFCURVE",
"496 86 OFFCURVE",
"467 86 CURVE SMOOTH",
"450 86 OFFCURVE",
"435 98 OFFCURVE",
"439 139 CURVE SMOOTH",
"443 184 OFFCURVE",
"452 254 OFFCURVE",
"479 471 CURVE",
"464 480 OFFCURVE",
"441 481 OFFCURVE",
"423 481 CURVE SMOOTH",
"383 481 OFFCURVE",
"349 464 OFFCURVE",
"340 441 CURVE"
);
}
);
width = 507;
}
);
leftKerningGroup = h;
unicode = 00FB;
},
{
glyphname = udieresis;
layers = (
{
layerId = "D6BACC31-AA00-4837-BF4A-0C7E591D0F9E";
name = Bold;
paths = (
{
closed = 1;
nodes = (
"130 682 OFFCURVE",
"100 649 OFFCURVE",
"100 609 CURVE SMOOTH",
"100 569 OFFCURVE",
"130 537 OFFCURVE",
"172 537 CURVE SMOOTH",
"211 537 OFFCURVE",
"243 569 OFFCURVE",
"243 609 CURVE SMOOTH",
"243 649 OFFCURVE",
"211 682 OFFCURVE",
"172 682 CURVE SMOOTH"
);
},
{
closed = 1;
nodes = (
"372 682 OFFCURVE",
"339 649 OFFCURVE",
"339 609 CURVE SMOOTH",
"339 569 OFFCURVE",
"372 537 OFFCURVE",
"412 537 CURVE SMOOTH",
"453 537 OFFCURVE",
"484 569 OFFCURVE",
"484 609 CURVE SMOOTH",
"484 649 OFFCURVE",
"453 682 OFFCURVE",
"412 682 CURVE SMOOTH"
);
},
{
closed = 1;
nodes = (
"307 175 LINE",
"306 163 OFFCURVE",
"305 151 OFFCURVE",
"305 140 CURVE",
"283 107 OFFCURVE",
"253 91 OFFCURVE",
"222 91 CURVE SMOOTH",
"186 91 OFFCURVE",
"162 111 OFFCURVE",
"170 172 CURVE SMOOTH",
"192 342 OFFCURVE",
"203 410 OFFCURVE",
"203 427 CURVE SMOOTH",
"203 479 OFFCURVE",
"166 481 OFFCURVE",
"131 481 CURVE SMOOTH",
"112 481 OFFCURVE",
"87 476 OFFCURVE",
"70 470 CURVE",
"42 230 OFFCURVE",
"33 160 OFFCURVE",
"32 151 CURVE SMOOTH",
"20 43 OFFCURVE",
"90 -5 OFFCURVE",
"180 -5 CURVE SMOOTH",
"240 -5 OFFCURVE",
"289 23 OFFCURVE",
"319 62 CURVE",
"338 20 OFFCURVE",
"376 -5 OFFCURVE",
"436 -5 CURVE SMOOTH",
"493 -5 OFFCURVE",
"578 29 OFFCURVE",
"612 172 CURVE",
"607 187 OFFCURVE",
"596 202 OFFCURVE",
"572 228 CURVE",
"546 123 OFFCURVE",
"496 86 OFFCURVE",
"467 86 CURVE SMOOTH",
"450 86 OFFCURVE",
"435 98 OFFCURVE",
"439 139 CURVE SMOOTH",
"443 184 OFFCURVE",
"452 254 OFFCURVE",
"479 471 CURVE",
"464 480 OFFCURVE",
"441 481 OFFCURVE",
"423 481 CURVE SMOOTH",
"383 481 OFFCURVE",
"349 464 OFFCURVE",
"340 441 CURVE"
);
}
);
width = 507;
}
);
leftKerningGroup = h;
unicode = 00FC;
},
{
glyphname = ugrave;
layers = (
{
layerId = "D6BACC31-AA00-4837-BF4A-0C7E591D0F9E";
name = Bold;
paths = (
{
closed = 1;
nodes = (
"264 742 LINE",
"235 728 OFFCURVE",
"192 679 OFFCURVE",
"173 651 CURVE",
"353 518 LINE",
"367 526 OFFCURVE",
"385 548 OFFCURVE",
"391 555 CURVE"
);
},
{
closed = 1;
nodes = (
"307 175 LINE",
"306 163 OFFCURVE",
"305 151 OFFCURVE",
"305 140 CURVE",
"283 107 OFFCURVE",
"253 91 OFFCURVE",
"222 91 CURVE SMOOTH",
"186 91 OFFCURVE",
"162 111 OFFCURVE",
"170 172 CURVE SMOOTH",
"192 342 OFFCURVE",
"203 410 OFFCURVE",
"203 427 CURVE SMOOTH",
"203 479 OFFCURVE",
"166 481 OFFCURVE",
"131 481 CURVE SMOOTH",
"112 481 OFFCURVE",
"87 476 OFFCURVE",
"70 470 CURVE",
"42 230 OFFCURVE",
"33 160 OFFCURVE",
"32 151 CURVE SMOOTH",
"20 43 OFFCURVE",
"90 -5 OFFCURVE",
"180 -5 CURVE SMOOTH",
"240 -5 OFFCURVE",
"289 23 OFFCURVE",
"319 62 CURVE",
"338 20 OFFCURVE",
"376 -5 OFFCURVE",
"436 -5 CURVE SMOOTH",
"493 -5 OFFCURVE",
"578 29 OFFCURVE",
"612 172 CURVE",
"607 187 OFFCURVE",
"596 202 OFFCURVE",
"572 228 CURVE",
"546 123 OFFCURVE",
"496 86 OFFCURVE",
"467 86 CURVE SMOOTH",
"450 86 OFFCURVE",
"435 98 OFFCURVE",
"439 139 CURVE SMOOTH",
"443 184 OFFCURVE",
"452 254 OFFCURVE",
"479 471 CURVE",
"464 480 OFFCURVE",
"441 481 OFFCURVE",
"423 481 CURVE SMOOTH",
"383 481 OFFCURVE",
"349 464 OFFCURVE",
"340 441 CURVE"
);
}
);
width = 507;
}
);
leftKerningGroup = h;
unicode = 00F9;
},
{
glyphname = v;
layers = (
{
layerId = "D6BACC31-AA00-4837-BF4A-0C7E591D0F9E";
name = Bold;
paths = (
{
closed = 1;
nodes = (
"479 373 LINE",
"479 430 LINE",
"465 427 OFFCURVE",
"450 425 OFFCURVE",
"436 422 CURVE",
"425 468 OFFCURVE",
"397 506 OFFCURVE",
"330 501 CURVE SMOOTH",
"303 499 OFFCURVE",
"263 476 OFFCURVE",
"267 427 CURVE SMOOTH",
"270 392 OFFCURVE",
"297 359 OFFCURVE",
"356 359 CURVE SMOOTH",
"365 359 LINE",
"364 274 OFFCURVE",
"321 99 OFFCURVE",
"239 90 CURVE SMOOTH",
"181 84 OFFCURVE",
"166 116 OFFCURVE",
"174 182 CURVE SMOOTH",
"184 262 OFFCURVE",
"205 404 OFFCURVE",
"205 432 CURVE SMOOTH",
"205 469 OFFCURVE",
"175 482 OFFCURVE",
"134 481 CURVE SMOOTH",
"110 480 OFFCURVE",
"82 473 OFFCURVE",
"71 469 CURVE",
"37 184 LINE SMOOTH",
"27 80 OFFCURVE",
"82 -5 OFFCURVE",
"190 -5 CURVE SMOOTH",
"337 -5 OFFCURVE",
"440 171 OFFCURVE",
"442 350 CURVE SMOOTH",
"442 355 OFFCURVE",
"442 361 OFFCURVE",
"442 367 CURVE"
);
},
{
closed = 1;
nodes = (
"324 435 OFFCURVE",
"324 441 OFFCURVE",
"337 441 CURVE SMOOTH",
"348 441 OFFCURVE",
"355 430 OFFCURVE",
"359 414 CURVE",
"338 413 OFFCURVE",
"324 418 OFFCURVE",
"324 431 CURVE SMOOTH"
);
}
);
width = 454;
}
);
unicode = 0076;
},
{
glyphname = w;
layers = (
{
anchors = (
{
name = class0;
position = "{370, 481}";
},
{
name = class1;
position = "{0, 0}";
}
);
layerId = "D6BACC31-AA00-4837-BF4A-0C7E591D0F9E";
name = Bold;
paths = (
{
closed = 1;
nodes = (
"834 473 LINE",
"808 463 OFFCURVE",
"748 441 OFFCURVE",
"686 426 CURVE",
"671 470 OFFCURVE",
"638 506 OFFCURVE",
"573 501 CURVE SMOOTH",
"546 499 OFFCURVE",
"506 476 OFFCURVE",
"510 427 CURVE SMOOTH",
"513 392 OFFCURVE",
"540 359 OFFCURVE",
"599 359 CURVE SMOOTH",
"608 359 LINE",
"608 274 OFFCURVE",
"580 88 OFFCURVE",
"501 87 CURVE SMOOTH",
"447 86 OFFCURVE",
"431 121 OFFCURVE",
"439 187 CURVE SMOOTH",
"449 267 OFFCURVE",
"471 404 OFFCURVE",
"471 432 CURVE SMOOTH",
"471 469 OFFCURVE",
"442 482 OFFCURVE",
"401 481 CURVE SMOOTH",
"377 480 OFFCURVE",
"349 473 OFFCURVE",
"338 469 CURVE",
"304 184 LINE",
"303 170 LINE",
"292 130 OFFCURVE",
"266 91 OFFCURVE",
"227 91 CURVE SMOOTH",
"199 91 OFFCURVE",
"171 113 OFFCURVE",
"177 165 CURVE SMOOTH",
"184 229 OFFCURVE",
"210 402 OFFCURVE",
"210 432 CURVE SMOOTH",
"210 470 OFFCURVE",
"180 481 OFFCURVE",
"139 481 CURVE SMOOTH",
"115 481 OFFCURVE",
"88 473 OFFCURVE",
"76 469 CURVE",
"57 285 OFFCURVE",
"47 217 OFFCURVE",
"41 158 CURVE SMOOTH",
"31 63 OFFCURVE",
"98 -14 OFFCURVE",
"195 -5 CURVE SMOOTH",
"264 1 OFFCURVE",
"303 32 OFFCURVE",
"327 69 CURVE",
"354 22 OFFCURVE",
"405 -9 OFFCURVE",
"475 -5 CURVE SMOOTH",
"629 4 OFFCURVE",
"693 161 OFFCURVE",
"697 350 CURVE SMOOTH",
"697 357 OFFCURVE",
"697 365 OFFCURVE",
"696 373 CURVE",
"753 386 OFFCURVE",
"808 406 OFFCURVE",
"834 416 CURVE"
);
},
{
closed = 1;
nodes = (
"567 435 OFFCURVE",
"567 441 OFFCURVE",
"580 441 CURVE SMOOTH",
"591 441 OFFCURVE",
"598 430 OFFCURVE",
"602 414 CURVE",
"581 413 OFFCURVE",
"567 418 OFFCURVE",
"567 431 CURVE SMOOTH"
);
}
);
width = 719;
}
);
unicode = 0077;
},
{
glyphname = x;
layers = (
{
layerId = "D6BACC31-AA00-4837-BF4A-0C7E591D0F9E";
name = Bold;
paths = (
{
closed = 1;
nodes = (
"494 172 LINE",
"488 150 OFFCURVE",
"474 85 OFFCURVE",
"436 85 CURVE SMOOTH",
"417 85 OFFCURVE",
"408 93 OFFCURVE",
"395 118 CURVE SMOOTH",
"382 142 OFFCURVE",
"354 197 OFFCURVE",
"323 257 CURVE",
"359 310 LINE",
"366 309 OFFCURVE",
"374 308 OFFCURVE",
"382 308 CURVE SMOOTH",
"436 308 OFFCURVE",
"504 343 OFFCURVE",
"504 419 CURVE SMOOTH",
"504 459 OFFCURVE",
"471 495 OFFCURVE",
"422 495 CURVE SMOOTH",
"388 495 OFFCURVE",
"365 485 OFFCURVE",
"331 433 CURVE SMOOTH",
"311 402 OFFCURVE",
"293 374 OFFCURVE",
"276 347 CURVE",
"235 426 LINE SMOOTH",
"205 484 OFFCURVE",
"169 492 OFFCURVE",
"140 492 CURVE SMOOTH",
"76 492 OFFCURVE",
"28 455 OFFCURVE",
"28 388 CURVE SMOOTH",
"28 373 OFFCURVE",
"36 335 OFFCURVE",
"49 318 CURVE",
"74 325 LINE",
"71 337 OFFCURVE",
"70 346 OFFCURVE",
"70 353 CURVE SMOOTH",
"70 374 OFFCURVE",
"84 382 OFFCURVE",
"90 382 CURVE SMOOTH",
"108 382 OFFCURVE",
"111 374 OFFCURVE",
"120 358 CURVE SMOOTH",
"138 328 OFFCURVE",
"167 277 OFFCURVE",
"196 224 CURVE",
"172 188 LINE",
"162 190 OFFCURVE",
"153 191 OFFCURVE",
"143 191 CURVE SMOOTH",
"89 191 OFFCURVE",
"10 155 OFFCURVE",
"10 76 CURVE SMOOTH",
"10 37 OFFCURVE",
"36 -1 OFFCURVE",
"93 -1 CURVE SMOOTH",
"135 -1 OFFCURVE",
"164 26 OFFCURVE",
"193 68 CURVE SMOOTH",
"242 139 LINE",
"254 116 OFFCURVE",
"265 95 OFFCURVE",
"274 77 CURVE SMOOTH",
"302 20 OFFCURVE",
"330 -6 OFFCURVE",
"392 -6 CURVE SMOOTH",
"459 -6 OFFCURVE",
"507 41 OFFCURVE",
"528 123 CURVE"
);
},
{
closed = 1;
nodes = (
"457 418 OFFCURVE",
"461 405 OFFCURVE",
"461 398 CURVE",
"458 364 OFFCURVE",
"415 348 OFFCURVE",
"384 348 CURVE",
"422 407 OFFCURVE",
"428 418 OFFCURVE",
"442 418 CURVE SMOOTH"
);
},
{
closed = 1;
nodes = (
"64 81 OFFCURVE",
"59 90 OFFCURVE",
"59 98 CURVE SMOOTH",
"59 134 OFFCURVE",
"108 151 OFFCURVE",
"139 151 CURVE SMOOTH",
"147 151 LINE",
"112 101 OFFCURVE",
"92 81 OFFCURVE",
"77 81 CURVE SMOOTH"
);
}
);
width = 510;
}
);
unicode = 0078;
},
{
glyphname = y;
layers = (
{
anchors = (
{
name = class0;
position = "{263, 481}";
},
{
name = class1;
position = "{0, 0}";
}
);
layerId = "D6BACC31-AA00-4837-BF4A-0C7E591D0F9E";
name = Bold;
paths = (
{
closed = 1;
nodes = (
"468 473 LINE",
"468 473 OFFCURVE",
"446 481 OFFCURVE",
"413 481 CURVE SMOOTH",
"391 481 OFFCURVE",
"340 469 OFFCURVE",
"326 440 CURVE",
"313 335 OFFCURVE",
"302 231 OFFCURVE",
"291 137 CURVE",
"270 106 OFFCURVE",
"241 91 OFFCURVE",
"211 91 CURVE SMOOTH",
"180 91 OFFCURVE",
"157 106 OFFCURVE",
"157 150 CURVE SMOOTH",
"157 157 OFFCURVE",
"158 164 OFFCURVE",
"159 172 CURVE SMOOTH",
"181 342 OFFCURVE",
"192 410 OFFCURVE",
"192 427 CURVE SMOOTH",
"192 479 OFFCURVE",
"155 481 OFFCURVE",
"120 481 CURVE SMOOTH",
"101 481 OFFCURVE",
"76 476 OFFCURVE",
"59 470 CURVE",
"26 190 OFFCURVE",
"20 169 OFFCURVE",
"20 127 CURVE SMOOTH",
"20 44 OFFCURVE",
"75 2 OFFCURVE",
"148 -4 CURVE",
"101 -48 OFFCURVE",
"66 -102 OFFCURVE",
"66 -162 CURVE SMOOTH",
"66 -255 OFFCURVE",
"135 -297 OFFCURVE",
"205 -297 CURVE SMOOTH",
"333 -297 OFFCURVE",
"384 -196 OFFCURVE",
"397 -90 CURVE SMOOTH",
"413 35 LINE",
"472 17 OFFCURVE",
"510 -37 OFFCURVE",
"523 -117 CURVE",
"541 -95 OFFCURVE",
"559 -66 OFFCURVE",
"561 -57 CURVE",
"543 52 OFFCURVE",
"483 93 OFFCURVE",
"421 104 CURVE"
);
},
{
closed = 1;
nodes = (
"174 -208 OFFCURVE",
"144 -192 OFFCURVE",
"144 -143 CURVE SMOOTH",
"146 -79 OFFCURVE",
"207 -25 OFFCURVE",
"278 12 CURVE",
"265 -98 LINE SMOOTH",
"254 -188 OFFCURVE",
"238 -208 OFFCURVE",
"197 -208 CURVE SMOOTH"
);
}
);
width = 486;
}
);
unicode = 0079;
},
{
glyphname = yacute;
layers = (
{
layerId = "D6BACC31-AA00-4837-BF4A-0C7E591D0F9E";
name = Bold;
paths = (
{
closed = 1;
nodes = (
"206 550 LINE",
"212 543 OFFCURVE",
"230 521 OFFCURVE",
"244 513 CURVE",
"424 646 LINE",
"405 674 OFFCURVE",
"362 723 OFFCURVE",
"333 737 CURVE"
);
},
{
closed = 1;
nodes = (
"468 473 LINE",
"468 473 OFFCURVE",
"446 481 OFFCURVE",
"413 481 CURVE SMOOTH",
"391 481 OFFCURVE",
"340 469 OFFCURVE",
"326 440 CURVE",
"313 335 OFFCURVE",
"302 231 OFFCURVE",
"291 137 CURVE",
"270 106 OFFCURVE",
"241 91 OFFCURVE",
"211 91 CURVE SMOOTH",
"180 91 OFFCURVE",
"157 106 OFFCURVE",
"157 150 CURVE SMOOTH",
"157 157 OFFCURVE",
"158 164 OFFCURVE",
"159 172 CURVE SMOOTH",
"181 342 OFFCURVE",
"192 410 OFFCURVE",
"192 427 CURVE SMOOTH",
"192 479 OFFCURVE",
"155 481 OFFCURVE",
"120 481 CURVE SMOOTH",
"101 481 OFFCURVE",
"76 476 OFFCURVE",
"59 470 CURVE",
"26 190 OFFCURVE",
"20 169 OFFCURVE",
"20 127 CURVE SMOOTH",
"20 44 OFFCURVE",
"75 2 OFFCURVE",
"148 -4 CURVE",
"101 -48 OFFCURVE",
"66 -102 OFFCURVE",
"66 -162 CURVE SMOOTH",
"66 -255 OFFCURVE",
"135 -297 OFFCURVE",
"205 -297 CURVE SMOOTH",
"333 -297 OFFCURVE",
"384 -196 OFFCURVE",
"397 -90 CURVE SMOOTH",
"413 35 LINE",
"472 17 OFFCURVE",
"510 -37 OFFCURVE",
"523 -117 CURVE",
"541 -95 OFFCURVE",
"559 -66 OFFCURVE",
"561 -57 CURVE",
"543 52 OFFCURVE",
"483 93 OFFCURVE",
"421 104 CURVE"
);
},
{
closed = 1;
nodes = (
"265 -98 LINE SMOOTH",
"254 -188 OFFCURVE",
"238 -208 OFFCURVE",
"197 -208 CURVE SMOOTH",
"174 -208 OFFCURVE",
"144 -192 OFFCURVE",
"144 -143 CURVE SMOOTH",
"146 -79 OFFCURVE",
"207 -25 OFFCURVE",
"278 12 CURVE"
);
}
);
width = 486;
}
);
unicode = 00FD;
},
{
glyphname = ydieresis;
layers = (
{
layerId = "D6BACC31-AA00-4837-BF4A-0C7E591D0F9E";
name = Bold;
paths = (
{
closed = 1;
nodes = (
"111 677 OFFCURVE",
"81 644 OFFCURVE",
"81 604 CURVE SMOOTH",
"81 564 OFFCURVE",
"111 532 OFFCURVE",
"153 532 CURVE SMOOTH",
"192 532 OFFCURVE",
"224 564 OFFCURVE",
"224 604 CURVE SMOOTH",
"224 644 OFFCURVE",
"192 677 OFFCURVE",
"153 677 CURVE SMOOTH"
);
},
{
closed = 1;
nodes = (
"353 677 OFFCURVE",
"320 644 OFFCURVE",
"320 604 CURVE SMOOTH",
"320 564 OFFCURVE",
"353 532 OFFCURVE",
"393 532 CURVE SMOOTH",
"434 532 OFFCURVE",
"465 564 OFFCURVE",
"465 604 CURVE SMOOTH",
"465 644 OFFCURVE",
"434 677 OFFCURVE",
"393 677 CURVE SMOOTH"
);
},
{
closed = 1;
nodes = (
"468 473 LINE",
"468 473 OFFCURVE",
"446 481 OFFCURVE",
"413 481 CURVE SMOOTH",
"391 481 OFFCURVE",
"340 469 OFFCURVE",
"326 440 CURVE",
"313 335 OFFCURVE",
"302 231 OFFCURVE",
"291 137 CURVE",
"270 106 OFFCURVE",
"241 91 OFFCURVE",
"211 91 CURVE SMOOTH",
"180 91 OFFCURVE",
"157 106 OFFCURVE",
"157 150 CURVE SMOOTH",
"157 157 OFFCURVE",
"158 164 OFFCURVE",
"159 172 CURVE SMOOTH",
"181 342 OFFCURVE",
"192 410 OFFCURVE",
"192 427 CURVE SMOOTH",
"192 479 OFFCURVE",
"155 481 OFFCURVE",
"120 481 CURVE SMOOTH",
"101 481 OFFCURVE",
"76 476 OFFCURVE",
"59 470 CURVE",
"26 190 OFFCURVE",
"20 169 OFFCURVE",
"20 127 CURVE SMOOTH",
"20 44 OFFCURVE",
"75 2 OFFCURVE",
"148 -4 CURVE",
"101 -48 OFFCURVE",
"66 -102 OFFCURVE",
"66 -162 CURVE SMOOTH",
"66 -255 OFFCURVE",
"135 -297 OFFCURVE",
"205 -297 CURVE SMOOTH",
"333 -297 OFFCURVE",
"384 -196 OFFCURVE",
"397 -90 CURVE SMOOTH",
"413 35 LINE",
"472 17 OFFCURVE",
"510 -37 OFFCURVE",
"523 -117 CURVE",
"541 -95 OFFCURVE",
"559 -66 OFFCURVE",
"561 -57 CURVE",
"543 52 OFFCURVE",
"483 93 OFFCURVE",
"421 104 CURVE"
);
},
{
closed = 1;
nodes = (
"265 -98 LINE SMOOTH",
"254 -188 OFFCURVE",
"238 -208 OFFCURVE",
"197 -208 CURVE SMOOTH",
"174 -208 OFFCURVE",
"144 -192 OFFCURVE",
"144 -143 CURVE SMOOTH",
"146 -79 OFFCURVE",
"207 -25 OFFCURVE",
"278 12 CURVE"
);
}
);
width = 486;
}
);
unicode = 00FF;
},
{
glyphname = z;
layers = (
{
anchors = (
{
name = class0;
position = "{239, 481}";
},
{
name = class1;
position = "{0, 0}";
}
);
layerId = "D6BACC31-AA00-4837-BF4A-0C7E591D0F9E";
name = Bold;
paths = (
{
closed = 1;
nodes = (
"428 427 OFFCURVE",
"429 437 OFFCURVE",
"429 447 CURVE SMOOTH",
"429 465 OFFCURVE",
"423 481 OFFCURVE",
"416 481 CURVE SMOOTH",
"288 481 OFFCURVE",
"209 485 OFFCURVE",
"142 487 CURVE SMOOTH",
"69 489 OFFCURVE",
"29 451 OFFCURVE",
"29 391 CURVE SMOOTH",
"29 340 OFFCURVE",
"65 308 OFFCURVE",
"116 306 CURVE SMOOTH",
"169 304 OFFCURVE",
"208 343 OFFCURVE",
"226 387 CURVE",
"279 384 LINE",
"253 351 OFFCURVE",
"219 315 OFFCURVE",
"187 280 CURVE SMOOTH",
"116 204 OFFCURVE",
"55 139 OFFCURVE",
"35 88 CURVE",
"25 75 OFFCURVE",
"20 51 OFFCURVE",
"20 31 CURVE SMOOTH",
"20 13 OFFCURVE",
"26 -3 OFFCURVE",
"33 -3 CURVE SMOOTH",
"161 -3 OFFCURVE",
"240 -7 OFFCURVE",
"307 -9 CURVE SMOOTH",
"380 -11 OFFCURVE",
"420 27 OFFCURVE",
"420 87 CURVE SMOOTH",
"420 138 OFFCURVE",
"384 170 OFFCURVE",
"333 172 CURVE SMOOTH",
"280 174 OFFCURVE",
"241 135 OFFCURVE",
"223 91 CURVE",
"156 95 LINE",
"180 140 OFFCURVE",
"215 183 OFFCURVE",
"256 224 CURVE SMOOTH",
"321 289 OFFCURVE",
"389 344 OFFCURVE",
"416 393 CURVE",
"418 396 OFFCURVE",
"420 399 OFFCURVE",
"421 403 CURVE",
"423 408 OFFCURVE",
"425 412 OFFCURVE",
"426 417 CURVE SMOOTH"
);
},
{
closed = 1;
nodes = (
"106 348 OFFCURVE",
"93 354 OFFCURVE",
"95 373 CURVE SMOOTH",
"97 391 OFFCURVE",
"121 395 OFFCURVE",
"142 393 CURVE SMOOTH",
"183 390 LINE",
"168 363 OFFCURVE",
"148 348 OFFCURVE",
"121 348 CURVE SMOOTH"
);
},
{
closed = 1;
nodes = (
"343 130 OFFCURVE",
"356 124 OFFCURVE",
"354 105 CURVE SMOOTH",
"352 87 OFFCURVE",
"328 83 OFFCURVE",
"307 85 CURVE SMOOTH",
"266 88 LINE",
"281 115 OFFCURVE",
"301 130 OFFCURVE",
"328 130 CURVE SMOOTH"
);
}
);
width = 437;
}
);
unicode = 007A;
},
{
glyphname = zcaron;
layers = (
{
layerId = "D6BACC31-AA00-4837-BF4A-0C7E591D0F9E";
name = Bold;
paths = (
{
closed = 1;
nodes = (
"300 542 LINE",
"419 700 LINE",
"339 700 LINE",
"252 617 LINE",
"165 700 LINE",
"85 700 LINE",
"194 542 LINE"
);
},
{
closed = 1;
nodes = (
"279 384 LINE",
"253 351 OFFCURVE",
"219 315 OFFCURVE",
"187 280 CURVE SMOOTH",
"116 204 OFFCURVE",
"55 139 OFFCURVE",
"35 88 CURVE",
"25 75 OFFCURVE",
"20 51 OFFCURVE",
"20 31 CURVE SMOOTH",
"20 13 OFFCURVE",
"26 -3 OFFCURVE",
"33 -3 CURVE SMOOTH",
"161 -3 OFFCURVE",
"240 -7 OFFCURVE",
"307 -9 CURVE SMOOTH",
"380 -11 OFFCURVE",
"420 27 OFFCURVE",
"420 87 CURVE SMOOTH",
"420 138 OFFCURVE",
"384 170 OFFCURVE",
"333 172 CURVE SMOOTH",
"280 174 OFFCURVE",
"241 135 OFFCURVE",
"223 91 CURVE",
"156 95 LINE",
"180 140 OFFCURVE",
"215 183 OFFCURVE",
"256 224 CURVE SMOOTH",
"321 289 OFFCURVE",
"389 344 OFFCURVE",
"416 393 CURVE",
"418 396 OFFCURVE",
"420 399 OFFCURVE",
"421 403 CURVE",
"423 408 OFFCURVE",
"425 412 OFFCURVE",
"426 417 CURVE SMOOTH",
"428 427 OFFCURVE",
"429 437 OFFCURVE",
"429 447 CURVE SMOOTH",
"429 465 OFFCURVE",
"423 481 OFFCURVE",
"416 481 CURVE SMOOTH",
"288 481 OFFCURVE",
"209 485 OFFCURVE",
"142 487 CURVE SMOOTH",
"69 489 OFFCURVE",
"29 451 OFFCURVE",
"29 391 CURVE SMOOTH",
"29 340 OFFCURVE",
"65 308 OFFCURVE",
"116 306 CURVE SMOOTH",
"169 304 OFFCURVE",
"208 343 OFFCURVE",
"226 387 CURVE"
);
},
{
closed = 1;
nodes = (
"183 390 LINE",
"168 363 OFFCURVE",
"148 348 OFFCURVE",
"121 348 CURVE SMOOTH",
"106 348 OFFCURVE",
"93 354 OFFCURVE",
"95 373 CURVE SMOOTH",
"97 391 OFFCURVE",
"121 395 OFFCURVE",
"142 393 CURVE SMOOTH"
);
},
{
closed = 1;
nodes = (
"266 88 LINE",
"281 115 OFFCURVE",
"301 130 OFFCURVE",
"328 130 CURVE SMOOTH",
"343 130 OFFCURVE",
"356 124 OFFCURVE",
"354 105 CURVE SMOOTH",
"352 87 OFFCURVE",
"328 83 OFFCURVE",
"307 85 CURVE SMOOTH"
);
}
);
width = 437;
}
);
unicode = 017E;
},
{
glyphname = fi;
layers = (
{
layerId = "D6BACC31-AA00-4837-BF4A-0C7E591D0F9E";
name = Bold;
paths = (
{
closed = 1;
nodes = (
"446 226 LINE",
"411 142 OFFCURVE",
"364 84 OFFCURVE",
"291 84 CURVE SMOOTH",
"269 84 OFFCURVE",
"253 92 OFFCURVE",
"243 103 CURVE",
"268 344 LINE",
"342 407 OFFCURVE",
"439 519 OFFCURVE",
"439 635 CURVE SMOOTH",
"439 713 OFFCURVE",
"396 761 OFFCURVE",
"314 761 CURVE SMOOTH",
"194 761 OFFCURVE",
"172 675 OFFCURVE",
"164 601 CURVE SMOOTH",
"127 271 LINE",
"126 265 LINE",
"112 283 OFFCURVE",
"100 298 OFFCURVE",
"92 307 CURVE SMOOTH",
"67 336 OFFCURVE",
"29 288 OFFCURVE",
"16 270 CURVE",
"42 238 OFFCURVE",
"78 191 OFFCURVE",
"113 144 CURVE",
"82 -126 LINE SMOOTH",
"81 -135 OFFCURVE",
"78 -165 OFFCURVE",
"78 -174 CURVE SMOOTH",
"78 -258 OFFCURVE",
"141 -304 OFFCURVE",
"215 -304 CURVE SMOOTH",
"299 -304 OFFCURVE",
"367 -248 OFFCURVE",
"357 -144 CURVE SMOOTH",
"352 -98 OFFCURVE",
"330 -49 OFFCURVE",
"303 -1 CURVE",
"351 9 OFFCURVE",
"399 34 OFFCURVE",
"437 79 CURVE",
"451 22 OFFCURVE",
"500 -9 OFFCURVE",
"566 -7 CURVE SMOOTH",
"660 -5 OFFCURVE",
"723 68 OFFCURVE",
"749 171 CURVE",
"745 185 OFFCURVE",
"718 220 OFFCURVE",
"709 225 CURVE",
"693 163 OFFCURVE",
"654 85 OFFCURVE",
"607 86 CURVE SMOOTH",
"559 87 OFFCURVE",
"569 128 OFFCURVE",
"574 169 CURVE SMOOTH",
"578 204 OFFCURVE",
"585 255 OFFCURVE",
"613 473 CURVE",
"601 477 OFFCURVE",
"585 480 OFFCURVE",
"568 480 CURVE SMOOTH",
"530 480 OFFCURVE",
"485 468 OFFCURVE",
"471 443 CURVE"
);
},
{
closed = 1;
nodes = (
"612 601 OFFCURVE",
"648 636 OFFCURVE",
"648 680 CURVE SMOOTH",
"648 724 OFFCURVE",
"612 760 OFFCURVE",
"568 760 CURVE SMOOTH",
"524 760 OFFCURVE",
"489 724 OFFCURVE",
"489 680 CURVE SMOOTH",
"489 636 OFFCURVE",
"524 601 OFFCURVE",
"568 601 CURVE SMOOTH"
);
},
{
closed = 1;
nodes = (
"282 479 LINE SMOOTH",
"298 629 OFFCURVE",
"302 675 OFFCURVE",
"340 675 CURVE SMOOTH",
"349 675 OFFCURVE",
"374 670 OFFCURVE",
"374 623 CURVE SMOOTH",
"374 569 OFFCURVE",
"333 498 OFFCURVE",
"278 441 CURVE"
);
},
{
closed = 1;
nodes = (
"231 -12 LINE",
"264 -60 OFFCURVE",
"294 -115 OFFCURVE",
"294 -157 CURVE SMOOTH",
"294 -198 OFFCURVE",
"271 -212 OFFCURVE",
"249 -212 CURVE SMOOTH",
"234 -212 OFFCURVE",
"213 -201 OFFCURVE",
"215 -165 CURVE",
"215 -160 OFFCURVE",
"215 -157 OFFCURVE",
"216 -152 CURVE"
);
}
);
width = 634;
}
);
unicode = FB01;
},
{
glyphname = fl;
layers = (
{
layerId = "D6BACC31-AA00-4837-BF4A-0C7E591D0F9E";
name = Bold;
paths = (
{
closed = 1;
nodes = (
"268 344 LINE",
"342 407 OFFCURVE",
"439 519 OFFCURVE",
"439 635 CURVE SMOOTH",
"439 713 OFFCURVE",
"396 761 OFFCURVE",
"314 761 CURVE SMOOTH",
"194 761 OFFCURVE",
"172 675 OFFCURVE",
"164 601 CURVE SMOOTH",
"127 271 LINE",
"126 265 LINE",
"112 283 OFFCURVE",
"100 298 OFFCURVE",
"92 307 CURVE SMOOTH",
"67 336 OFFCURVE",
"29 288 OFFCURVE",
"16 270 CURVE",
"42 238 OFFCURVE",
"78 191 OFFCURVE",
"113 144 CURVE",
"82 -126 LINE SMOOTH",
"81 -135 OFFCURVE",
"78 -165 OFFCURVE",
"78 -174 CURVE SMOOTH",
"78 -258 OFFCURVE",
"141 -304 OFFCURVE",
"215 -304 CURVE SMOOTH",
"299 -304 OFFCURVE",
"367 -248 OFFCURVE",
"357 -144 CURVE SMOOTH",
"352 -98 OFFCURVE",
"330 -49 OFFCURVE",
"303 -1 CURVE",
"354 9 OFFCURVE",
"403 36 OFFCURVE",
"443 86 CURVE",
"457 21 OFFCURVE",
"512 -11 OFFCURVE",
"587 -6 CURVE SMOOTH",
"730 3 OFFCURVE",
"804 144 OFFCURVE",
"824 245 CURVE",
"816 260 OFFCURVE",
"788 281 OFFCURVE",
"777 285 CURVE",
"748 172 OFFCURVE",
"688 84 OFFCURVE",
"620 84 CURVE SMOOTH",
"593 84 OFFCURVE",
"571 95 OFFCURVE",
"576 149 CURVE SMOOTH",
"578 173 OFFCURVE",
"585 226 OFFCURVE",
"598 345 CURVE",
"666 405 OFFCURVE",
"757 500 OFFCURVE",
"766 618 CURVE SMOOTH",
"773 703 OFFCURVE",
"741 761 OFFCURVE",
"635 761 CURVE SMOOTH",
"524 761 OFFCURVE",
"502 671 OFFCURVE",
"493 597 CURVE SMOOTH",
"451 238 LINE",
"415 147 OFFCURVE",
"367 84 OFFCURVE",
"291 84 CURVE SMOOTH",
"269 84 OFFCURVE",
"253 92 OFFCURVE",
"243 103 CURVE"
);
},
{
closed = 1;
nodes = (
"282 479 LINE SMOOTH",
"298 629 OFFCURVE",
"302 675 OFFCURVE",
"340 675 CURVE SMOOTH",
"349 675 OFFCURVE",
"374 670 OFFCURVE",
"374 623 CURVE SMOOTH",
"374 569 OFFCURVE",
"333 498 OFFCURVE",
"278 441 CURVE"
);
},
{
closed = 1;
nodes = (
"612 475 LINE SMOOTH",
"628 622 OFFCURVE",
"629 671 OFFCURVE",
"665 674 CURVE SMOOTH",
"679 675 OFFCURVE",
"704 669 OFFCURVE",
"701 617 CURVE SMOOTH",
"698 565 OFFCURVE",
"659 500 OFFCURVE",
"609 445 CURVE"
);
},
{
closed = 1;
nodes = (
"231 -12 LINE",
"264 -60 OFFCURVE",
"294 -115 OFFCURVE",
"294 -157 CURVE SMOOTH",
"294 -198 OFFCURVE",
"271 -212 OFFCURVE",
"249 -212 CURVE SMOOTH",
"234 -212 OFFCURVE",
"213 -201 OFFCURVE",
"215 -165 CURVE",
"215 -160 OFFCURVE",
"215 -157 OFFCURVE",
"216 -152 CURVE"
);
}
);
width = 709;
}
);
unicode = FB02;
},
{
glyphname = ordfeminine;
layers = (
{
layerId = "D6BACC31-AA00-4837-BF4A-0C7E591D0F9E";
name = Bold;
paths = (
{
closed = 1;
nodes = (
"329 531 OFFCURVE",
"309 515 OFFCURVE",
"294 515 CURVE SMOOTH",
"287 515 OFFCURVE",
"281 520 OFFCURVE",
"281 533 CURVE SMOOTH",
"281 555 OFFCURVE",
"286 581 OFFCURVE",
"301 695 CURVE",
"293 699 OFFCURVE",
"287 700 OFFCURVE",
"274 700 CURVE SMOOTH",
"262 700 OFFCURVE",
"251 697 OFFCURVE",
"243 692 CURVE",
"233 696 OFFCURVE",
"219 700 OFFCURVE",
"201 700 CURVE SMOOTH",
"125 701 OFFCURVE",
"70 648 OFFCURVE",
"70 565 CURVE SMOOTH",
"70 508 OFFCURVE",
"113 472 OFFCURVE",
"157 472 CURVE SMOOTH",
"182 472 OFFCURVE",
"205 481 OFFCURVE",
"222 502 CURVE",
"231 483 OFFCURVE",
"252 472 OFFCURVE",
"280 472 CURVE SMOOTH",
"302 472 OFFCURVE",
"341 486 OFFCURVE",
"361 552 CURVE",
"359 560 OFFCURVE",
"355 570 OFFCURVE",
"342 581 CURVE"
);
},
{
closed = 1;
nodes = (
"221 561 LINE",
"210 527 OFFCURVE",
"192 515 OFFCURVE",
"175 515 CURVE SMOOTH",
"155 515 OFFCURVE",
"133 532 OFFCURVE",
"138 573 CURVE",
"140 633 OFFCURVE",
"165 663 OFFCURVE",
"204 663 CURVE SMOOTH",
"214 663 OFFCURVE",
"223 660 OFFCURVE",
"231 657 CURVE"
);
}
);
width = 416;
}
);
unicode = 00AA;
},
{
glyphname = ordmasculine;
layers = (
{
layerId = "D6BACC31-AA00-4837-BF4A-0C7E591D0F9E";
name = Bold;
paths = (
{
closed = 1;
nodes = (
"81 699 OFFCURVE",
"20 646 OFFCURVE",
"20 559 CURVE SMOOTH",
"20 498 OFFCURVE",
"67 450 OFFCURVE",
"136 450 CURVE SMOOTH",
"211 450 OFFCURVE",
"272 505 OFFCURVE",
"272 596 CURVE SMOOTH",
"272 653 OFFCURVE",
"224 700 OFFCURVE",
"160 700 CURVE SMOOTH"
);
},
{
closed = 1;
nodes = (
"186 658 OFFCURVE",
"200 622 OFFCURVE",
"200 587 CURVE SMOOTH",
"200 534 OFFCURVE",
"175 491 OFFCURVE",
"140 491 CURVE SMOOTH",
"108 491 OFFCURVE",
"92 523 OFFCURVE",
"92 561 CURVE",
"95 614 OFFCURVE",
"117 660 OFFCURVE",
"155 659 CURVE SMOOTH"
);
}
);
width = 282;
}
);
unicode = 00BA;
},
{
glyphname = mu;
layers = (
{
layerId = "D6BACC31-AA00-4837-BF4A-0C7E591D0F9E";
name = Bold;
paths = (
{
closed = 1;
nodes = (
"373 175 LINE",
"372 163 OFFCURVE",
"371 151 OFFCURVE",
"371 140 CURVE",
"349 107 OFFCURVE",
"319 91 OFFCURVE",
"288 91 CURVE SMOOTH",
"252 91 OFFCURVE",
"228 111 OFFCURVE",
"236 172 CURVE SMOOTH",
"251 290 OFFCURVE",
"261 359 OFFCURVE",
"266 396 CURVE SMOOTH",
"271 430 LINE",
"271 436 LINE SMOOTH",
"271 450 OFFCURVE",
"265 460 OFFCURVE",
"255 467 CURVE",
"245 476 OFFCURVE",
"232 479 OFFCURVE",
"218 480 CURVE",
"210 482 OFFCURVE",
"201 482 OFFCURVE",
"193 482 CURVE SMOOTH",
"169 482 OFFCURVE",
"144 477 OFFCURVE",
"136 474 CURVE",
"128 401 LINE SMOOTH",
"106 216 OFFCURVE",
"99 159 OFFCURVE",
"98 151 CURVE SMOOTH",
"97 142 OFFCURVE",
"97 134 OFFCURVE",
"97 126 CURVE",
"50 -274 LINE",
"181 -274 LINE",
"213 -3 LINE",
"223 -4 OFFCURVE",
"234 -5 OFFCURVE",
"246 -5 CURVE SMOOTH",
"306 -5 OFFCURVE",
"355 23 OFFCURVE",
"385 62 CURVE",
"404 20 OFFCURVE",
"442 -5 OFFCURVE",
"502 -5 CURVE SMOOTH",
"559 -5 OFFCURVE",
"644 29 OFFCURVE",
"678 172 CURVE",
"673 187 OFFCURVE",
"662 202 OFFCURVE",
"638 228 CURVE",
"612 123 OFFCURVE",
"562 86 OFFCURVE",
"533 86 CURVE SMOOTH",
"516 86 OFFCURVE",
"501 98 OFFCURVE",
"505 139 CURVE SMOOTH",
"509 184 OFFCURVE",
"518 254 OFFCURVE",
"545 471 CURVE",
"530 480 OFFCURVE",
"507 481 OFFCURVE",
"489 481 CURVE SMOOTH",
"449 481 OFFCURVE",
"415 464 OFFCURVE",
"406 441 CURVE"
);
}
);
width = 666;
}
);
unicode = 03BC;
},
{
glyphname = pi;
layers = (
{
layerId = "D6BACC31-AA00-4837-BF4A-0C7E591D0F9E";
name = Bold;
paths = (
{
closed = 1;
nodes = (
"203 761 LINE SMOOTH",
"91 761 OFFCURVE",
"50 691 OFFCURVE",
"50 633 CURVE SMOOTH",
"50 571 OFFCURVE",
"96 518 OFFCURVE",
"190 518 CURVE SMOOTH",
"228 519 OFFCURVE",
"264 532 OFFCURVE",
"296 554 CURVE",
"266 296 LINE",
"176 245 OFFCURVE",
"115 182 OFFCURVE",
"115 103 CURVE SMOOTH",
"115 42 OFFCURVE",
"151 -6 OFFCURVE",
"222 -6 CURVE SMOOTH",
"304 -6 OFFCURVE",
"370 36 OFFCURVE",
"388 171 CURVE SMOOTH",
"450 642 LINE",
"548 642 LINE",
"473 0 LINE",
"609 0 LINE",
"693 642 LINE",
"791 642 LINE SMOOTH",
"841 642 OFFCURVE",
"881 698 OFFCURVE",
"861 761 CURVE"
);
},
{
closed = 1;
nodes = (
"303 642 LINE",
"276 604 OFFCURVE",
"235 580 OFFCURVE",
"195 580 CURVE SMOOTH",
"155 580 OFFCURVE",
"137 593 OFFCURVE",
"137 611 CURVE SMOOTH",
"137 636 OFFCURVE",
"167 642 OFFCURVE",
"202 642 CURVE SMOOTH"
);
},
{
closed = 1;
nodes = (
"254 193 LINE SMOOTH",
"248 140 OFFCURVE",
"250 86 OFFCURVE",
"214 86 CURVE SMOOTH",
"187 86 OFFCURVE",
"185 107 OFFCURVE",
"185 118 CURVE SMOOTH",
"185 142 OFFCURVE",
"208 174 OFFCURVE",
"256 207 CURVE"
);
}
);
width = 916;
}
);
unicode = 03C0;
},
